  0
SECTION
  2
HEADER
  9
$ACADVER
  1
AC1009
  9
$FILLMODE
 70
1
  9
$EXTMIN
 10
-3.3270
 20
-13.4270
 30
0.0000
  9
$EXTMAX
 10
17.4270
 20
16.0270
 30
0.0000
  0
ENDSEC
  0
SECTION
  2
TABLES
  0
TABLE
  2
LTYPE
 70
1
  0
LTYPE
  2
CONTINUOUS
 70
64
  3
Solid line
 72
65
 73
0
 40
0
  0
ENDTAB
  0
TABLE
  2
LAYER
 70
255
  0
LAYER
  2
16
 70
64
 62
175
  6
CONTINUOUS
  0
LAYER
  2
17
 70
64
 62
82
  6
CONTINUOUS
  0
ENDTAB
  0
ENDSEC
  0
SECTION
  2
BLOCKS
  0
BLOCK
  8
0
  2
RECT
 70
64
 10
0.0000
 20
0.0000
 30
0.0000
  3
RECT
  0
SOLID
  8
0
 10
-0.5000
 20
-0.5000
 30
0.0000
 11
0.5000
 21
-0.5000
 31
0.0000
 12
-0.5000
 22
0.5000
 32
0.0000
 13
0.5000
 23
0.5000
 33
0.0000
  0
ENDBLK
  8
0
  0
BLOCK
  8
0
  2
PIE
 70
64
 10
0.0000
 20
0.0000
 30
0.0000
  3
PIE
  0
POLYLINE
  8
0
 66
1
 10
0.0000
 20
0.0000
 30
0.0000
 40
0.5000
 41
0.5000
 70
0
  0
VERTEX
  8
0
 10
0.0000
 20
-0.2500
 30
0.0000
 42
1.0000
  0
VERTEX
  8
0
 10
0.0000
 20
0.2500
 30
0.0000
 42
1.0000
  0
VERTEX
  8
0
 10
0.0000
 20
-0.2500
 30
0.0000
  0
SEQEND
  8
0
  0
ENDBLK
  8
0
  0
BLOCK
  8
0
  2
OCTAGONP
 70
64
 10
0.0000
 20
0.0000
 30
0.0000
  3
OCTAGONP
  0
POLYLINE
  8
0
 66
1
 10
0.0000
 20
0.0000
 30
0.0000
 40
0.5000
 41
0.5000
 70
0
  0
VERTEX
  8
0
 10
-0.2500
 20
-0.1036
 30
0.0000
  0
VERTEX
  8
0
 10
-0.2500
 20
0.1036
 30
0.0000
  0
VERTEX
  8
0
 10
-0.1036
 20
0.2500
 30
0.0000
  0
VERTEX
  8
0
 10
0.1036
 20
0.2500
 30
0.0000
  0
VERTEX
  8
0
 10
0.2500
 20
0.1036
 30
0.0000
  0
VERTEX
  8
0
 10
0.2500
 20
-0.1036
 30
0.0000
  0
VERTEX
  8
0
 10
0.1036
 20
-0.2500
 30
0.0000
  0
VERTEX
  8
0
 10
-0.1036
 20
-0.2500
 30
0.0000
  0
VERTEX
  8
0
 10
-0.2500
 20
-0.1036
 30
0.0000
  0
VERTEX
  8
0
 10
-0.2500
 20
0.1036
 30
0.0000
  0
SEQEND
  8
0
  0
ENDBLK
  8
0
  0
BLOCK
  8
0
  2
SQUAREP
 70
64
 10
0.0000
 20
0.0000
 30
0.0000
  3
SQUAREP
  0
SOLID
  8
0
 10
-0.5000
 20
-0.5000
 30
0.0000
 11
0.5000
 21
-0.5000
 31
0.0000
 12
-0.5000
 22
0.5000
 32
0.0000
 13
0.5000
 23
0.5000
 33
0.0000
  0
ENDBLK
  8
0
  0
BLOCK
  8
0
  2
ROUNDP
 70
64
 10
0.0000
 20
0.0000
 30
0.0000
  3
ROUNDP
  0
POLYLINE
  8
0
 66
1
 10
0.0000
 20
0.0000
 30
0.0000
 40
0.5000
 41
0.5000
 70
0
  0
VERTEX
  8
0
 10
0.0000
 20
-0.2500
 30
0.0000
 42
1.0000
  0
VERTEX
  8
0
 10
0.0000
 20
0.2500
 30
0.0000
 42
1.0000
  0
VERTEX
  8
0
 10
0.0000
 20
-0.2500
 30
0.0000
  0
SEQEND
  8
0
  0
ENDBLK
  8
0
  0
BLOCK
  8
0
  2
ANNULUSP
 70
64
 10
0.0000
 20
0.0000
 30
0.0000
  3
ANNULUSP
  0
POLYLINE
  8
0
 66
1
 10
0.0000
 20
0.0000
 30
0.0000
 40
0.5000
 41
0.5000
 70
0
  0
VERTEX
  8
0
 10
0.0000
 20
-0.2500
 30
0.0000
 42
1.0000
  0
VERTEX
  8
0
 10
0.0000
 20
0.2500
 30
0.0000
 42
1.0000
  0
VERTEX
  8
0
 10
0.0000
 20
-0.2500
 30
0.0000
  0
SEQEND
  8
0
  0
ENDBLK
  8
0
  0
BLOCK
  8
0
  2
THERMALP
 70
64
 10
0.0000
 20
0.0000
 30
0.0000
  3
THERMALP
  0
POLYLINE
  8
0
 66
1
 10
0.0000
 20
0.0000
 30
0.0000
 40
0.1000
 41
0.1000
 70
0
  0
VERTEX
  8
0
 10
-0.2379
 20
0.4500
 30
0.0000
  0
VERTEX
  8
0
 10
0.2379
 20
0.4500
 30
0.0000
  0
SEQEND
  8
0
  0
POLYLINE
  8
0
 66
1
 10
0.0000
 20
0.0000
 30
0.0000
 40
0.0500
 41
0.0500
 70
0
  0
VERTEX
  8
0
 10
0.2379
 20
0.4250
 30
0.0000
 42
1.0000
  0
VERTEX
  8
0
 10
0.2379
 20
0.4750
 30
0.0000
  0
SEQEND
  8
0
  0
POLYLINE
  8
0
 66
1
 10
0.0000
 20
0.0000
 30
0.0000
 40
0.0500
 41
0.0500
 70
0
  0
VERTEX
  8
0
 10
-0.2379
 20
0.4750
 30
0.0000
 42
1.0000
  0
VERTEX
  8
0
 10
-0.2379
 20
0.4250
 30
0.0000
  0
SEQEND
  8
0
  0
POLYLINE
  8
0
 66
1
 10
0.0000
 20
0.0000
 30
0.0000
 40
0.1000
 41
0.1000
 70
0
  0
VERTEX
  8
0
 10
0.4500
 20
0.2379
 30
0.0000
  0
VERTEX
  8
0
 10
0.4500
 20
-0.2379
 30
0.0000
  0
SEQEND
  8
0
  0
POLYLINE
  8
0
 66
1
 10
0.0000
 20
0.0000
 30
0.0000
 40
0.0500
 41
0.0500
 70
0
  0
VERTEX
  8
0
 10
0.4250
 20
-0.2379
 30
0.0000
 42
1.0000
  0
VERTEX
  8
0
 10
0.4750
 20
-0.2379
 30
0.0000
  0
SEQEND
  8
0
  0
POLYLINE
  8
0
 66
1
 10
0.0000
 20
0.0000
 30
0.0000
 40
0.0500
 41
0.0500
 70
0
  0
VERTEX
  8
0
 10
0.4750
 20
0.2379
 30
0.0000
 42
1.0000
  0
VERTEX
  8
0
 10
0.4250
 20
0.2379
 30
0.0000
  0
SEQEND
  8
0
  0
POLYLINE
  8
0
 66
1
 10
0.0000
 20
0.0000
 30
0.0000
 40
0.1000
 41
0.1000
 70
0
  0
VERTEX
  8
0
 10
0.2379
 20
-0.4500
 30
0.0000
  0
VERTEX
  8
0
 10
-0.2379
 20
-0.4500
 30
0.0000
  0
SEQEND
  8
0
  0
POLYLINE
  8
0
 66
1
 10
0.0000
 20
0.0000
 30
0.0000
 40
0.0500
 41
0.0500
 70
0
  0
VERTEX
  8
0
 10
-0.2379
 20
-0.4250
 30
0.0000
 42
1.0000
  0
VERTEX
  8
0
 10
-0.2379
 20
-0.4750
 30
0.0000
  0
SEQEND
  8
0
  0
POLYLINE
  8
0
 66
1
 10
0.0000
 20
0.0000
 30
0.0000
 40
0.0500
 41
0.0500
 70
0
  0
VERTEX
  8
0
 10
0.2379
 20
-0.4750
 30
0.0000
 42
1.0000
  0
VERTEX
  8
0
 10
0.2379
 20
-0.4250
 30
0.0000
  0
SEQEND
  8
0
  0
POLYLINE
  8
0
 66
1
 10
0.0000
 20
0.0000
 30
0.0000
 40
0.1000
 41
0.1000
 70
0
  0
VERTEX
  8
0
 10
-0.4500
 20
-0.2379
 30
0.0000
  0
VERTEX
  8
0
 10
-0.4500
 20
0.2379
 30
0.0000
  0
SEQEND
  8
0
  0
POLYLINE
  8
0
 66
1
 10
0.0000
 20
0.0000
 30
0.0000
 40
0.0500
 41
0.0500
 70
0
  0
VERTEX
  8
0
 10
-0.4250
 20
0.2379
 30
0.0000
 42
1.0000
  0
VERTEX
  8
0
 10
-0.4750
 20
0.2379
 30
0.0000
  0
SEQEND
  8
0
  0
POLYLINE
  8
0
 66
1
 10
0.0000
 20
0.0000
 30
0.0000
 40
0.0500
 41
0.0500
 70
0
  0
VERTEX
  8
0
 10
-0.4750
 20
-0.2379
 30
0.0000
 42
1.0000
  0
VERTEX
  8
0
 10
-0.4250
 20
-0.2379
 30
0.0000
  0
SEQEND
  8
0
  0
ENDBLK
  8
0
  0
BLOCK
  8
0
  2
OCTAGONV
 70
64
 10
0.0000
 20
0.0000
 30
0.0000
  3
OCTAGONV
  0
POLYLINE
  8
0
 66
1
 10
0.0000
 20
0.0000
 30
0.0000
 40
0.5000
 41
0.5000
 70
0
  0
VERTEX
  8
0
 10
-0.2500
 20
-0.1036
 30
0.0000
  0
VERTEX
  8
0
 10
-0.2500
 20
0.1036
 30
0.0000
  0
VERTEX
  8
0
 10
-0.1036
 20
0.2500
 30
0.0000
  0
VERTEX
  8
0
 10
0.1036
 20
0.2500
 30
0.0000
  0
VERTEX
  8
0
 10
0.2500
 20
0.1036
 30
0.0000
  0
VERTEX
  8
0
 10
0.2500
 20
-0.1036
 30
0.0000
  0
VERTEX
  8
0
 10
0.1036
 20
-0.2500
 30
0.0000
  0
VERTEX
  8
0
 10
-0.1036
 20
-0.2500
 30
0.0000
  0
VERTEX
  8
0
 10
-0.2500
 20
-0.1036
 30
0.0000
  0
VERTEX
  8
0
 10
-0.2500
 20
0.1036
 30
0.0000
  0
SEQEND
  8
0
  0
ENDBLK
  8
0
  0
BLOCK
  8
0
  2
SQUAREV
 70
64
 10
0.0000
 20
0.0000
 30
0.0000
  3
SQUAREV
  0
SOLID
  8
0
 10
-0.5000
 20
-0.5000
 30
0.0000
 11
0.5000
 21
-0.5000
 31
0.0000
 12
-0.5000
 22
0.5000
 32
0.0000
 13
0.5000
 23
0.5000
 33
0.0000
  0
ENDBLK
  8
0
  0
BLOCK
  8
0
  2
ROUNDV
 70
64
 10
0.0000
 20
0.0000
 30
0.0000
  3
ROUNDV
  0
POLYLINE
  8
0
 66
1
 10
0.0000
 20
0.0000
 30
0.0000
 40
0.5000
 41
0.5000
 70
0
  0
VERTEX
  8
0
 10
0.0000
 20
-0.2500
 30
0.0000
 42
1.0000
  0
VERTEX
  8
0
 10
0.0000
 20
0.2500
 30
0.0000
 42
1.0000
  0
VERTEX
  8
0
 10
0.0000
 20
-0.2500
 30
0.0000
  0
SEQEND
  8
0
  0
ENDBLK
  8
0
  0
BLOCK
  8
0
  2
ANNULUSV
 70
64
 10
0.0000
 20
0.0000
 30
0.0000
  3
ANNULUSV
  0
POLYLINE
  8
0
 66
1
 10
0.0000
 20
0.0000
 30
0.0000
 40
0.5000
 41
0.5000
 70
0
  0
VERTEX
  8
0
 10
0.0000
 20
-0.2500
 30
0.0000
 42
1.0000
  0
VERTEX
  8
0
 10
0.0000
 20
0.2500
 30
0.0000
 42
1.0000
  0
VERTEX
  8
0
 10
0.0000
 20
-0.2500
 30
0.0000
  0
SEQEND
  8
0
  0
ENDBLK
  8
0
  0
BLOCK
  8
0
  2
THERMALV
 70
64
 10
0.0000
 20
0.0000
 30
0.0000
  3
THERMALV
  0
POLYLINE
  8
0
 66
1
 10
0.0000
 20
0.0000
 30
0.0000
 40
0.1000
 41
0.1000
 70
0
  0
VERTEX
  8
0
 10
-0.2379
 20
0.4500
 30
0.0000
  0
VERTEX
  8
0
 10
0.2379
 20
0.4500
 30
0.0000
  0
SEQEND
  8
0
  0
POLYLINE
  8
0
 66
1
 10
0.0000
 20
0.0000
 30
0.0000
 40
0.0500
 41
0.0500
 70
0
  0
VERTEX
  8
0
 10
0.2379
 20
0.4250
 30
0.0000
 42
1.0000
  0
VERTEX
  8
0
 10
0.2379
 20
0.4750
 30
0.0000
  0
SEQEND
  8
0
  0
POLYLINE
  8
0
 66
1
 10
0.0000
 20
0.0000
 30
0.0000
 40
0.0500
 41
0.0500
 70
0
  0
VERTEX
  8
0
 10
-0.2379
 20
0.4750
 30
0.0000
 42
1.0000
  0
VERTEX
  8
0
 10
-0.2379
 20
0.4250
 30
0.0000
  0
SEQEND
  8
0
  0
POLYLINE
  8
0
 66
1
 10
0.0000
 20
0.0000
 30
0.0000
 40
0.1000
 41
0.1000
 70
0
  0
VERTEX
  8
0
 10
0.4500
 20
0.2379
 30
0.0000
  0
VERTEX
  8
0
 10
0.4500
 20
-0.2379
 30
0.0000
  0
SEQEND
  8
0
  0
POLYLINE
  8
0
 66
1
 10
0.0000
 20
0.0000
 30
0.0000
 40
0.0500
 41
0.0500
 70
0
  0
VERTEX
  8
0
 10
0.4250
 20
-0.2379
 30
0.0000
 42
1.0000
  0
VERTEX
  8
0
 10
0.4750
 20
-0.2379
 30
0.0000
  0
SEQEND
  8
0
  0
POLYLINE
  8
0
 66
1
 10
0.0000
 20
0.0000
 30
0.0000
 40
0.0500
 41
0.0500
 70
0
  0
VERTEX
  8
0
 10
0.4750
 20
0.2379
 30
0.0000
 42
1.0000
  0
VERTEX
  8
0
 10
0.4250
 20
0.2379
 30
0.0000
  0
SEQEND
  8
0
  0
POLYLINE
  8
0
 66
1
 10
0.0000
 20
0.0000
 30
0.0000
 40
0.1000
 41
0.1000
 70
0
  0
VERTEX
  8
0
 10
0.2379
 20
-0.4500
 30
0.0000
  0
VERTEX
  8
0
 10
-0.2379
 20
-0.4500
 30
0.0000
  0
SEQEND
  8
0
  0
POLYLINE
  8
0
 66
1
 10
0.0000
 20
0.0000
 30
0.0000
 40
0.0500
 41
0.0500
 70
0
  0
VERTEX
  8
0
 10
-0.2379
 20
-0.4250
 30
0.0000
 42
1.0000
  0
VERTEX
  8
0
 10
-0.2379
 20
-0.4750
 30
0.0000
  0
SEQEND
  8
0
  0
POLYLINE
  8
0
 66
1
 10
0.0000
 20
0.0000
 30
0.0000
 40
0.0500
 41
0.0500
 70
0
  0
VERTEX
  8
0
 10
0.2379
 20
-0.4750
 30
0.0000
 42
1.0000
  0
VERTEX
  8
0
 10
0.2379
 20
-0.4250
 30
0.0000
  0
SEQEND
  8
0
  0
POLYLINE
  8
0
 66
1
 10
0.0000
 20
0.0000
 30
0.0000
 40
0.1000
 41
0.1000
 70
0
  0
VERTEX
  8
0
 10
-0.4500
 20
-0.2379
 30
0.0000
  0
VERTEX
  8
0
 10
-0.4500
 20
0.2379
 30
0.0000
  0
SEQEND
  8
0
  0
POLYLINE
  8
0
 66
1
 10
0.0000
 20
0.0000
 30
0.0000
 40
0.0500
 41
0.0500
 70
0
  0
VERTEX
  8
0
 10
-0.4250
 20
0.2379
 30
0.0000
 42
1.0000
  0
VERTEX
  8
0
 10
-0.4750
 20
0.2379
 30
0.0000
  0
SEQEND
  8
0
  0
POLYLINE
  8
0
 66
1
 10
0.0000
 20
0.0000
 30
0.0000
 40
0.0500
 41
0.0500
 70
0
  0
VERTEX
  8
0
 10
-0.4750
 20
-0.2379
 30
0.0000
 42
1.0000
  0
VERTEX
  8
0
 10
-0.4250
 20
-0.2379
 30
0.0000
  0
SEQEND
  8
0
  0
ENDBLK
  8
0
  0
ENDSEC
  0
SECTION
  2
ENTITIES
  0
INSERT
  8
17
  2
SQUAREP
 10
2.5400
 20
-5.0800
 30
0.0000
 41
1.0500
 42
1.0500
 43
1.0000
 50
90.0000
  0
INSERT
  8
17
  2
SQUAREP
 10
1.2700
 20
-5.0800
 30
0.0000
 41
1.0500
 42
1.0500
 43
1.0000
 50
90.0000
  0
INSERT
  8
17
  2
SQUAREP
 10
2.5400
 20
-3.8100
 30
0.0000
 41
1.0500
 42
1.0500
 43
1.0000
 50
90.0000
  0
INSERT
  8
17
  2
SQUAREP
 10
1.2700
 20
-3.8100
 30
0.0000
 41
1.0500
 42
1.0500
 43
1.0000
 50
90.0000
  0
INSERT
  8
17
  2
SQUAREP
 10
2.5400
 20
-2.5400
 30
0.0000
 41
1.0500
 42
1.0500
 43
1.0000
 50
90.0000
  0
INSERT
  8
17
  2
SQUAREP
 10
1.2700
 20
-2.5400
 30
0.0000
 41
1.0500
 42
1.0500
 43
1.0000
 50
90.0000
  0
INSERT
  8
17
  2
SQUAREP
 10
2.5400
 20
-1.2700
 30
0.0000
 41
1.0500
 42
1.0500
 43
1.0000
 50
90.0000
  0
INSERT
  8
17
  2
SQUAREP
 10
1.2700
 20
-1.2700
 30
0.0000
 41
1.0500
 42
1.0500
 43
1.0000
 50
90.0000
  0
INSERT
  8
17
  2
SQUAREP
 10
2.5400
 20
0.0000
 30
0.0000
 41
1.0500
 42
1.0500
 43
1.0000
 50
90.0000
  0
INSERT
  8
17
  2
SQUAREP
 10
1.2700
 20
0.0000
 30
0.0000
 41
1.0500
 42
1.0500
 43
1.0000
 50
90.0000
  0
INSERT
  8
17
  2
SQUAREP
 10
2.5400
 20
1.2700
 30
0.0000
 41
1.0500
 42
1.0500
 43
1.0000
 50
90.0000
  0
INSERT
  8
17
  2
SQUAREP
 10
1.2700
 20
1.2700
 30
0.0000
 41
1.0500
 42
1.0500
 43
1.0000
 50
90.0000
  0
INSERT
  8
17
  2
SQUAREP
 10
2.5400
 20
2.5400
 30
0.0000
 41
1.0500
 42
1.0500
 43
1.0000
 50
90.0000
  0
INSERT
  8
17
  2
SQUAREP
 10
1.2700
 20
2.5400
 30
0.0000
 41
1.0500
 42
1.0500
 43
1.0000
 50
90.0000
  0
INSERT
  8
17
  2
SQUAREP
 10
2.5400
 20
3.8100
 30
0.0000
 41
1.0500
 42
1.0500
 43
1.0000
 50
90.0000
  0
INSERT
  8
17
  2
SQUAREP
 10
1.2700
 20
3.8100
 30
0.0000
 41
1.0500
 42
1.0500
 43
1.0000
 50
90.0000
  0
INSERT
  8
17
  2
SQUAREP
 10
2.5400
 20
5.0800
 30
0.0000
 41
1.0500
 42
1.0500
 43
1.0000
 50
90.0000
  0
INSERT
  8
17
  2
SQUAREP
 10
1.2700
 20
5.0800
 30
0.0000
 41
1.0500
 42
1.0500
 43
1.0000
 50
90.0000
  0
INSERT
  8
17
  2
SQUAREP
 10
2.5400
 20
6.3500
 30
0.0000
 41
1.0500
 42
1.0500
 43
1.0000
 50
90.0000
  0
INSERT
  8
17
  2
SQUAREP
 10
1.2700
 20
6.3500
 30
0.0000
 41
1.0500
 42
1.0500
 43
1.0000
 50
90.0000
  0
POLYLINE
  8
16
 66
1
 10
0.0000
 20
0.0000
 30
0.0000
 40
0.2540
 41
0.2540
 70
0
  0
VERTEX
  8
16
 10
15.1638
 20
13.8938
 30
0.0000
  0
VERTEX
  8
16
 10
15.1638
 20
-11.3538
 30
0.0000
  0
SEQEND
  8
0
  0
POLYLINE
  8
16
 66
1
 10
0.0000
 20
0.0000
 30
0.0000
 40
0.1270
 41
0.1270
 70
0
  0
VERTEX
  8
16
 10
15.1003
 20
-11.3538
 30
0.0000
 42
1.0000
  0
VERTEX
  8
16
 10
15.2273
 20
-11.3538
 30
0.0000
  0
SEQEND
  8
0
  0
POLYLINE
  8
16
 66
1
 10
0.0000
 20
0.0000
 30
0.0000
 40
0.1270
 41
0.1270
 70
0
  0
VERTEX
  8
16
 10
15.2273
 20
13.8938
 30
0.0000
 42
1.0000
  0
VERTEX
  8
16
 10
15.1003
 20
13.8938
 30
0.0000
  0
SEQEND
  8
0
  0
POLYLINE
  8
16
 66
1
 10
0.0000
 20
0.0000
 30
0.0000
 40
0.2540
 41
0.2540
 70
0
  0
VERTEX
  8
16
 10
15.1638
 20
-11.3538
 30
0.0000
  0
VERTEX
  8
16
 10
9.7303
 20
-11.3538
 30
0.0000
  0
SEQEND
  8
0
  0
POLYLINE
  8
16
 66
1
 10
0.0000
 20
0.0000
 30
0.0000
 40
0.1270
 41
0.1270
 70
0
  0
VERTEX
  8
16
 10
9.7303
 20
-11.2903
 30
0.0000
 42
1.0000
  0
VERTEX
  8
16
 10
9.7303
 20
-11.4173
 30
0.0000
  0
SEQEND
  8
0
  0
POLYLINE
  8
16
 66
1
 10
0.0000
 20
0.0000
 30
0.0000
 40
0.1270
 41
0.1270
 70
0
  0
VERTEX
  8
16
 10
15.1638
 20
-11.4173
 30
0.0000
 42
1.0000
  0
VERTEX
  8
16
 10
15.1638
 20
-11.2903
 30
0.0000
  0
SEQEND
  8
0
  0
POLYLINE
  8
16
 66
1
 10
0.0000
 20
0.0000
 30
0.0000
 40
0.2540
 41
0.2540
 70
0
  0
VERTEX
  8
16
 10
9.7303
 20
-11.3538
 30
0.0000
  0
VERTEX
  8
16
 10
9.8570
 20
-10.8811
 30
0.0000
  0
SEQEND
  8
0
  0
POLYLINE
  8
16
 66
1
 10
0.0000
 20
0.0000
 30
0.0000
 40
0.1270
 41
0.1270
 70
0
  0
VERTEX
  8
16
 10
9.9183
 20
-10.8976
 30
0.0000
 42
1.0000
  0
VERTEX
  8
16
 10
9.7957
 20
-10.8647
 30
0.0000
  0
SEQEND
  8
0
  0
POLYLINE
  8
16
 66
1
 10
0.0000
 20
0.0000
 30
0.0000
 40
0.1270
 41
0.1270
 70
0
  0
VERTEX
  8
16
 10
9.6690
 20
-11.3374
 30
0.0000
 42
1.0000
  0
VERTEX
  8
16
 10
9.7917
 20
-11.3702
 30
0.0000
  0
SEQEND
  8
0
  0
POLYLINE
  8
16
 66
1
 10
0.0000
 20
0.0000
 30
0.0000
 40
0.2540
 41
0.2540
 70
0
  0
VERTEX
  8
16
 10
9.8570
 20
-10.8811
 30
0.0000
  0
VERTEX
  8
16
 10
9.8570
 20
-10.1789
 30
0.0000
  0
SEQEND
  8
0
  0
POLYLINE
  8
16
 66
1
 10
0.0000
 20
0.0000
 30
0.0000
 40
0.1270
 41
0.1270
 70
0
  0
VERTEX
  8
16
 10
9.9205
 20
-10.1789
 30
0.0000
 42
1.0000
  0
VERTEX
  8
16
 10
9.7935
 20
-10.1789
 30
0.0000
  0
SEQEND
  8
0
  0
POLYLINE
  8
16
 66
1
 10
0.0000
 20
0.0000
 30
0.0000
 40
0.1270
 41
0.1270
 70
0
  0
VERTEX
  8
16
 10
9.7935
 20
-10.8811
 30
0.0000
 42
1.0000
  0
VERTEX
  8
16
 10
9.9205
 20
-10.8811
 30
0.0000
  0
SEQEND
  8
0
  0
POLYLINE
  8
16
 66
1
 10
0.0000
 20
0.0000
 30
0.0000
 40
0.2540
 41
0.2540
 70
0
  0
VERTEX
  8
16
 10
9.8570
 20
-10.1789
 30
0.0000
  0
VERTEX
  8
16
 10
9.6752
 20
-9.5006
 30
0.0000
  0
SEQEND
  8
0
  0
POLYLINE
  8
16
 66
1
 10
0.0000
 20
0.0000
 30
0.0000
 40
0.1270
 41
0.1270
 70
0
  0
VERTEX
  8
16
 10
9.7366
 20
-9.4841
 30
0.0000
 42
1.0000
  0
VERTEX
  8
16
 10
9.6139
 20
-9.5170
 30
0.0000
  0
SEQEND
  8
0
  0
POLYLINE
  8
16
 66
1
 10
0.0000
 20
0.0000
 30
0.0000
 40
0.1270
 41
0.1270
 70
0
  0
VERTEX
  8
16
 10
9.7957
 20
-10.1953
 30
0.0000
 42
1.0000
  0
VERTEX
  8
16
 10
9.9183
 20
-10.1624
 30
0.0000
  0
SEQEND
  8
0
  0
POLYLINE
  8
16
 66
1
 10
0.0000
 20
0.0000
 30
0.0000
 40
0.2540
 41
0.2540
 70
0
  0
VERTEX
  8
16
 10
9.6752
 20
-9.5006
 30
0.0000
  0
VERTEX
  8
16
 10
9.3241
 20
-8.8924
 30
0.0000
  0
SEQEND
  8
0
  0
POLYLINE
  8
16
 66
1
 10
0.0000
 20
0.0000
 30
0.0000
 40
0.1270
 41
0.1270
 70
0
  0
VERTEX
  8
16
 10
9.3791
 20
-8.8607
 30
0.0000
 42
1.0000
  0
VERTEX
  8
16
 10
9.2691
 20
-8.9242
 30
0.0000
  0
SEQEND
  8
0
  0
POLYLINE
  8
16
 66
1
 10
0.0000
 20
0.0000
 30
0.0000
 40
0.1270
 41
0.1270
 70
0
  0
VERTEX
  8
16
 10
9.6203
 20
-9.5323
 30
0.0000
 42
1.0000
  0
VERTEX
  8
16
 10
9.7302
 20
-9.4688
 30
0.0000
  0
SEQEND
  8
0
  0
POLYLINE
  8
16
 66
1
 10
0.0000
 20
0.0000
 30
0.0000
 40
0.2540
 41
0.2540
 70
0
  0
VERTEX
  8
16
 10
9.3241
 20
-8.8924
 30
0.0000
  0
VERTEX
  8
16
 10
8.8276
 20
-8.3959
 30
0.0000
  0
SEQEND
  8
0
  0
POLYLINE
  8
16
 66
1
 10
0.0000
 20
0.0000
 30
0.0000
 40
0.1270
 41
0.1270
 70
0
  0
VERTEX
  8
16
 10
8.8725
 20
-8.3510
 30
0.0000
 42
1.0000
  0
VERTEX
  8
16
 10
8.7827
 20
-8.4408
 30
0.0000
  0
SEQEND
  8
0
  0
POLYLINE
  8
16
 66
1
 10
0.0000
 20
0.0000
 30
0.0000
 40
0.1270
 41
0.1270
 70
0
  0
VERTEX
  8
16
 10
9.2792
 20
-8.9373
 30
0.0000
 42
1.0000
  0
VERTEX
  8
16
 10
9.3690
 20
-8.8475
 30
0.0000
  0
SEQEND
  8
0
  0
POLYLINE
  8
16
 66
1
 10
0.0000
 20
0.0000
 30
0.0000
 40
0.2540
 41
0.2540
 70
0
  0
VERTEX
  8
16
 10
8.8276
 20
-8.3959
 30
0.0000
  0
VERTEX
  8
16
 10
8.2194
 20
-8.0448
 30
0.0000
  0
SEQEND
  8
0
  0
POLYLINE
  8
16
 66
1
 10
0.0000
 20
0.0000
 30
0.0000
 40
0.1270
 41
0.1270
 70
0
  0
VERTEX
  8
16
 10
8.2512
 20
-7.9898
 30
0.0000
 42
1.0000
  0
VERTEX
  8
16
 10
8.1877
 20
-8.0997
 30
0.0000
  0
SEQEND
  8
0
  0
POLYLINE
  8
16
 66
1
 10
0.0000
 20
0.0000
 30
0.0000
 40
0.1270
 41
0.1270
 70
0
  0
VERTEX
  8
16
 10
8.7958
 20
-8.4509
 30
0.0000
 42
1.0000
  0
VERTEX
  8
16
 10
8.8593
 20
-8.3409
 30
0.0000
  0
SEQEND
  8
0
  0
POLYLINE
  8
16
 66
1
 10
0.0000
 20
0.0000
 30
0.0000
 40
0.2540
 41
0.2540
 70
0
  0
VERTEX
  8
16
 10
8.2194
 20
-8.0448
 30
0.0000
  0
VERTEX
  8
16
 10
7.5411
 20
-7.8630
 30
0.0000
  0
SEQEND
  8
0
  0
POLYLINE
  8
16
 66
1
 10
0.0000
 20
0.0000
 30
0.0000
 40
0.1270
 41
0.1270
 70
0
  0
VERTEX
  8
16
 10
7.5576
 20
-7.8017
 30
0.0000
 42
1.0000
  0
VERTEX
  8
16
 10
7.5247
 20
-7.9243
 30
0.0000
  0
SEQEND
  8
0
  0
POLYLINE
  8
16
 66
1
 10
0.0000
 20
0.0000
 30
0.0000
 40
0.1270
 41
0.1270
 70
0
  0
VERTEX
  8
16
 10
8.2030
 20
-8.1061
 30
0.0000
 42
1.0000
  0
VERTEX
  8
16
 10
8.2359
 20
-7.9834
 30
0.0000
  0
SEQEND
  8
0
  0
POLYLINE
  8
16
 66
1
 10
0.0000
 20
0.0000
 30
0.0000
 40
0.2540
 41
0.2540
 70
0
  0
VERTEX
  8
16
 10
7.5411
 20
-7.8630
 30
0.0000
  0
VERTEX
  8
16
 10
6.8389
 20
-7.8630
 30
0.0000
  0
SEQEND
  8
0
  0
POLYLINE
  8
16
 66
1
 10
0.0000
 20
0.0000
 30
0.0000
 40
0.1270
 41
0.1270
 70
0
  0
VERTEX
  8
16
 10
6.8389
 20
-7.7995
 30
0.0000
 42
1.0000
  0
VERTEX
  8
16
 10
6.8389
 20
-7.9265
 30
0.0000
  0
SEQEND
  8
0
  0
POLYLINE
  8
16
 66
1
 10
0.0000
 20
0.0000
 30
0.0000
 40
0.1270
 41
0.1270
 70
0
  0
VERTEX
  8
16
 10
7.5411
 20
-7.9265
 30
0.0000
 42
1.0000
  0
VERTEX
  8
16
 10
7.5411
 20
-7.7995
 30
0.0000
  0
SEQEND
  8
0
  0
POLYLINE
  8
16
 66
1
 10
0.0000
 20
0.0000
 30
0.0000
 40
0.2540
 41
0.2540
 70
0
  0
VERTEX
  8
16
 10
6.8389
 20
-7.8630
 30
0.0000
  0
VERTEX
  8
16
 10
6.1606
 20
-8.0448
 30
0.0000
  0
SEQEND
  8
0
  0
POLYLINE
  8
16
 66
1
 10
0.0000
 20
0.0000
 30
0.0000
 40
0.1270
 41
0.1270
 70
0
  0
VERTEX
  8
16
 10
6.1441
 20
-7.9834
 30
0.0000
 42
1.0000
  0
VERTEX
  8
16
 10
6.1770
 20
-8.1061
 30
0.0000
  0
SEQEND
  8
0
  0
POLYLINE
  8
16
 66
1
 10
0.0000
 20
0.0000
 30
0.0000
 40
0.1270
 41
0.1270
 70
0
  0
VERTEX
  8
16
 10
6.8553
 20
-7.9243
 30
0.0000
 42
1.0000
  0
VERTEX
  8
16
 10
6.8224
 20
-7.8017
 30
0.0000
  0
SEQEND
  8
0
  0
POLYLINE
  8
16
 66
1
 10
0.0000
 20
0.0000
 30
0.0000
 40
0.2540
 41
0.2540
 70
0
  0
VERTEX
  8
16
 10
6.1606
 20
-8.0448
 30
0.0000
  0
VERTEX
  8
16
 10
5.5524
 20
-8.3959
 30
0.0000
  0
SEQEND
  8
0
  0
POLYLINE
  8
16
 66
1
 10
0.0000
 20
0.0000
 30
0.0000
 40
0.1270
 41
0.1270
 70
0
  0
VERTEX
  8
16
 10
5.5207
 20
-8.3409
 30
0.0000
 42
1.0000
  0
VERTEX
  8
16
 10
5.5842
 20
-8.4509
 30
0.0000
  0
SEQEND
  8
0
  0
POLYLINE
  8
16
 66
1
 10
0.0000
 20
0.0000
 30
0.0000
 40
0.1270
 41
0.1270
 70
0
  0
VERTEX
  8
16
 10
6.1923
 20
-8.0997
 30
0.0000
 42
1.0000
  0
VERTEX
  8
16
 10
6.1288
 20
-7.9898
 30
0.0000
  0
SEQEND
  8
0
  0
POLYLINE
  8
16
 66
1
 10
0.0000
 20
0.0000
 30
0.0000
 40
0.2540
 41
0.2540
 70
0
  0
VERTEX
  8
16
 10
5.5524
 20
-8.3959
 30
0.0000
  0
VERTEX
  8
16
 10
5.0559
 20
-8.8924
 30
0.0000
  0
SEQEND
  8
0
  0
POLYLINE
  8
16
 66
1
 10
0.0000
 20
0.0000
 30
0.0000
 40
0.1270
 41
0.1270
 70
0
  0
VERTEX
  8
16
 10
5.0110
 20
-8.8475
 30
0.0000
 42
1.0000
  0
VERTEX
  8
16
 10
5.1008
 20
-8.9373
 30
0.0000
  0
SEQEND
  8
0
  0
POLYLINE
  8
16
 66
1
 10
0.0000
 20
0.0000
 30
0.0000
 40
0.1270
 41
0.1270
 70
0
  0
VERTEX
  8
16
 10
5.5973
 20
-8.4408
 30
0.0000
 42
1.0000
  0
VERTEX
  8
16
 10
5.5075
 20
-8.3510
 30
0.0000
  0
SEQEND
  8
0
  0
POLYLINE
  8
16
 66
1
 10
0.0000
 20
0.0000
 30
0.0000
 40
0.2540
 41
0.2540
 70
0
  0
VERTEX
  8
16
 10
5.0559
 20
-8.8924
 30
0.0000
  0
VERTEX
  8
16
 10
4.7048
 20
-9.5006
 30
0.0000
  0
SEQEND
  8
0
  0
POLYLINE
  8
16
 66
1
 10
0.0000
 20
0.0000
 30
0.0000
 40
0.1270
 41
0.1270
 70
0
  0
VERTEX
  8
16
 10
4.6498
 20
-9.4688
 30
0.0000
 42
1.0000
  0
VERTEX
  8
16
 10
4.7597
 20
-9.5323
 30
0.0000
  0
SEQEND
  8
0
  0
POLYLINE
  8
16
 66
1
 10
0.0000
 20
0.0000
 30
0.0000
 40
0.1270
 41
0.1270
 70
0
  0
VERTEX
  8
16
 10
5.1109
 20
-8.9242
 30
0.0000
 42
1.0000
  0
VERTEX
  8
16
 10
5.0009
 20
-8.8607
 30
0.0000
  0
SEQEND
  8
0
  0
POLYLINE
  8
16
 66
1
 10
0.0000
 20
0.0000
 30
0.0000
 40
0.2540
 41
0.2540
 70
0
  0
VERTEX
  8
16
 10
4.7048
 20
-9.5006
 30
0.0000
  0
VERTEX
  8
16
 10
4.5230
 20
-10.1789
 30
0.0000
  0
SEQEND
  8
0
  0
POLYLINE
  8
16
 66
1
 10
0.0000
 20
0.0000
 30
0.0000
 40
0.1270
 41
0.1270
 70
0
  0
VERTEX
  8
16
 10
4.4617
 20
-10.1624
 30
0.0000
 42
1.0000
  0
VERTEX
  8
16
 10
4.5843
 20
-10.1953
 30
0.0000
  0
SEQEND
  8
0
  0
POLYLINE
  8
16
 66
1
 10
0.0000
 20
0.0000
 30
0.0000
 40
0.1270
 41
0.1270
 70
0
  0
VERTEX
  8
16
 10
4.7661
 20
-9.5170
 30
0.0000
 42
1.0000
  0
VERTEX
  8
16
 10
4.6434
 20
-9.4841
 30
0.0000
  0
SEQEND
  8
0
  0
POLYLINE
  8
16
 66
1
 10
0.0000
 20
0.0000
 30
0.0000
 40
0.2540
 41
0.2540
 70
0
  0
VERTEX
  8
16
 10
4.5230
 20
-10.1789
 30
0.0000
  0
VERTEX
  8
16
 10
4.5230
 20
-10.8811
 30
0.0000
  0
SEQEND
  8
0
  0
POLYLINE
  8
16
 66
1
 10
0.0000
 20
0.0000
 30
0.0000
 40
0.1270
 41
0.1270
 70
0
  0
VERTEX
  8
16
 10
4.4595
 20
-10.8811
 30
0.0000
 42
1.0000
  0
VERTEX
  8
16
 10
4.5865
 20
-10.8811
 30
0.0000
  0
SEQEND
  8
0
  0
POLYLINE
  8
16
 66
1
 10
0.0000
 20
0.0000
 30
0.0000
 40
0.1270
 41
0.1270
 70
0
  0
VERTEX
  8
16
 10
4.5865
 20
-10.1789
 30
0.0000
 42
1.0000
  0
VERTEX
  8
16
 10
4.4595
 20
-10.1789
 30
0.0000
  0
SEQEND
  8
0
  0
POLYLINE
  8
16
 66
1
 10
0.0000
 20
0.0000
 30
0.0000
 40
0.2540
 41
0.2540
 70
0
  0
VERTEX
  8
16
 10
4.5230
 20
-10.8811
 30
0.0000
  0
VERTEX
  8
16
 10
4.6497
 20
-11.3538
 30
0.0000
  0
SEQEND
  8
0
  0
POLYLINE
  8
16
 66
1
 10
0.0000
 20
0.0000
 30
0.0000
 40
0.1270
 41
0.1270
 70
0
  0
VERTEX
  8
16
 10
4.5883
 20
-11.3702
 30
0.0000
 42
1.0000
  0
VERTEX
  8
16
 10
4.7110
 20
-11.3374
 30
0.0000
  0
SEQEND
  8
0
  0
POLYLINE
  8
16
 66
1
 10
0.0000
 20
0.0000
 30
0.0000
 40
0.1270
 41
0.1270
 70
0
  0
VERTEX
  8
16
 10
4.5843
 20
-10.8647
 30
0.0000
 42
1.0000
  0
VERTEX
  8
16
 10
4.4617
 20
-10.8976
 30
0.0000
  0
SEQEND
  8
0
  0
POLYLINE
  8
16
 66
1
 10
0.0000
 20
0.0000
 30
0.0000
 40
0.2540
 41
0.2540
 70
0
  0
VERTEX
  8
16
 10
4.6497
 20
-11.3538
 30
0.0000
  0
VERTEX
  8
16
 10
-1.1938
 20
-11.3538
 30
0.0000
  0
SEQEND
  8
0
  0
POLYLINE
  8
16
 66
1
 10
0.0000
 20
0.0000
 30
0.0000
 40
0.1270
 41
0.1270
 70
0
  0
VERTEX
  8
16
 10
-1.1938
 20
-11.2903
 30
0.0000
 42
1.0000
  0
VERTEX
  8
16
 10
-1.1938
 20
-11.4173
 30
0.0000
  0
SEQEND
  8
0
  0
POLYLINE
  8
16
 66
1
 10
0.0000
 20
0.0000
 30
0.0000
 40
0.1270
 41
0.1270
 70
0
  0
VERTEX
  8
16
 10
4.6497
 20
-11.4173
 30
0.0000
 42
1.0000
  0
VERTEX
  8
16
 10
4.6497
 20
-11.2903
 30
0.0000
  0
SEQEND
  8
0
  0
POLYLINE
  8
16
 66
1
 10
0.0000
 20
0.0000
 30
0.0000
 40
0.2540
 41
0.2540
 70
0
  0
VERTEX
  8
16
 10
-1.1938
 20
-11.3538
 30
0.0000
  0
VERTEX
  8
16
 10
-1.1938
 20
13.8938
 30
0.0000
  0
SEQEND
  8
0
  0
POLYLINE
  8
16
 66
1
 10
0.0000
 20
0.0000
 30
0.0000
 40
0.1270
 41
0.1270
 70
0
  0
VERTEX
  8
16
 10
-1.1303
 20
13.8938
 30
0.0000
 42
1.0000
  0
VERTEX
  8
16
 10
-1.2573
 20
13.8938
 30
0.0000
  0
SEQEND
  8
0
  0
POLYLINE
  8
16
 66
1
 10
0.0000
 20
0.0000
 30
0.0000
 40
0.1270
 41
0.1270
 70
0
  0
VERTEX
  8
16
 10
-1.2573
 20
-11.3538
 30
0.0000
 42
1.0000
  0
VERTEX
  8
16
 10
-1.1303
 20
-11.3538
 30
0.0000
  0
SEQEND
  8
0
  0
POLYLINE
  8
16
 66
1
 10
0.0000
 20
0.0000
 30
0.0000
 40
0.2540
 41
0.2540
 70
0
  0
VERTEX
  8
16
 10
-1.1938
 20
13.8938
 30
0.0000
  0
VERTEX
  8
16
 10
4.6497
 20
13.8938
 30
0.0000
  0
SEQEND
  8
0
  0
POLYLINE
  8
16
 66
1
 10
0.0000
 20
0.0000
 30
0.0000
 40
0.1270
 41
0.1270
 70
0
  0
VERTEX
  8
16
 10
4.6497
 20
13.8303
 30
0.0000
 42
1.0000
  0
VERTEX
  8
16
 10
4.6497
 20
13.9573
 30
0.0000
  0
SEQEND
  8
0
  0
POLYLINE
  8
16
 66
1
 10
0.0000
 20
0.0000
 30
0.0000
 40
0.1270
 41
0.1270
 70
0
  0
VERTEX
  8
16
 10
-1.1938
 20
13.9573
 30
0.0000
 42
1.0000
  0
VERTEX
  8
16
 10
-1.1938
 20
13.8303
 30
0.0000
  0
SEQEND
  8
0
  0
POLYLINE
  8
16
 66
1
 10
0.0000
 20
0.0000
 30
0.0000
 40
0.2540
 41
0.2540
 70
0
  0
VERTEX
  8
16
 10
4.6497
 20
13.8938
 30
0.0000
  0
VERTEX
  8
16
 10
4.5230
 20
13.4211
 30
0.0000
  0
SEQEND
  8
0
  0
POLYLINE
  8
16
 66
1
 10
0.0000
 20
0.0000
 30
0.0000
 40
0.1270
 41
0.1270
 70
0
  0
VERTEX
  8
16
 10
4.4617
 20
13.4376
 30
0.0000
 42
1.0000
  0
VERTEX
  8
16
 10
4.5843
 20
13.4047
 30
0.0000
  0
SEQEND
  8
0
  0
POLYLINE
  8
16
 66
1
 10
0.0000
 20
0.0000
 30
0.0000
 40
0.1270
 41
0.1270
 70
0
  0
VERTEX
  8
16
 10
4.7110
 20
13.8774
 30
0.0000
 42
1.0000
  0
VERTEX
  8
16
 10
4.5883
 20
13.9102
 30
0.0000
  0
SEQEND
  8
0
  0
POLYLINE
  8
16
 66
1
 10
0.0000
 20
0.0000
 30
0.0000
 40
0.2540
 41
0.2540
 70
0
  0
VERTEX
  8
16
 10
4.5230
 20
13.4211
 30
0.0000
  0
VERTEX
  8
16
 10
4.5230
 20
12.7189
 30
0.0000
  0
SEQEND
  8
0
  0
POLYLINE
  8
16
 66
1
 10
0.0000
 20
0.0000
 30
0.0000
 40
0.1270
 41
0.1270
 70
0
  0
VERTEX
  8
16
 10
4.4595
 20
12.7189
 30
0.0000
 42
1.0000
  0
VERTEX
  8
16
 10
4.5865
 20
12.7189
 30
0.0000
  0
SEQEND
  8
0
  0
POLYLINE
  8
16
 66
1
 10
0.0000
 20
0.0000
 30
0.0000
 40
0.1270
 41
0.1270
 70
0
  0
VERTEX
  8
16
 10
4.5865
 20
13.4211
 30
0.0000
 42
1.0000
  0
VERTEX
  8
16
 10
4.4595
 20
13.4211
 30
0.0000
  0
SEQEND
  8
0
  0
POLYLINE
  8
16
 66
1
 10
0.0000
 20
0.0000
 30
0.0000
 40
0.2540
 41
0.2540
 70
0
  0
VERTEX
  8
16
 10
4.5230
 20
12.7189
 30
0.0000
  0
VERTEX
  8
16
 10
4.7048
 20
12.0406
 30
0.0000
  0
SEQEND
  8
0
  0
POLYLINE
  8
16
 66
1
 10
0.0000
 20
0.0000
 30
0.0000
 40
0.1270
 41
0.1270
 70
0
  0
VERTEX
  8
16
 10
4.6434
 20
12.0241
 30
0.0000
 42
1.0000
  0
VERTEX
  8
16
 10
4.7661
 20
12.0570
 30
0.0000
  0
SEQEND
  8
0
  0
POLYLINE
  8
16
 66
1
 10
0.0000
 20
0.0000
 30
0.0000
 40
0.1270
 41
0.1270
 70
0
  0
VERTEX
  8
16
 10
4.5843
 20
12.7353
 30
0.0000
 42
1.0000
  0
VERTEX
  8
16
 10
4.4617
 20
12.7024
 30
0.0000
  0
SEQEND
  8
0
  0
POLYLINE
  8
16
 66
1
 10
0.0000
 20
0.0000
 30
0.0000
 40
0.2540
 41
0.2540
 70
0
  0
VERTEX
  8
16
 10
4.7048
 20
12.0406
 30
0.0000
  0
VERTEX
  8
16
 10
5.0559
 20
11.4324
 30
0.0000
  0
SEQEND
  8
0
  0
POLYLINE
  8
16
 66
1
 10
0.0000
 20
0.0000
 30
0.0000
 40
0.1270
 41
0.1270
 70
0
  0
VERTEX
  8
16
 10
5.0009
 20
11.4007
 30
0.0000
 42
1.0000
  0
VERTEX
  8
16
 10
5.1109
 20
11.4642
 30
0.0000
  0
SEQEND
  8
0
  0
POLYLINE
  8
16
 66
1
 10
0.0000
 20
0.0000
 30
0.0000
 40
0.1270
 41
0.1270
 70
0
  0
VERTEX
  8
16
 10
4.7597
 20
12.0723
 30
0.0000
 42
1.0000
  0
VERTEX
  8
16
 10
4.6498
 20
12.0088
 30
0.0000
  0
SEQEND
  8
0
  0
POLYLINE
  8
16
 66
1
 10
0.0000
 20
0.0000
 30
0.0000
 40
0.2540
 41
0.2540
 70
0
  0
VERTEX
  8
16
 10
5.0559
 20
11.4324
 30
0.0000
  0
VERTEX
  8
16
 10
5.5524
 20
10.9359
 30
0.0000
  0
SEQEND
  8
0
  0
POLYLINE
  8
16
 66
1
 10
0.0000
 20
0.0000
 30
0.0000
 40
0.1270
 41
0.1270
 70
0
  0
VERTEX
  8
16
 10
5.5075
 20
10.8910
 30
0.0000
 42
1.0000
  0
VERTEX
  8
16
 10
5.5973
 20
10.9808
 30
0.0000
  0
SEQEND
  8
0
  0
POLYLINE
  8
16
 66
1
 10
0.0000
 20
0.0000
 30
0.0000
 40
0.1270
 41
0.1270
 70
0
  0
VERTEX
  8
16
 10
5.1008
 20
11.4773
 30
0.0000
 42
1.0000
  0
VERTEX
  8
16
 10
5.0110
 20
11.3875
 30
0.0000
  0
SEQEND
  8
0
  0
POLYLINE
  8
16
 66
1
 10
0.0000
 20
0.0000
 30
0.0000
 40
0.2540
 41
0.2540
 70
0
  0
VERTEX
  8
16
 10
5.5524
 20
10.9359
 30
0.0000
  0
VERTEX
  8
16
 10
6.1606
 20
10.5847
 30
0.0000
  0
SEQEND
  8
0
  0
POLYLINE
  8
16
 66
1
 10
0.0000
 20
0.0000
 30
0.0000
 40
0.1270
 41
0.1270
 70
0
  0
VERTEX
  8
16
 10
6.1288
 20
10.5298
 30
0.0000
 42
1.0000
  0
VERTEX
  8
16
 10
6.1923
 20
10.6397
 30
0.0000
  0
SEQEND
  8
0
  0
POLYLINE
  8
16
 66
1
 10
0.0000
 20
0.0000
 30
0.0000
 40
0.1270
 41
0.1270
 70
0
  0
VERTEX
  8
16
 10
5.5842
 20
10.9909
 30
0.0000
 42
1.0000
  0
VERTEX
  8
16
 10
5.5207
 20
10.8809
 30
0.0000
  0
SEQEND
  8
0
  0
POLYLINE
  8
16
 66
1
 10
0.0000
 20
0.0000
 30
0.0000
 40
0.2540
 41
0.2540
 70
0
  0
VERTEX
  8
16
 10
6.1606
 20
10.5847
 30
0.0000
  0
VERTEX
  8
16
 10
6.8389
 20
10.4030
 30
0.0000
  0
SEQEND
  8
0
  0
POLYLINE
  8
16
 66
1
 10
0.0000
 20
0.0000
 30
0.0000
 40
0.1270
 41
0.1270
 70
0
  0
VERTEX
  8
16
 10
6.8224
 20
10.3417
 30
0.0000
 42
1.0000
  0
VERTEX
  8
16
 10
6.8553
 20
10.4643
 30
0.0000
  0
SEQEND
  8
0
  0
POLYLINE
  8
16
 66
1
 10
0.0000
 20
0.0000
 30
0.0000
 40
0.1270
 41
0.1270
 70
0
  0
VERTEX
  8
16
 10
6.1770
 20
10.6461
 30
0.0000
 42
1.0000
  0
VERTEX
  8
16
 10
6.1441
 20
10.5234
 30
0.0000
  0
SEQEND
  8
0
  0
POLYLINE
  8
16
 66
1
 10
0.0000
 20
0.0000
 30
0.0000
 40
0.2540
 41
0.2540
 70
0
  0
VERTEX
  8
16
 10
6.8389
 20
10.4030
 30
0.0000
  0
VERTEX
  8
16
 10
7.5411
 20
10.4030
 30
0.0000
  0
SEQEND
  8
0
  0
POLYLINE
  8
16
 66
1
 10
0.0000
 20
0.0000
 30
0.0000
 40
0.1270
 41
0.1270
 70
0
  0
VERTEX
  8
16
 10
7.5411
 20
10.3395
 30
0.0000
 42
1.0000
  0
VERTEX
  8
16
 10
7.5411
 20
10.4665
 30
0.0000
  0
SEQEND
  8
0
  0
POLYLINE
  8
16
 66
1
 10
0.0000
 20
0.0000
 30
0.0000
 40
0.1270
 41
0.1270
 70
0
  0
VERTEX
  8
16
 10
6.8389
 20
10.4665
 30
0.0000
 42
1.0000
  0
VERTEX
  8
16
 10
6.8389
 20
10.3395
 30
0.0000
  0
SEQEND
  8
0
  0
POLYLINE
  8
16
 66
1
 10
0.0000
 20
0.0000
 30
0.0000
 40
0.2540
 41
0.2540
 70
0
  0
VERTEX
  8
16
 10
7.5411
 20
10.4030
 30
0.0000
  0
VERTEX
  8
16
 10
8.2194
 20
10.5847
 30
0.0000
  0
SEQEND
  8
0
  0
POLYLINE
  8
16
 66
1
 10
0.0000
 20
0.0000
 30
0.0000
 40
0.1270
 41
0.1270
 70
0
  0
VERTEX
  8
16
 10
8.2359
 20
10.5234
 30
0.0000
 42
1.0000
  0
VERTEX
  8
16
 10
8.2030
 20
10.6461
 30
0.0000
  0
SEQEND
  8
0
  0
POLYLINE
  8
16
 66
1
 10
0.0000
 20
0.0000
 30
0.0000
 40
0.1270
 41
0.1270
 70
0
  0
VERTEX
  8
16
 10
7.5247
 20
10.4643
 30
0.0000
 42
1.0000
  0
VERTEX
  8
16
 10
7.5576
 20
10.3417
 30
0.0000
  0
SEQEND
  8
0
  0
POLYLINE
  8
16
 66
1
 10
0.0000
 20
0.0000
 30
0.0000
 40
0.2540
 41
0.2540
 70
0
  0
VERTEX
  8
16
 10
8.2194
 20
10.5847
 30
0.0000
  0
VERTEX
  8
16
 10
8.8276
 20
10.9359
 30
0.0000
  0
SEQEND
  8
0
  0
POLYLINE
  8
16
 66
1
 10
0.0000
 20
0.0000
 30
0.0000
 40
0.1270
 41
0.1270
 70
0
  0
VERTEX
  8
16
 10
8.8593
 20
10.8809
 30
0.0000
 42
1.0000
  0
VERTEX
  8
16
 10
8.7958
 20
10.9909
 30
0.0000
  0
SEQEND
  8
0
  0
POLYLINE
  8
16
 66
1
 10
0.0000
 20
0.0000
 30
0.0000
 40
0.1270
 41
0.1270
 70
0
  0
VERTEX
  8
16
 10
8.1877
 20
10.6397
 30
0.0000
 42
1.0000
  0
VERTEX
  8
16
 10
8.2512
 20
10.5298
 30
0.0000
  0
SEQEND
  8
0
  0
POLYLINE
  8
16
 66
1
 10
0.0000
 20
0.0000
 30
0.0000
 40
0.2540
 41
0.2540
 70
0
  0
VERTEX
  8
16
 10
8.8276
 20
10.9359
 30
0.0000
  0
VERTEX
  8
16
 10
9.3241
 20
11.4324
 30
0.0000
  0
SEQEND
  8
0
  0
POLYLINE
  8
16
 66
1
 10
0.0000
 20
0.0000
 30
0.0000
 40
0.1270
 41
0.1270
 70
0
  0
VERTEX
  8
16
 10
9.3690
 20
11.3875
 30
0.0000
 42
1.0000
  0
VERTEX
  8
16
 10
9.2792
 20
11.4773
 30
0.0000
  0
SEQEND
  8
0
  0
POLYLINE
  8
16
 66
1
 10
0.0000
 20
0.0000
 30
0.0000
 40
0.1270
 41
0.1270
 70
0
  0
VERTEX
  8
16
 10
8.7827
 20
10.9808
 30
0.0000
 42
1.0000
  0
VERTEX
  8
16
 10
8.8725
 20
10.8910
 30
0.0000
  0
SEQEND
  8
0
  0
POLYLINE
  8
16
 66
1
 10
0.0000
 20
0.0000
 30
0.0000
 40
0.2540
 41
0.2540
 70
0
  0
VERTEX
  8
16
 10
9.3241
 20
11.4324
 30
0.0000
  0
VERTEX
  8
16
 10
9.6752
 20
12.0406
 30
0.0000
  0
SEQEND
  8
0
  0
POLYLINE
  8
16
 66
1
 10
0.0000
 20
0.0000
 30
0.0000
 40
0.1270
 41
0.1270
 70
0
  0
VERTEX
  8
16
 10
9.7302
 20
12.0088
 30
0.0000
 42
1.0000
  0
VERTEX
  8
16
 10
9.6203
 20
12.0723
 30
0.0000
  0
SEQEND
  8
0
  0
POLYLINE
  8
16
 66
1
 10
0.0000
 20
0.0000
 30
0.0000
 40
0.1270
 41
0.1270
 70
0
  0
VERTEX
  8
16
 10
9.2691
 20
11.4642
 30
0.0000
 42
1.0000
  0
VERTEX
  8
16
 10
9.3791
 20
11.4007
 30
0.0000
  0
SEQEND
  8
0
  0
POLYLINE
  8
16
 66
1
 10
0.0000
 20
0.0000
 30
0.0000
 40
0.2540
 41
0.2540
 70
0
  0
VERTEX
  8
16
 10
9.6752
 20
12.0406
 30
0.0000
  0
VERTEX
  8
16
 10
9.8570
 20
12.7189
 30
0.0000
  0
SEQEND
  8
0
  0
POLYLINE
  8
16
 66
1
 10
0.0000
 20
0.0000
 30
0.0000
 40
0.1270
 41
0.1270
 70
0
  0
VERTEX
  8
16
 10
9.9183
 20
12.7024
 30
0.0000
 42
1.0000
  0
VERTEX
  8
16
 10
9.7957
 20
12.7353
 30
0.0000
  0
SEQEND
  8
0
  0
POLYLINE
  8
16
 66
1
 10
0.0000
 20
0.0000
 30
0.0000
 40
0.1270
 41
0.1270
 70
0
  0
VERTEX
  8
16
 10
9.6139
 20
12.0570
 30
0.0000
 42
1.0000
  0
VERTEX
  8
16
 10
9.7366
 20
12.0241
 30
0.0000
  0
SEQEND
  8
0
  0
POLYLINE
  8
16
 66
1
 10
0.0000
 20
0.0000
 30
0.0000
 40
0.2540
 41
0.2540
 70
0
  0
VERTEX
  8
16
 10
9.8570
 20
12.7189
 30
0.0000
  0
VERTEX
  8
16
 10
9.8570
 20
13.4211
 30
0.0000
  0
SEQEND
  8
0
  0
POLYLINE
  8
16
 66
1
 10
0.0000
 20
0.0000
 30
0.0000
 40
0.1270
 41
0.1270
 70
0
  0
VERTEX
  8
16
 10
9.9205
 20
13.4211
 30
0.0000
 42
1.0000
  0
VERTEX
  8
16
 10
9.7935
 20
13.4211
 30
0.0000
  0
SEQEND
  8
0
  0
POLYLINE
  8
16
 66
1
 10
0.0000
 20
0.0000
 30
0.0000
 40
0.1270
 41
0.1270
 70
0
  0
VERTEX
  8
16
 10
9.7935
 20
12.7189
 30
0.0000
 42
1.0000
  0
VERTEX
  8
16
 10
9.9205
 20
12.7189
 30
0.0000
  0
SEQEND
  8
0
  0
POLYLINE
  8
16
 66
1
 10
0.0000
 20
0.0000
 30
0.0000
 40
0.2540
 41
0.2540
 70
0
  0
VERTEX
  8
16
 10
9.8570
 20
13.4211
 30
0.0000
  0
VERTEX
  8
16
 10
9.7303
 20
13.8938
 30
0.0000
  0
SEQEND
  8
0
  0
POLYLINE
  8
16
 66
1
 10
0.0000
 20
0.0000
 30
0.0000
 40
0.1270
 41
0.1270
 70
0
  0
VERTEX
  8
16
 10
9.7917
 20
13.9102
 30
0.0000
 42
1.0000
  0
VERTEX
  8
16
 10
9.6690
 20
13.8774
 30
0.0000
  0
SEQEND
  8
0
  0
POLYLINE
  8
16
 66
1
 10
0.0000
 20
0.0000
 30
0.0000
 40
0.1270
 41
0.1270
 70
0
  0
VERTEX
  8
16
 10
9.7957
 20
13.4047
 30
0.0000
 42
1.0000
  0
VERTEX
  8
16
 10
9.9183
 20
13.4376
 30
0.0000
  0
SEQEND
  8
0
  0
POLYLINE
  8
16
 66
1
 10
0.0000
 20
0.0000
 30
0.0000
 40
0.2540
 41
0.2540
 70
0
  0
VERTEX
  8
16
 10
9.7303
 20
13.8938
 30
0.0000
  0
VERTEX
  8
16
 10
15.1638
 20
13.8938
 30
0.0000
  0
SEQEND
  8
0
  0
POLYLINE
  8
16
 66
1
 10
0.0000
 20
0.0000
 30
0.0000
 40
0.1270
 41
0.1270
 70
0
  0
VERTEX
  8
16
 10
15.1638
 20
13.8303
 30
0.0000
 42
1.0000
  0
VERTEX
  8
16
 10
15.1638
 20
13.9573
 30
0.0000
  0
SEQEND
  8
0
  0
POLYLINE
  8
16
 66
1
 10
0.0000
 20
0.0000
 30
0.0000
 40
0.1270
 41
0.1270
 70
0
  0
VERTEX
  8
16
 10
9.7303
 20
13.9573
 30
0.0000
 42
1.0000
  0
VERTEX
  8
16
 10
9.7303
 20
13.8303
 30
0.0000
  0
SEQEND
  8
0
  0
POLYLINE
  8
16
 66
1
 10
0.0000
 20
0.0000
 30
0.0000
 40
0.2540
 41
0.2540
 70
0
  0
VERTEX
  8
16
 10
0.4680
 20
-5.7197
 30
0.0000
  0
VERTEX
  8
16
 10
0.6303
 20
-5.8820
 30
0.0000
  0
SEQEND
  8
0
  0
POLYLINE
  8
16
 66
1
 10
0.0000
 20
0.0000
 30
0.0000
 40
0.1270
 41
0.1270
 70
0
  0
VERTEX
  8
16
 10
0.5854
 20
-5.9269
 30
0.0000
 42
1.0000
  0
VERTEX
  8
16
 10
0.6752
 20
-5.8371
 30
0.0000
  0
SEQEND
  8
0
  0
POLYLINE
  8
16
 66
1
 10
0.0000
 20
0.0000
 30
0.0000
 40
0.1270
 41
0.1270
 70
0
  0
VERTEX
  8
16
 10
0.5129
 20
-5.6748
 30
0.0000
 42
1.0000
  0
VERTEX
  8
16
 10
0.4231
 20
-5.7646
 30
0.0000
  0
SEQEND
  8
0
  0
POLYLINE
  8
16
 66
1
 10
0.0000
 20
0.0000
 30
0.0000
 40
0.2540
 41
0.2540
 70
0
  0
VERTEX
  8
16
 10
0.6303
 20
-5.8820
 30
0.0000
  0
VERTEX
  8
16
 10
3.1797
 20
-5.8820
 30
0.0000
  0
SEQEND
  8
0
  0
POLYLINE
  8
16
 66
1
 10
0.0000
 20
0.0000
 30
0.0000
 40
0.1270
 41
0.1270
 70
0
  0
VERTEX
  8
16
 10
3.1797
 20
-5.9455
 30
0.0000
 42
1.0000
  0
VERTEX
  8
16
 10
3.1797
 20
-5.8185
 30
0.0000
  0
SEQEND
  8
0
  0
POLYLINE
  8
16
 66
1
 10
0.0000
 20
0.0000
 30
0.0000
 40
0.1270
 41
0.1270
 70
0
  0
VERTEX
  8
16
 10
0.6303
 20
-5.8185
 30
0.0000
 42
1.0000
  0
VERTEX
  8
16
 10
0.6303
 20
-5.9455
 30
0.0000
  0
SEQEND
  8
0
  0
POLYLINE
  8
16
 66
1
 10
0.0000
 20
0.0000
 30
0.0000
 40
0.2540
 41
0.2540
 70
0
  0
VERTEX
  8
16
 10
3.1797
 20
-5.8820
 30
0.0000
  0
VERTEX
  8
16
 10
3.3420
 20
-5.7197
 30
0.0000
  0
SEQEND
  8
0
  0
POLYLINE
  8
16
 66
1
 10
0.0000
 20
0.0000
 30
0.0000
 40
0.1270
 41
0.1270
 70
0
  0
VERTEX
  8
16
 10
3.3869
 20
-5.7646
 30
0.0000
 42
1.0000
  0
VERTEX
  8
16
 10
3.2971
 20
-5.6748
 30
0.0000
  0
SEQEND
  8
0
  0
POLYLINE
  8
16
 66
1
 10
0.0000
 20
0.0000
 30
0.0000
 40
0.1270
 41
0.1270
 70
0
  0
VERTEX
  8
16
 10
3.1348
 20
-5.8371
 30
0.0000
 42
1.0000
  0
VERTEX
  8
16
 10
3.2246
 20
-5.9269
 30
0.0000
  0
SEQEND
  8
0
  0
POLYLINE
  8
16
 66
1
 10
0.0000
 20
0.0000
 30
0.0000
 40
0.2540
 41
0.2540
 70
0
  0
VERTEX
  8
16
 10
3.3420
 20
-5.7197
 30
0.0000
  0
VERTEX
  8
16
 10
3.3420
 20
6.9897
 30
0.0000
  0
SEQEND
  8
0
  0
POLYLINE
  8
16
 66
1
 10
0.0000
 20
0.0000
 30
0.0000
 40
0.1270
 41
0.1270
 70
0
  0
VERTEX
  8
16
 10
3.4055
 20
6.9897
 30
0.0000
 42
1.0000
  0
VERTEX
  8
16
 10
3.2785
 20
6.9897
 30
0.0000
  0
SEQEND
  8
0
  0
POLYLINE
  8
16
 66
1
 10
0.0000
 20
0.0000
 30
0.0000
 40
0.1270
 41
0.1270
 70
0
  0
VERTEX
  8
16
 10
3.2785
 20
-5.7197
 30
0.0000
 42
1.0000
  0
VERTEX
  8
16
 10
3.4055
 20
-5.7197
 30
0.0000
  0
SEQEND
  8
0
  0
POLYLINE
  8
16
 66
1
 10
0.0000
 20
0.0000
 30
0.0000
 40
0.2540
 41
0.2540
 70
0
  0
VERTEX
  8
16
 10
3.3420
 20
6.9897
 30
0.0000
  0
VERTEX
  8
16
 10
3.1797
 20
7.1520
 30
0.0000
  0
SEQEND
  8
0
  0
POLYLINE
  8
16
 66
1
 10
0.0000
 20
0.0000
 30
0.0000
 40
0.1270
 41
0.1270
 70
0
  0
VERTEX
  8
16
 10
3.2246
 20
7.1969
 30
0.0000
 42
1.0000
  0
VERTEX
  8
16
 10
3.1348
 20
7.1071
 30
0.0000
  0
SEQEND
  8
0
  0
POLYLINE
  8
16
 66
1
 10
0.0000
 20
0.0000
 30
0.0000
 40
0.1270
 41
0.1270
 70
0
  0
VERTEX
  8
16
 10
3.2971
 20
6.9448
 30
0.0000
 42
1.0000
  0
VERTEX
  8
16
 10
3.3869
 20
7.0346
 30
0.0000
  0
SEQEND
  8
0
  0
POLYLINE
  8
16
 66
1
 10
0.0000
 20
0.0000
 30
0.0000
 40
0.2540
 41
0.2540
 70
0
  0
VERTEX
  8
16
 10
3.1797
 20
7.1520
 30
0.0000
  0
VERTEX
  8
16
 10
0.6303
 20
7.1520
 30
0.0000
  0
SEQEND
  8
0
  0
POLYLINE
  8
16
 66
1
 10
0.0000
 20
0.0000
 30
0.0000
 40
0.1270
 41
0.1270
 70
0
  0
VERTEX
  8
16
 10
0.6303
 20
7.2155
 30
0.0000
 42
1.0000
  0
VERTEX
  8
16
 10
0.6303
 20
7.0885
 30
0.0000
  0
SEQEND
  8
0
  0
POLYLINE
  8
16
 66
1
 10
0.0000
 20
0.0000
 30
0.0000
 40
0.1270
 41
0.1270
 70
0
  0
VERTEX
  8
16
 10
3.1797
 20
7.0885
 30
0.0000
 42
1.0000
  0
VERTEX
  8
16
 10
3.1797
 20
7.2155
 30
0.0000
  0
SEQEND
  8
0
  0
POLYLINE
  8
16
 66
1
 10
0.0000
 20
0.0000
 30
0.0000
 40
0.2540
 41
0.2540
 70
0
  0
VERTEX
  8
16
 10
0.6303
 20
7.1520
 30
0.0000
  0
VERTEX
  8
16
 10
0.4680
 20
6.9897
 30
0.0000
  0
SEQEND
  8
0
  0
POLYLINE
  8
16
 66
1
 10
0.0000
 20
0.0000
 30
0.0000
 40
0.1270
 41
0.1270
 70
0
  0
VERTEX
  8
16
 10
0.4231
 20
7.0346
 30
0.0000
 42
1.0000
  0
VERTEX
  8
16
 10
0.5129
 20
6.9448
 30
0.0000
  0
SEQEND
  8
0
  0
POLYLINE
  8
16
 66
1
 10
0.0000
 20
0.0000
 30
0.0000
 40
0.1270
 41
0.1270
 70
0
  0
VERTEX
  8
16
 10
0.6752
 20
7.1071
 30
0.0000
 42
1.0000
  0
VERTEX
  8
16
 10
0.5854
 20
7.1969
 30
0.0000
  0
SEQEND
  8
0
  0
POLYLINE
  8
16
 66
1
 10
0.0000
 20
0.0000
 30
0.0000
 40
0.2540
 41
0.2540
 70
0
  0
VERTEX
  8
16
 10
0.4680
 20
6.9897
 30
0.0000
  0
VERTEX
  8
16
 10
0.4680
 20
-4.4497
 30
0.0000
  0
SEQEND
  8
0
  0
POLYLINE
  8
16
 66
1
 10
0.0000
 20
0.0000
 30
0.0000
 40
0.1270
 41
0.1270
 70
0
  0
VERTEX
  8
16
 10
0.4045
 20
-4.4497
 30
0.0000
 42
1.0000
  0
VERTEX
  8
16
 10
0.5315
 20
-4.4497
 30
0.0000
  0
SEQEND
  8
0
  0
POLYLINE
  8
16
 66
1
 10
0.0000
 20
0.0000
 30
0.0000
 40
0.1270
 41
0.1270
 70
0
  0
VERTEX
  8
16
 10
0.5315
 20
6.9897
 30
0.0000
 42
1.0000
  0
VERTEX
  8
16
 10
0.4045
 20
6.9897
 30
0.0000
  0
SEQEND
  8
0
  0
POLYLINE
  8
16
 66
1
 10
0.0000
 20
0.0000
 30
0.0000
 40
0.2540
 41
0.2540
 70
0
  0
VERTEX
  8
16
 10
0.4680
 20
-4.4497
 30
0.0000
  0
VERTEX
  8
16
 10
0.4680
 20
-5.7197
 30
0.0000
  0
SEQEND
  8
0
  0
POLYLINE
  8
16
 66
1
 10
0.0000
 20
0.0000
 30
0.0000
 40
0.1270
 41
0.1270
 70
0
  0
VERTEX
  8
16
 10
0.4045
 20
-5.7197
 30
0.0000
 42
1.0000
  0
VERTEX
  8
16
 10
0.5315
 20
-5.7197
 30
0.0000
  0
SEQEND
  8
0
  0
POLYLINE
  8
16
 66
1
 10
0.0000
 20
0.0000
 30
0.0000
 40
0.1270
 41
0.1270
 70
0
  0
VERTEX
  8
16
 10
0.5315
 20
-4.4497
 30
0.0000
 42
1.0000
  0
VERTEX
  8
16
 10
0.4045
 20
-4.4497
 30
0.0000
  0
SEQEND
  8
0
  0
POLYLINE
  8
16
 66
1
 10
0.0000
 20
0.0000
 30
0.0000
 40
0.2540
 41
0.2540
 70
0
  0
VERTEX
  8
16
 10
11.3730
 20
-4.8170
 30
0.0000
  0
VERTEX
  8
16
 10
11.3730
 20
-4.2430
 30
0.0000
  0
SEQEND
  8
0
  0
POLYLINE
  8
16
 66
1
 10
0.0000
 20
0.0000
 30
0.0000
 40
0.1270
 41
0.1270
 70
0
  0
VERTEX
  8
16
 10
11.4365
 20
-4.2430
 30
0.0000
 42
1.0000
  0
VERTEX
  8
16
 10
11.3095
 20
-4.2430
 30
0.0000
  0
SEQEND
  8
0
  0
POLYLINE
  8
16
 66
1
 10
0.0000
 20
0.0000
 30
0.0000
 40
0.1270
 41
0.1270
 70
0
  0
VERTEX
  8
16
 10
11.3095
 20
-4.8170
 30
0.0000
 42
1.0000
  0
VERTEX
  8
16
 10
11.4365
 20
-4.8170
 30
0.0000
  0
SEQEND
  8
0
  0
POLYLINE
  8
16
 66
1
 10
0.0000
 20
0.0000
 30
0.0000
 40
0.2540
 41
0.2540
 70
0
  0
VERTEX
  8
16
 10
11.3730
 20
-4.2430
 30
0.0000
  0
VERTEX
  8
16
 10
11.1533
 20
-3.7126
 30
0.0000
  0
SEQEND
  8
0
  0
POLYLINE
  8
16
 66
1
 10
0.0000
 20
0.0000
 30
0.0000
 40
0.1270
 41
0.1270
 70
0
  0
VERTEX
  8
16
 10
11.2120
 20
-3.6883
 30
0.0000
 42
1.0000
  0
VERTEX
  8
16
 10
11.0946
 20
-3.7369
 30
0.0000
  0
SEQEND
  8
0
  0
POLYLINE
  8
16
 66
1
 10
0.0000
 20
0.0000
 30
0.0000
 40
0.1270
 41
0.1270
 70
0
  0
VERTEX
  8
16
 10
11.3143
 20
-4.2673
 30
0.0000
 42
1.0000
  0
VERTEX
  8
16
 10
11.4317
 20
-4.2187
 30
0.0000
  0
SEQEND
  8
0
  0
POLYLINE
  8
16
 66
1
 10
0.0000
 20
0.0000
 30
0.0000
 40
0.2540
 41
0.2540
 70
0
  0
VERTEX
  8
16
 10
11.1533
 20
-3.7126
 30
0.0000
  0
VERTEX
  8
16
 10
10.7474
 20
-3.3067
 30
0.0000
  0
SEQEND
  8
0
  0
POLYLINE
  8
16
 66
1
 10
0.0000
 20
0.0000
 30
0.0000
 40
0.1270
 41
0.1270
 70
0
  0
VERTEX
  8
16
 10
10.7923
 20
-3.2618
 30
0.0000
 42
1.0000
  0
VERTEX
  8
16
 10
10.7025
 20
-3.3516
 30
0.0000
  0
SEQEND
  8
0
  0
POLYLINE
  8
16
 66
1
 10
0.0000
 20
0.0000
 30
0.0000
 40
0.1270
 41
0.1270
 70
0
  0
VERTEX
  8
16
 10
11.1084
 20
-3.7575
 30
0.0000
 42
1.0000
  0
VERTEX
  8
16
 10
11.1982
 20
-3.6677
 30
0.0000
  0
SEQEND
  8
0
  0
POLYLINE
  8
16
 66
1
 10
0.0000
 20
0.0000
 30
0.0000
 40
0.2540
 41
0.2540
 70
0
  0
VERTEX
  8
16
 10
10.7474
 20
-3.3067
 30
0.0000
  0
VERTEX
  8
16
 10
10.2170
 20
-3.0870
 30
0.0000
  0
SEQEND
  8
0
  0
POLYLINE
  8
16
 66
1
 10
0.0000
 20
0.0000
 30
0.0000
 40
0.1270
 41
0.1270
 70
0
  0
VERTEX
  8
16
 10
10.2413
 20
-3.0283
 30
0.0000
 42
1.0000
  0
VERTEX
  8
16
 10
10.1927
 20
-3.1457
 30
0.0000
  0
SEQEND
  8
0
  0
POLYLINE
  8
16
 66
1
 10
0.0000
 20
0.0000
 30
0.0000
 40
0.1270
 41
0.1270
 70
0
  0
VERTEX
  8
16
 10
10.7231
 20
-3.3654
 30
0.0000
 42
1.0000
  0
VERTEX
  8
16
 10
10.7717
 20
-3.2480
 30
0.0000
  0
SEQEND
  8
0
  0
POLYLINE
  8
16
 66
1
 10
0.0000
 20
0.0000
 30
0.0000
 40
0.2540
 41
0.2540
 70
0
  0
VERTEX
  8
16
 10
10.2170
 20
-3.0870
 30
0.0000
  0
VERTEX
  8
16
 10
9.6430
 20
-3.0870
 30
0.0000
  0
SEQEND
  8
0
  0
POLYLINE
  8
16
 66
1
 10
0.0000
 20
0.0000
 30
0.0000
 40
0.1270
 41
0.1270
 70
0
  0
VERTEX
  8
16
 10
9.6430
 20
-3.0235
 30
0.0000
 42
1.0000
  0
VERTEX
  8
16
 10
9.6430
 20
-3.1505
 30
0.0000
  0
SEQEND
  8
0
  0
POLYLINE
  8
16
 66
1
 10
0.0000
 20
0.0000
 30
0.0000
 40
0.1270
 41
0.1270
 70
0
  0
VERTEX
  8
16
 10
10.2170
 20
-3.1505
 30
0.0000
 42
1.0000
  0
VERTEX
  8
16
 10
10.2170
 20
-3.0235
 30
0.0000
  0
SEQEND
  8
0
  0
POLYLINE
  8
16
 66
1
 10
0.0000
 20
0.0000
 30
0.0000
 40
0.2540
 41
0.2540
 70
0
  0
VERTEX
  8
16
 10
9.6430
 20
-3.0870
 30
0.0000
  0
VERTEX
  8
16
 10
9.1126
 20
-3.3067
 30
0.0000
  0
SEQEND
  8
0
  0
POLYLINE
  8
16
 66
1
 10
0.0000
 20
0.0000
 30
0.0000
 40
0.1270
 41
0.1270
 70
0
  0
VERTEX
  8
16
 10
9.0883
 20
-3.2480
 30
0.0000
 42
1.0000
  0
VERTEX
  8
16
 10
9.1369
 20
-3.3654
 30
0.0000
  0
SEQEND
  8
0
  0
POLYLINE
  8
16
 66
1
 10
0.0000
 20
0.0000
 30
0.0000
 40
0.1270
 41
0.1270
 70
0
  0
VERTEX
  8
16
 10
9.6673
 20
-3.1457
 30
0.0000
 42
1.0000
  0
VERTEX
  8
16
 10
9.6187
 20
-3.0283
 30
0.0000
  0
SEQEND
  8
0
  0
POLYLINE
  8
16
 66
1
 10
0.0000
 20
0.0000
 30
0.0000
 40
0.2540
 41
0.2540
 70
0
  0
VERTEX
  8
16
 10
9.1126
 20
-3.3067
 30
0.0000
  0
VERTEX
  8
16
 10
8.7067
 20
-3.7126
 30
0.0000
  0
SEQEND
  8
0
  0
POLYLINE
  8
16
 66
1
 10
0.0000
 20
0.0000
 30
0.0000
 40
0.1270
 41
0.1270
 70
0
  0
VERTEX
  8
16
 10
8.6618
 20
-3.6677
 30
0.0000
 42
1.0000
  0
VERTEX
  8
16
 10
8.7516
 20
-3.7575
 30
0.0000
  0
SEQEND
  8
0
  0
POLYLINE
  8
16
 66
1
 10
0.0000
 20
0.0000
 30
0.0000
 40
0.1270
 41
0.1270
 70
0
  0
VERTEX
  8
16
 10
9.1575
 20
-3.3516
 30
0.0000
 42
1.0000
  0
VERTEX
  8
16
 10
9.0677
 20
-3.2618
 30
0.0000
  0
SEQEND
  8
0
  0
POLYLINE
  8
16
 66
1
 10
0.0000
 20
0.0000
 30
0.0000
 40
0.2540
 41
0.2540
 70
0
  0
VERTEX
  8
16
 10
8.7067
 20
-3.7126
 30
0.0000
  0
VERTEX
  8
16
 10
8.4870
 20
-4.2430
 30
0.0000
  0
SEQEND
  8
0
  0
POLYLINE
  8
16
 66
1
 10
0.0000
 20
0.0000
 30
0.0000
 40
0.1270
 41
0.1270
 70
0
  0
VERTEX
  8
16
 10
8.4283
 20
-4.2187
 30
0.0000
 42
1.0000
  0
VERTEX
  8
16
 10
8.5457
 20
-4.2673
 30
0.0000
  0
SEQEND
  8
0
  0
POLYLINE
  8
16
 66
1
 10
0.0000
 20
0.0000
 30
0.0000
 40
0.1270
 41
0.1270
 70
0
  0
VERTEX
  8
16
 10
8.7654
 20
-3.7369
 30
0.0000
 42
1.0000
  0
VERTEX
  8
16
 10
8.6480
 20
-3.6883
 30
0.0000
  0
SEQEND
  8
0
  0
POLYLINE
  8
16
 66
1
 10
0.0000
 20
0.0000
 30
0.0000
 40
0.2540
 41
0.2540
 70
0
  0
VERTEX
  8
16
 10
8.4870
 20
-4.2430
 30
0.0000
  0
VERTEX
  8
16
 10
8.4870
 20
-4.8170
 30
0.0000
  0
SEQEND
  8
0
  0
POLYLINE
  8
16
 66
1
 10
0.0000
 20
0.0000
 30
0.0000
 40
0.1270
 41
0.1270
 70
0
  0
VERTEX
  8
16
 10
8.4235
 20
-4.8170
 30
0.0000
 42
1.0000
  0
VERTEX
  8
16
 10
8.5505
 20
-4.8170
 30
0.0000
  0
SEQEND
  8
0
  0
POLYLINE
  8
16
 66
1
 10
0.0000
 20
0.0000
 30
0.0000
 40
0.1270
 41
0.1270
 70
0
  0
VERTEX
  8
16
 10
8.5505
 20
-4.2430
 30
0.0000
 42
1.0000
  0
VERTEX
  8
16
 10
8.4235
 20
-4.2430
 30
0.0000
  0
SEQEND
  8
0
  0
POLYLINE
  8
16
 66
1
 10
0.0000
 20
0.0000
 30
0.0000
 40
0.2540
 41
0.2540
 70
0
  0
VERTEX
  8
16
 10
8.4870
 20
-4.8170
 30
0.0000
  0
VERTEX
  8
16
 10
8.7067
 20
-5.3474
 30
0.0000
  0
SEQEND
  8
0
  0
POLYLINE
  8
16
 66
1
 10
0.0000
 20
0.0000
 30
0.0000
 40
0.1270
 41
0.1270
 70
0
  0
VERTEX
  8
16
 10
8.6480
 20
-5.3717
 30
0.0000
 42
1.0000
  0
VERTEX
  8
16
 10
8.7654
 20
-5.3231
 30
0.0000
  0
SEQEND
  8
0
  0
POLYLINE
  8
16
 66
1
 10
0.0000
 20
0.0000
 30
0.0000
 40
0.1270
 41
0.1270
 70
0
  0
VERTEX
  8
16
 10
8.5457
 20
-4.7927
 30
0.0000
 42
1.0000
  0
VERTEX
  8
16
 10
8.4283
 20
-4.8413
 30
0.0000
  0
SEQEND
  8
0
  0
POLYLINE
  8
16
 66
1
 10
0.0000
 20
0.0000
 30
0.0000
 40
0.2540
 41
0.2540
 70
0
  0
VERTEX
  8
16
 10
8.7067
 20
-5.3474
 30
0.0000
  0
VERTEX
  8
16
 10
9.1126
 20
-5.7533
 30
0.0000
  0
SEQEND
  8
0
  0
POLYLINE
  8
16
 66
1
 10
0.0000
 20
0.0000
 30
0.0000
 40
0.1270
 41
0.1270
 70
0
  0
VERTEX
  8
16
 10
9.0677
 20
-5.7982
 30
0.0000
 42
1.0000
  0
VERTEX
  8
16
 10
9.1575
 20
-5.7084
 30
0.0000
  0
SEQEND
  8
0
  0
POLYLINE
  8
16
 66
1
 10
0.0000
 20
0.0000
 30
0.0000
 40
0.1270
 41
0.1270
 70
0
  0
VERTEX
  8
16
 10
8.7516
 20
-5.3025
 30
0.0000
 42
1.0000
  0
VERTEX
  8
16
 10
8.6618
 20
-5.3923
 30
0.0000
  0
SEQEND
  8
0
  0
POLYLINE
  8
16
 66
1
 10
0.0000
 20
0.0000
 30
0.0000
 40
0.2540
 41
0.2540
 70
0
  0
VERTEX
  8
16
 10
9.1126
 20
-5.7533
 30
0.0000
  0
VERTEX
  8
16
 10
9.6430
 20
-5.9730
 30
0.0000
  0
SEQEND
  8
0
  0
POLYLINE
  8
16
 66
1
 10
0.0000
 20
0.0000
 30
0.0000
 40
0.1270
 41
0.1270
 70
0
  0
VERTEX
  8
16
 10
9.6187
 20
-6.0317
 30
0.0000
 42
1.0000
  0
VERTEX
  8
16
 10
9.6673
 20
-5.9143
 30
0.0000
  0
SEQEND
  8
0
  0
POLYLINE
  8
16
 66
1
 10
0.0000
 20
0.0000
 30
0.0000
 40
0.1270
 41
0.1270
 70
0
  0
VERTEX
  8
16
 10
9.1369
 20
-5.6946
 30
0.0000
 42
1.0000
  0
VERTEX
  8
16
 10
9.0883
 20
-5.8120
 30
0.0000
  0
SEQEND
  8
0
  0
POLYLINE
  8
16
 66
1
 10
0.0000
 20
0.0000
 30
0.0000
 40
0.2540
 41
0.2540
 70
0
  0
VERTEX
  8
16
 10
9.6430
 20
-5.9730
 30
0.0000
  0
VERTEX
  8
16
 10
10.2170
 20
-5.9730
 30
0.0000
  0
SEQEND
  8
0
  0
POLYLINE
  8
16
 66
1
 10
0.0000
 20
0.0000
 30
0.0000
 40
0.1270
 41
0.1270
 70
0
  0
VERTEX
  8
16
 10
10.2170
 20
-6.0365
 30
0.0000
 42
1.0000
  0
VERTEX
  8
16
 10
10.2170
 20
-5.9095
 30
0.0000
  0
SEQEND
  8
0
  0
POLYLINE
  8
16
 66
1
 10
0.0000
 20
0.0000
 30
0.0000
 40
0.1270
 41
0.1270
 70
0
  0
VERTEX
  8
16
 10
9.6430
 20
-5.9095
 30
0.0000
 42
1.0000
  0
VERTEX
  8
16
 10
9.6430
 20
-6.0365
 30
0.0000
  0
SEQEND
  8
0
  0
POLYLINE
  8
16
 66
1
 10
0.0000
 20
0.0000
 30
0.0000
 40
0.2540
 41
0.2540
 70
0
  0
VERTEX
  8
16
 10
10.2170
 20
-5.9730
 30
0.0000
  0
VERTEX
  8
16
 10
10.7474
 20
-5.7533
 30
0.0000
  0
SEQEND
  8
0
  0
POLYLINE
  8
16
 66
1
 10
0.0000
 20
0.0000
 30
0.0000
 40
0.1270
 41
0.1270
 70
0
  0
VERTEX
  8
16
 10
10.7717
 20
-5.8120
 30
0.0000
 42
1.0000
  0
VERTEX
  8
16
 10
10.7231
 20
-5.6946
 30
0.0000
  0
SEQEND
  8
0
  0
POLYLINE
  8
16
 66
1
 10
0.0000
 20
0.0000
 30
0.0000
 40
0.1270
 41
0.1270
 70
0
  0
VERTEX
  8
16
 10
10.1927
 20
-5.9143
 30
0.0000
 42
1.0000
  0
VERTEX
  8
16
 10
10.2413
 20
-6.0317
 30
0.0000
  0
SEQEND
  8
0
  0
POLYLINE
  8
16
 66
1
 10
0.0000
 20
0.0000
 30
0.0000
 40
0.2540
 41
0.2540
 70
0
  0
VERTEX
  8
16
 10
10.7474
 20
-5.7533
 30
0.0000
  0
VERTEX
  8
16
 10
11.1533
 20
-5.3474
 30
0.0000
  0
SEQEND
  8
0
  0
POLYLINE
  8
16
 66
1
 10
0.0000
 20
0.0000
 30
0.0000
 40
0.1270
 41
0.1270
 70
0
  0
VERTEX
  8
16
 10
11.1982
 20
-5.3923
 30
0.0000
 42
1.0000
  0
VERTEX
  8
16
 10
11.1084
 20
-5.3025
 30
0.0000
  0
SEQEND
  8
0
  0
POLYLINE
  8
16
 66
1
 10
0.0000
 20
0.0000
 30
0.0000
 40
0.1270
 41
0.1270
 70
0
  0
VERTEX
  8
16
 10
10.7025
 20
-5.7084
 30
0.0000
 42
1.0000
  0
VERTEX
  8
16
 10
10.7923
 20
-5.7982
 30
0.0000
  0
SEQEND
  8
0
  0
POLYLINE
  8
16
 66
1
 10
0.0000
 20
0.0000
 30
0.0000
 40
0.2540
 41
0.2540
 70
0
  0
VERTEX
  8
16
 10
11.1533
 20
-5.3474
 30
0.0000
  0
VERTEX
  8
16
 10
11.3730
 20
-4.8170
 30
0.0000
  0
SEQEND
  8
0
  0
POLYLINE
  8
16
 66
1
 10
0.0000
 20
0.0000
 30
0.0000
 40
0.1270
 41
0.1270
 70
0
  0
VERTEX
  8
16
 10
11.4317
 20
-4.8413
 30
0.0000
 42
1.0000
  0
VERTEX
  8
16
 10
11.3143
 20
-4.7927
 30
0.0000
  0
SEQEND
  8
0
  0
POLYLINE
  8
16
 66
1
 10
0.0000
 20
0.0000
 30
0.0000
 40
0.1270
 41
0.1270
 70
0
  0
VERTEX
  8
16
 10
11.0946
 20
-5.3231
 30
0.0000
 42
1.0000
  0
VERTEX
  8
16
 10
11.2120
 20
-5.3717
 30
0.0000
  0
SEQEND
  8
0
  0
POLYLINE
  8
16
 66
1
 10
0.0000
 20
0.0000
 30
0.0000
 40
0.2540
 41
0.2540
 70
0
  0
VERTEX
  8
16
 10
11.3730
 20
6.7830
 30
0.0000
  0
VERTEX
  8
16
 10
11.3730
 20
7.3570
 30
0.0000
  0
SEQEND
  8
0
  0
POLYLINE
  8
16
 66
1
 10
0.0000
 20
0.0000
 30
0.0000
 40
0.1270
 41
0.1270
 70
0
  0
VERTEX
  8
16
 10
11.4365
 20
7.3570
 30
0.0000
 42
1.0000
  0
VERTEX
  8
16
 10
11.3095
 20
7.3570
 30
0.0000
  0
SEQEND
  8
0
  0
POLYLINE
  8
16
 66
1
 10
0.0000
 20
0.0000
 30
0.0000
 40
0.1270
 41
0.1270
 70
0
  0
VERTEX
  8
16
 10
11.3095
 20
6.7830
 30
0.0000
 42
1.0000
  0
VERTEX
  8
16
 10
11.4365
 20
6.7830
 30
0.0000
  0
SEQEND
  8
0
  0
POLYLINE
  8
16
 66
1
 10
0.0000
 20
0.0000
 30
0.0000
 40
0.2540
 41
0.2540
 70
0
  0
VERTEX
  8
16
 10
11.3730
 20
7.3570
 30
0.0000
  0
VERTEX
  8
16
 10
11.1533
 20
7.8874
 30
0.0000
  0
SEQEND
  8
0
  0
POLYLINE
  8
16
 66
1
 10
0.0000
 20
0.0000
 30
0.0000
 40
0.1270
 41
0.1270
 70
0
  0
VERTEX
  8
16
 10
11.2120
 20
7.9117
 30
0.0000
 42
1.0000
  0
VERTEX
  8
16
 10
11.0946
 20
7.8631
 30
0.0000
  0
SEQEND
  8
0
  0
POLYLINE
  8
16
 66
1
 10
0.0000
 20
0.0000
 30
0.0000
 40
0.1270
 41
0.1270
 70
0
  0
VERTEX
  8
16
 10
11.3143
 20
7.3327
 30
0.0000
 42
1.0000
  0
VERTEX
  8
16
 10
11.4317
 20
7.3813
 30
0.0000
  0
SEQEND
  8
0
  0
POLYLINE
  8
16
 66
1
 10
0.0000
 20
0.0000
 30
0.0000
 40
0.2540
 41
0.2540
 70
0
  0
VERTEX
  8
16
 10
11.1533
 20
7.8874
 30
0.0000
  0
VERTEX
  8
16
 10
10.7474
 20
8.2933
 30
0.0000
  0
SEQEND
  8
0
  0
POLYLINE
  8
16
 66
1
 10
0.0000
 20
0.0000
 30
0.0000
 40
0.1270
 41
0.1270
 70
0
  0
VERTEX
  8
16
 10
10.7923
 20
8.3382
 30
0.0000
 42
1.0000
  0
VERTEX
  8
16
 10
10.7025
 20
8.2484
 30
0.0000
  0
SEQEND
  8
0
  0
POLYLINE
  8
16
 66
1
 10
0.0000
 20
0.0000
 30
0.0000
 40
0.1270
 41
0.1270
 70
0
  0
VERTEX
  8
16
 10
11.1084
 20
7.8425
 30
0.0000
 42
1.0000
  0
VERTEX
  8
16
 10
11.1982
 20
7.9323
 30
0.0000
  0
SEQEND
  8
0
  0
POLYLINE
  8
16
 66
1
 10
0.0000
 20
0.0000
 30
0.0000
 40
0.2540
 41
0.2540
 70
0
  0
VERTEX
  8
16
 10
10.7474
 20
8.2933
 30
0.0000
  0
VERTEX
  8
16
 10
10.2170
 20
8.5130
 30
0.0000
  0
SEQEND
  8
0
  0
POLYLINE
  8
16
 66
1
 10
0.0000
 20
0.0000
 30
0.0000
 40
0.1270
 41
0.1270
 70
0
  0
VERTEX
  8
16
 10
10.2413
 20
8.5717
 30
0.0000
 42
1.0000
  0
VERTEX
  8
16
 10
10.1927
 20
8.4543
 30
0.0000
  0
SEQEND
  8
0
  0
POLYLINE
  8
16
 66
1
 10
0.0000
 20
0.0000
 30
0.0000
 40
0.1270
 41
0.1270
 70
0
  0
VERTEX
  8
16
 10
10.7231
 20
8.2346
 30
0.0000
 42
1.0000
  0
VERTEX
  8
16
 10
10.7717
 20
8.3520
 30
0.0000
  0
SEQEND
  8
0
  0
POLYLINE
  8
16
 66
1
 10
0.0000
 20
0.0000
 30
0.0000
 40
0.2540
 41
0.2540
 70
0
  0
VERTEX
  8
16
 10
10.2170
 20
8.5130
 30
0.0000
  0
VERTEX
  8
16
 10
9.6430
 20
8.5130
 30
0.0000
  0
SEQEND
  8
0
  0
POLYLINE
  8
16
 66
1
 10
0.0000
 20
0.0000
 30
0.0000
 40
0.1270
 41
0.1270
 70
0
  0
VERTEX
  8
16
 10
9.6430
 20
8.5765
 30
0.0000
 42
1.0000
  0
VERTEX
  8
16
 10
9.6430
 20
8.4495
 30
0.0000
  0
SEQEND
  8
0
  0
POLYLINE
  8
16
 66
1
 10
0.0000
 20
0.0000
 30
0.0000
 40
0.1270
 41
0.1270
 70
0
  0
VERTEX
  8
16
 10
10.2170
 20
8.4495
 30
0.0000
 42
1.0000
  0
VERTEX
  8
16
 10
10.2170
 20
8.5765
 30
0.0000
  0
SEQEND
  8
0
  0
POLYLINE
  8
16
 66
1
 10
0.0000
 20
0.0000
 30
0.0000
 40
0.2540
 41
0.2540
 70
0
  0
VERTEX
  8
16
 10
9.6430
 20
8.5130
 30
0.0000
  0
VERTEX
  8
16
 10
9.1126
 20
8.2933
 30
0.0000
  0
SEQEND
  8
0
  0
POLYLINE
  8
16
 66
1
 10
0.0000
 20
0.0000
 30
0.0000
 40
0.1270
 41
0.1270
 70
0
  0
VERTEX
  8
16
 10
9.0883
 20
8.3520
 30
0.0000
 42
1.0000
  0
VERTEX
  8
16
 10
9.1369
 20
8.2346
 30
0.0000
  0
SEQEND
  8
0
  0
POLYLINE
  8
16
 66
1
 10
0.0000
 20
0.0000
 30
0.0000
 40
0.1270
 41
0.1270
 70
0
  0
VERTEX
  8
16
 10
9.6673
 20
8.4543
 30
0.0000
 42
1.0000
  0
VERTEX
  8
16
 10
9.6187
 20
8.5717
 30
0.0000
  0
SEQEND
  8
0
  0
POLYLINE
  8
16
 66
1
 10
0.0000
 20
0.0000
 30
0.0000
 40
0.2540
 41
0.2540
 70
0
  0
VERTEX
  8
16
 10
9.1126
 20
8.2933
 30
0.0000
  0
VERTEX
  8
16
 10
8.7067
 20
7.8874
 30
0.0000
  0
SEQEND
  8
0
  0
POLYLINE
  8
16
 66
1
 10
0.0000
 20
0.0000
 30
0.0000
 40
0.1270
 41
0.1270
 70
0
  0
VERTEX
  8
16
 10
8.6618
 20
7.9323
 30
0.0000
 42
1.0000
  0
VERTEX
  8
16
 10
8.7516
 20
7.8425
 30
0.0000
  0
SEQEND
  8
0
  0
POLYLINE
  8
16
 66
1
 10
0.0000
 20
0.0000
 30
0.0000
 40
0.1270
 41
0.1270
 70
0
  0
VERTEX
  8
16
 10
9.1575
 20
8.2484
 30
0.0000
 42
1.0000
  0
VERTEX
  8
16
 10
9.0677
 20
8.3382
 30
0.0000
  0
SEQEND
  8
0
  0
POLYLINE
  8
16
 66
1
 10
0.0000
 20
0.0000
 30
0.0000
 40
0.2540
 41
0.2540
 70
0
  0
VERTEX
  8
16
 10
8.7067
 20
7.8874
 30
0.0000
  0
VERTEX
  8
16
 10
8.4870
 20
7.3570
 30
0.0000
  0
SEQEND
  8
0
  0
POLYLINE
  8
16
 66
1
 10
0.0000
 20
0.0000
 30
0.0000
 40
0.1270
 41
0.1270
 70
0
  0
VERTEX
  8
16
 10
8.4283
 20
7.3813
 30
0.0000
 42
1.0000
  0
VERTEX
  8
16
 10
8.5457
 20
7.3327
 30
0.0000
  0
SEQEND
  8
0
  0
POLYLINE
  8
16
 66
1
 10
0.0000
 20
0.0000
 30
0.0000
 40
0.1270
 41
0.1270
 70
0
  0
VERTEX
  8
16
 10
8.7654
 20
7.8631
 30
0.0000
 42
1.0000
  0
VERTEX
  8
16
 10
8.6480
 20
7.9117
 30
0.0000
  0
SEQEND
  8
0
  0
POLYLINE
  8
16
 66
1
 10
0.0000
 20
0.0000
 30
0.0000
 40
0.2540
 41
0.2540
 70
0
  0
VERTEX
  8
16
 10
8.4870
 20
7.3570
 30
0.0000
  0
VERTEX
  8
16
 10
8.4870
 20
6.7830
 30
0.0000
  0
SEQEND
  8
0
  0
POLYLINE
  8
16
 66
1
 10
0.0000
 20
0.0000
 30
0.0000
 40
0.1270
 41
0.1270
 70
0
  0
VERTEX
  8
16
 10
8.4235
 20
6.7830
 30
0.0000
 42
1.0000
  0
VERTEX
  8
16
 10
8.5505
 20
6.7830
 30
0.0000
  0
SEQEND
  8
0
  0
POLYLINE
  8
16
 66
1
 10
0.0000
 20
0.0000
 30
0.0000
 40
0.1270
 41
0.1270
 70
0
  0
VERTEX
  8
16
 10
8.5505
 20
7.3570
 30
0.0000
 42
1.0000
  0
VERTEX
  8
16
 10
8.4235
 20
7.3570
 30
0.0000
  0
SEQEND
  8
0
  0
POLYLINE
  8
16
 66
1
 10
0.0000
 20
0.0000
 30
0.0000
 40
0.2540
 41
0.2540
 70
0
  0
VERTEX
  8
16
 10
8.4870
 20
6.7830
 30
0.0000
  0
VERTEX
  8
16
 10
8.7067
 20
6.2526
 30
0.0000
  0
SEQEND
  8
0
  0
POLYLINE
  8
16
 66
1
 10
0.0000
 20
0.0000
 30
0.0000
 40
0.1270
 41
0.1270
 70
0
  0
VERTEX
  8
16
 10
8.6480
 20
6.2283
 30
0.0000
 42
1.0000
  0
VERTEX
  8
16
 10
8.7654
 20
6.2769
 30
0.0000
  0
SEQEND
  8
0
  0
POLYLINE
  8
16
 66
1
 10
0.0000
 20
0.0000
 30
0.0000
 40
0.1270
 41
0.1270
 70
0
  0
VERTEX
  8
16
 10
8.5457
 20
6.8073
 30
0.0000
 42
1.0000
  0
VERTEX
  8
16
 10
8.4283
 20
6.7587
 30
0.0000
  0
SEQEND
  8
0
  0
POLYLINE
  8
16
 66
1
 10
0.0000
 20
0.0000
 30
0.0000
 40
0.2540
 41
0.2540
 70
0
  0
VERTEX
  8
16
 10
8.7067
 20
6.2526
 30
0.0000
  0
VERTEX
  8
16
 10
9.1126
 20
5.8467
 30
0.0000
  0
SEQEND
  8
0
  0
POLYLINE
  8
16
 66
1
 10
0.0000
 20
0.0000
 30
0.0000
 40
0.1270
 41
0.1270
 70
0
  0
VERTEX
  8
16
 10
9.0677
 20
5.8018
 30
0.0000
 42
1.0000
  0
VERTEX
  8
16
 10
9.1575
 20
5.8916
 30
0.0000
  0
SEQEND
  8
0
  0
POLYLINE
  8
16
 66
1
 10
0.0000
 20
0.0000
 30
0.0000
 40
0.1270
 41
0.1270
 70
0
  0
VERTEX
  8
16
 10
8.7516
 20
6.2975
 30
0.0000
 42
1.0000
  0
VERTEX
  8
16
 10
8.6618
 20
6.2077
 30
0.0000
  0
SEQEND
  8
0
  0
POLYLINE
  8
16
 66
1
 10
0.0000
 20
0.0000
 30
0.0000
 40
0.2540
 41
0.2540
 70
0
  0
VERTEX
  8
16
 10
9.1126
 20
5.8467
 30
0.0000
  0
VERTEX
  8
16
 10
9.6430
 20
5.6270
 30
0.0000
  0
SEQEND
  8
0
  0
POLYLINE
  8
16
 66
1
 10
0.0000
 20
0.0000
 30
0.0000
 40
0.1270
 41
0.1270
 70
0
  0
VERTEX
  8
16
 10
9.6187
 20
5.5683
 30
0.0000
 42
1.0000
  0
VERTEX
  8
16
 10
9.6673
 20
5.6857
 30
0.0000
  0
SEQEND
  8
0
  0
POLYLINE
  8
16
 66
1
 10
0.0000
 20
0.0000
 30
0.0000
 40
0.1270
 41
0.1270
 70
0
  0
VERTEX
  8
16
 10
9.1369
 20
5.9054
 30
0.0000
 42
1.0000
  0
VERTEX
  8
16
 10
9.0883
 20
5.7880
 30
0.0000
  0
SEQEND
  8
0
  0
POLYLINE
  8
16
 66
1
 10
0.0000
 20
0.0000
 30
0.0000
 40
0.2540
 41
0.2540
 70
0
  0
VERTEX
  8
16
 10
9.6430
 20
5.6270
 30
0.0000
  0
VERTEX
  8
16
 10
10.2170
 20
5.6270
 30
0.0000
  0
SEQEND
  8
0
  0
POLYLINE
  8
16
 66
1
 10
0.0000
 20
0.0000
 30
0.0000
 40
0.1270
 41
0.1270
 70
0
  0
VERTEX
  8
16
 10
10.2170
 20
5.5635
 30
0.0000
 42
1.0000
  0
VERTEX
  8
16
 10
10.2170
 20
5.6905
 30
0.0000
  0
SEQEND
  8
0
  0
POLYLINE
  8
16
 66
1
 10
0.0000
 20
0.0000
 30
0.0000
 40
0.1270
 41
0.1270
 70
0
  0
VERTEX
  8
16
 10
9.6430
 20
5.6905
 30
0.0000
 42
1.0000
  0
VERTEX
  8
16
 10
9.6430
 20
5.5635
 30
0.0000
  0
SEQEND
  8
0
  0
POLYLINE
  8
16
 66
1
 10
0.0000
 20
0.0000
 30
0.0000
 40
0.2540
 41
0.2540
 70
0
  0
VERTEX
  8
16
 10
10.2170
 20
5.6270
 30
0.0000
  0
VERTEX
  8
16
 10
10.7474
 20
5.8467
 30
0.0000
  0
SEQEND
  8
0
  0
POLYLINE
  8
16
 66
1
 10
0.0000
 20
0.0000
 30
0.0000
 40
0.1270
 41
0.1270
 70
0
  0
VERTEX
  8
16
 10
10.7717
 20
5.7880
 30
0.0000
 42
1.0000
  0
VERTEX
  8
16
 10
10.7231
 20
5.9054
 30
0.0000
  0
SEQEND
  8
0
  0
POLYLINE
  8
16
 66
1
 10
0.0000
 20
0.0000
 30
0.0000
 40
0.1270
 41
0.1270
 70
0
  0
VERTEX
  8
16
 10
10.1927
 20
5.6857
 30
0.0000
 42
1.0000
  0
VERTEX
  8
16
 10
10.2413
 20
5.5683
 30
0.0000
  0
SEQEND
  8
0
  0
POLYLINE
  8
16
 66
1
 10
0.0000
 20
0.0000
 30
0.0000
 40
0.2540
 41
0.2540
 70
0
  0
VERTEX
  8
16
 10
10.7474
 20
5.8467
 30
0.0000
  0
VERTEX
  8
16
 10
11.1533
 20
6.2526
 30
0.0000
  0
SEQEND
  8
0
  0
POLYLINE
  8
16
 66
1
 10
0.0000
 20
0.0000
 30
0.0000
 40
0.1270
 41
0.1270
 70
0
  0
VERTEX
  8
16
 10
11.1982
 20
6.2077
 30
0.0000
 42
1.0000
  0
VERTEX
  8
16
 10
11.1084
 20
6.2975
 30
0.0000
  0
SEQEND
  8
0
  0
POLYLINE
  8
16
 66
1
 10
0.0000
 20
0.0000
 30
0.0000
 40
0.1270
 41
0.1270
 70
0
  0
VERTEX
  8
16
 10
10.7025
 20
5.8916
 30
0.0000
 42
1.0000
  0
VERTEX
  8
16
 10
10.7923
 20
5.8018
 30
0.0000
  0
SEQEND
  8
0
  0
POLYLINE
  8
16
 66
1
 10
0.0000
 20
0.0000
 30
0.0000
 40
0.2540
 41
0.2540
 70
0
  0
VERTEX
  8
16
 10
11.1533
 20
6.2526
 30
0.0000
  0
VERTEX
  8
16
 10
11.3730
 20
6.7830
 30
0.0000
  0
SEQEND
  8
0
  0
POLYLINE
  8
16
 66
1
 10
0.0000
 20
0.0000
 30
0.0000
 40
0.1270
 41
0.1270
 70
0
  0
VERTEX
  8
16
 10
11.4317
 20
6.7587
 30
0.0000
 42
1.0000
  0
VERTEX
  8
16
 10
11.3143
 20
6.8073
 30
0.0000
  0
SEQEND
  8
0
  0
POLYLINE
  8
16
 66
1
 10
0.0000
 20
0.0000
 30
0.0000
 40
0.1270
 41
0.1270
 70
0
  0
VERTEX
  8
16
 10
11.0946
 20
6.2769
 30
0.0000
 42
1.0000
  0
VERTEX
  8
16
 10
11.2120
 20
6.2283
 30
0.0000
  0
SEQEND
  8
0
  0
POLYLINE
  8
16
 66
1
 10
0.0000
 20
0.0000
 30
0.0000
 40
0.2540
 41
0.2540
 70
0
  0
VERTEX
  8
16
 10
-1.1938
 20
-11.1760
 30
0.0000
  0
VERTEX
  8
16
 10
4.6020
 20
-11.1760
 30
0.0000
  0
SEQEND
  8
0
  0
POLYLINE
  8
16
 66
1
 10
0.0000
 20
0.0000
 30
0.0000
 40
0.1270
 41
0.1270
 70
0
  0
VERTEX
  8
16
 10
4.6020
 20
-11.2395
 30
0.0000
 42
1.0000
  0
VERTEX
  8
16
 10
4.6020
 20
-11.1125
 30
0.0000
  0
SEQEND
  8
0
  0
POLYLINE
  8
16
 66
1
 10
0.0000
 20
0.0000
 30
0.0000
 40
0.1270
 41
0.1270
 70
0
  0
VERTEX
  8
16
 10
-1.1938
 20
-11.1125
 30
0.0000
 42
1.0000
  0
VERTEX
  8
16
 10
-1.1938
 20
-11.2395
 30
0.0000
  0
SEQEND
  8
0
  0
POLYLINE
  8
16
 66
1
 10
0.0000
 20
0.0000
 30
0.0000
 40
0.2540
 41
0.2540
 70
0
  0
VERTEX
  8
16
 10
9.7780
 20
-11.1760
 30
0.0000
  0
VERTEX
  8
16
 10
15.1638
 20
-11.1760
 30
0.0000
  0
SEQEND
  8
0
  0
POLYLINE
  8
16
 66
1
 10
0.0000
 20
0.0000
 30
0.0000
 40
0.1270
 41
0.1270
 70
0
  0
VERTEX
  8
16
 10
15.1638
 20
-11.2395
 30
0.0000
 42
1.0000
  0
VERTEX
  8
16
 10
15.1638
 20
-11.1125
 30
0.0000
  0
SEQEND
  8
0
  0
POLYLINE
  8
16
 66
1
 10
0.0000
 20
0.0000
 30
0.0000
 40
0.1270
 41
0.1270
 70
0
  0
VERTEX
  8
16
 10
9.7780
 20
-11.1125
 30
0.0000
 42
1.0000
  0
VERTEX
  8
16
 10
9.7780
 20
-11.2395
 30
0.0000
  0
SEQEND
  8
0
  0
POLYLINE
  8
16
 66
1
 10
0.0000
 20
0.0000
 30
0.0000
 40
0.2540
 41
0.2540
 70
0
  0
VERTEX
  8
16
 10
-1.1938
 20
-10.9220
 30
0.0000
  0
VERTEX
  8
16
 10
4.5340
 20
-10.9220
 30
0.0000
  0
SEQEND
  8
0
  0
POLYLINE
  8
16
 66
1
 10
0.0000
 20
0.0000
 30
0.0000
 40
0.1270
 41
0.1270
 70
0
  0
VERTEX
  8
16
 10
4.5340
 20
-10.9855
 30
0.0000
 42
1.0000
  0
VERTEX
  8
16
 10
4.5340
 20
-10.8585
 30
0.0000
  0
SEQEND
  8
0
  0
POLYLINE
  8
16
 66
1
 10
0.0000
 20
0.0000
 30
0.0000
 40
0.1270
 41
0.1270
 70
0
  0
VERTEX
  8
16
 10
-1.1938
 20
-10.8585
 30
0.0000
 42
1.0000
  0
VERTEX
  8
16
 10
-1.1938
 20
-10.9855
 30
0.0000
  0
SEQEND
  8
0
  0
POLYLINE
  8
16
 66
1
 10
0.0000
 20
0.0000
 30
0.0000
 40
0.2540
 41
0.2540
 70
0
  0
VERTEX
  8
16
 10
9.8460
 20
-10.9220
 30
0.0000
  0
VERTEX
  8
16
 10
15.1638
 20
-10.9220
 30
0.0000
  0
SEQEND
  8
0
  0
POLYLINE
  8
16
 66
1
 10
0.0000
 20
0.0000
 30
0.0000
 40
0.1270
 41
0.1270
 70
0
  0
VERTEX
  8
16
 10
15.1638
 20
-10.9855
 30
0.0000
 42
1.0000
  0
VERTEX
  8
16
 10
15.1638
 20
-10.8585
 30
0.0000
  0
SEQEND
  8
0
  0
POLYLINE
  8
16
 66
1
 10
0.0000
 20
0.0000
 30
0.0000
 40
0.1270
 41
0.1270
 70
0
  0
VERTEX
  8
16
 10
9.8460
 20
-10.8585
 30
0.0000
 42
1.0000
  0
VERTEX
  8
16
 10
9.8460
 20
-10.9855
 30
0.0000
  0
SEQEND
  8
0
  0
POLYLINE
  8
16
 66
1
 10
0.0000
 20
0.0000
 30
0.0000
 40
0.2540
 41
0.2540
 70
0
  0
VERTEX
  8
16
 10
-1.1938
 20
-10.6680
 30
0.0000
  0
VERTEX
  8
16
 10
4.5230
 20
-10.6680
 30
0.0000
  0
SEQEND
  8
0
  0
POLYLINE
  8
16
 66
1
 10
0.0000
 20
0.0000
 30
0.0000
 40
0.1270
 41
0.1270
 70
0
  0
VERTEX
  8
16
 10
4.5230
 20
-10.7315
 30
0.0000
 42
1.0000
  0
VERTEX
  8
16
 10
4.5230
 20
-10.6045
 30
0.0000
  0
SEQEND
  8
0
  0
POLYLINE
  8
16
 66
1
 10
0.0000
 20
0.0000
 30
0.0000
 40
0.1270
 41
0.1270
 70
0
  0
VERTEX
  8
16
 10
-1.1938
 20
-10.6045
 30
0.0000
 42
1.0000
  0
VERTEX
  8
16
 10
-1.1938
 20
-10.7315
 30
0.0000
  0
SEQEND
  8
0
  0
POLYLINE
  8
16
 66
1
 10
0.0000
 20
0.0000
 30
0.0000
 40
0.2540
 41
0.2540
 70
0
  0
VERTEX
  8
16
 10
9.8570
 20
-10.6680
 30
0.0000
  0
VERTEX
  8
16
 10
15.1638
 20
-10.6680
 30
0.0000
  0
SEQEND
  8
0
  0
POLYLINE
  8
16
 66
1
 10
0.0000
 20
0.0000
 30
0.0000
 40
0.1270
 41
0.1270
 70
0
  0
VERTEX
  8
16
 10
15.1638
 20
-10.7315
 30
0.0000
 42
1.0000
  0
VERTEX
  8
16
 10
15.1638
 20
-10.6045
 30
0.0000
  0
SEQEND
  8
0
  0
POLYLINE
  8
16
 66
1
 10
0.0000
 20
0.0000
 30
0.0000
 40
0.1270
 41
0.1270
 70
0
  0
VERTEX
  8
16
 10
9.8570
 20
-10.6045
 30
0.0000
 42
1.0000
  0
VERTEX
  8
16
 10
9.8570
 20
-10.7315
 30
0.0000
  0
SEQEND
  8
0
  0
POLYLINE
  8
16
 66
1
 10
0.0000
 20
0.0000
 30
0.0000
 40
0.2540
 41
0.2540
 70
0
  0
VERTEX
  8
16
 10
-1.1938
 20
-10.4140
 30
0.0000
  0
VERTEX
  8
16
 10
4.5230
 20
-10.4140
 30
0.0000
  0
SEQEND
  8
0
  0
POLYLINE
  8
16
 66
1
 10
0.0000
 20
0.0000
 30
0.0000
 40
0.1270
 41
0.1270
 70
0
  0
VERTEX
  8
16
 10
4.5230
 20
-10.4775
 30
0.0000
 42
1.0000
  0
VERTEX
  8
16
 10
4.5230
 20
-10.3505
 30
0.0000
  0
SEQEND
  8
0
  0
POLYLINE
  8
16
 66
1
 10
0.0000
 20
0.0000
 30
0.0000
 40
0.1270
 41
0.1270
 70
0
  0
VERTEX
  8
16
 10
-1.1938
 20
-10.3505
 30
0.0000
 42
1.0000
  0
VERTEX
  8
16
 10
-1.1938
 20
-10.4775
 30
0.0000
  0
SEQEND
  8
0
  0
POLYLINE
  8
16
 66
1
 10
0.0000
 20
0.0000
 30
0.0000
 40
0.2540
 41
0.2540
 70
0
  0
VERTEX
  8
16
 10
9.8570
 20
-10.4140
 30
0.0000
  0
VERTEX
  8
16
 10
15.1638
 20
-10.4140
 30
0.0000
  0
SEQEND
  8
0
  0
POLYLINE
  8
16
 66
1
 10
0.0000
 20
0.0000
 30
0.0000
 40
0.1270
 41
0.1270
 70
0
  0
VERTEX
  8
16
 10
15.1638
 20
-10.4775
 30
0.0000
 42
1.0000
  0
VERTEX
  8
16
 10
15.1638
 20
-10.3505
 30
0.0000
  0
SEQEND
  8
0
  0
POLYLINE
  8
16
 66
1
 10
0.0000
 20
0.0000
 30
0.0000
 40
0.1270
 41
0.1270
 70
0
  0
VERTEX
  8
16
 10
9.8570
 20
-10.3505
 30
0.0000
 42
1.0000
  0
VERTEX
  8
16
 10
9.8570
 20
-10.4775
 30
0.0000
  0
SEQEND
  8
0
  0
POLYLINE
  8
16
 66
1
 10
0.0000
 20
0.0000
 30
0.0000
 40
0.2540
 41
0.2540
 70
0
  0
VERTEX
  8
16
 10
-1.1938
 20
-10.1600
 30
0.0000
  0
VERTEX
  8
16
 10
4.5281
 20
-10.1600
 30
0.0000
  0
SEQEND
  8
0
  0
POLYLINE
  8
16
 66
1
 10
0.0000
 20
0.0000
 30
0.0000
 40
0.1270
 41
0.1270
 70
0
  0
VERTEX
  8
16
 10
4.5281
 20
-10.2235
 30
0.0000
 42
1.0000
  0
VERTEX
  8
16
 10
4.5281
 20
-10.0965
 30
0.0000
  0
SEQEND
  8
0
  0
POLYLINE
  8
16
 66
1
 10
0.0000
 20
0.0000
 30
0.0000
 40
0.1270
 41
0.1270
 70
0
  0
VERTEX
  8
16
 10
-1.1938
 20
-10.0965
 30
0.0000
 42
1.0000
  0
VERTEX
  8
16
 10
-1.1938
 20
-10.2235
 30
0.0000
  0
SEQEND
  8
0
  0
POLYLINE
  8
16
 66
1
 10
0.0000
 20
0.0000
 30
0.0000
 40
0.2540
 41
0.2540
 70
0
  0
VERTEX
  8
16
 10
9.8519
 20
-10.1600
 30
0.0000
  0
VERTEX
  8
16
 10
15.1638
 20
-10.1600
 30
0.0000
  0
SEQEND
  8
0
  0
POLYLINE
  8
16
 66
1
 10
0.0000
 20
0.0000
 30
0.0000
 40
0.1270
 41
0.1270
 70
0
  0
VERTEX
  8
16
 10
15.1638
 20
-10.2235
 30
0.0000
 42
1.0000
  0
VERTEX
  8
16
 10
15.1638
 20
-10.0965
 30
0.0000
  0
SEQEND
  8
0
  0
POLYLINE
  8
16
 66
1
 10
0.0000
 20
0.0000
 30
0.0000
 40
0.1270
 41
0.1270
 70
0
  0
VERTEX
  8
16
 10
9.8519
 20
-10.0965
 30
0.0000
 42
1.0000
  0
VERTEX
  8
16
 10
9.8519
 20
-10.2235
 30
0.0000
  0
SEQEND
  8
0
  0
POLYLINE
  8
16
 66
1
 10
0.0000
 20
0.0000
 30
0.0000
 40
0.2540
 41
0.2540
 70
0
  0
VERTEX
  8
16
 10
-1.1938
 20
-9.9060
 30
0.0000
  0
VERTEX
  8
16
 10
4.5961
 20
-9.9060
 30
0.0000
  0
SEQEND
  8
0
  0
POLYLINE
  8
16
 66
1
 10
0.0000
 20
0.0000
 30
0.0000
 40
0.1270
 41
0.1270
 70
0
  0
VERTEX
  8
16
 10
4.5961
 20
-9.9695
 30
0.0000
 42
1.0000
  0
VERTEX
  8
16
 10
4.5961
 20
-9.8425
 30
0.0000
  0
SEQEND
  8
0
  0
POLYLINE
  8
16
 66
1
 10
0.0000
 20
0.0000
 30
0.0000
 40
0.1270
 41
0.1270
 70
0
  0
VERTEX
  8
16
 10
-1.1938
 20
-9.8425
 30
0.0000
 42
1.0000
  0
VERTEX
  8
16
 10
-1.1938
 20
-9.9695
 30
0.0000
  0
SEQEND
  8
0
  0
POLYLINE
  8
16
 66
1
 10
0.0000
 20
0.0000
 30
0.0000
 40
0.2540
 41
0.2540
 70
0
  0
VERTEX
  8
16
 10
9.7839
 20
-9.9060
 30
0.0000
  0
VERTEX
  8
16
 10
15.1638
 20
-9.9060
 30
0.0000
  0
SEQEND
  8
0
  0
POLYLINE
  8
16
 66
1
 10
0.0000
 20
0.0000
 30
0.0000
 40
0.1270
 41
0.1270
 70
0
  0
VERTEX
  8
16
 10
15.1638
 20
-9.9695
 30
0.0000
 42
1.0000
  0
VERTEX
  8
16
 10
15.1638
 20
-9.8425
 30
0.0000
  0
SEQEND
  8
0
  0
POLYLINE
  8
16
 66
1
 10
0.0000
 20
0.0000
 30
0.0000
 40
0.1270
 41
0.1270
 70
0
  0
VERTEX
  8
16
 10
9.7839
 20
-9.8425
 30
0.0000
 42
1.0000
  0
VERTEX
  8
16
 10
9.7839
 20
-9.9695
 30
0.0000
  0
SEQEND
  8
0
  0
POLYLINE
  8
16
 66
1
 10
0.0000
 20
0.0000
 30
0.0000
 40
0.2540
 41
0.2540
 70
0
  0
VERTEX
  8
16
 10
-1.1938
 20
-9.6520
 30
0.0000
  0
VERTEX
  8
16
 10
4.6642
 20
-9.6520
 30
0.0000
  0
SEQEND
  8
0
  0
POLYLINE
  8
16
 66
1
 10
0.0000
 20
0.0000
 30
0.0000
 40
0.1270
 41
0.1270
 70
0
  0
VERTEX
  8
16
 10
4.6642
 20
-9.7155
 30
0.0000
 42
1.0000
  0
VERTEX
  8
16
 10
4.6642
 20
-9.5885
 30
0.0000
  0
SEQEND
  8
0
  0
POLYLINE
  8
16
 66
1
 10
0.0000
 20
0.0000
 30
0.0000
 40
0.1270
 41
0.1270
 70
0
  0
VERTEX
  8
16
 10
-1.1938
 20
-9.5885
 30
0.0000
 42
1.0000
  0
VERTEX
  8
16
 10
-1.1938
 20
-9.7155
 30
0.0000
  0
SEQEND
  8
0
  0
POLYLINE
  8
16
 66
1
 10
0.0000
 20
0.0000
 30
0.0000
 40
0.2540
 41
0.2540
 70
0
  0
VERTEX
  8
16
 10
9.7158
 20
-9.6520
 30
0.0000
  0
VERTEX
  8
16
 10
15.1638
 20
-9.6520
 30
0.0000
  0
SEQEND
  8
0
  0
POLYLINE
  8
16
 66
1
 10
0.0000
 20
0.0000
 30
0.0000
 40
0.1270
 41
0.1270
 70
0
  0
VERTEX
  8
16
 10
15.1638
 20
-9.7155
 30
0.0000
 42
1.0000
  0
VERTEX
  8
16
 10
15.1638
 20
-9.5885
 30
0.0000
  0
SEQEND
  8
0
  0
POLYLINE
  8
16
 66
1
 10
0.0000
 20
0.0000
 30
0.0000
 40
0.1270
 41
0.1270
 70
0
  0
VERTEX
  8
16
 10
9.7158
 20
-9.5885
 30
0.0000
 42
1.0000
  0
VERTEX
  8
16
 10
9.7158
 20
-9.7155
 30
0.0000
  0
SEQEND
  8
0
  0
POLYLINE
  8
16
 66
1
 10
0.0000
 20
0.0000
 30
0.0000
 40
0.2540
 41
0.2540
 70
0
  0
VERTEX
  8
16
 10
-1.1938
 20
-9.3980
 30
0.0000
  0
VERTEX
  8
16
 10
4.7640
 20
-9.3980
 30
0.0000
  0
SEQEND
  8
0
  0
POLYLINE
  8
16
 66
1
 10
0.0000
 20
0.0000
 30
0.0000
 40
0.1270
 41
0.1270
 70
0
  0
VERTEX
  8
16
 10
4.7640
 20
-9.4615
 30
0.0000
 42
1.0000
  0
VERTEX
  8
16
 10
4.7640
 20
-9.3345
 30
0.0000
  0
SEQEND
  8
0
  0
POLYLINE
  8
16
 66
1
 10
0.0000
 20
0.0000
 30
0.0000
 40
0.1270
 41
0.1270
 70
0
  0
VERTEX
  8
16
 10
-1.1938
 20
-9.3345
 30
0.0000
 42
1.0000
  0
VERTEX
  8
16
 10
-1.1938
 20
-9.4615
 30
0.0000
  0
SEQEND
  8
0
  0
POLYLINE
  8
16
 66
1
 10
0.0000
 20
0.0000
 30
0.0000
 40
0.2540
 41
0.2540
 70
0
  0
VERTEX
  8
16
 10
9.6160
 20
-9.3980
 30
0.0000
  0
VERTEX
  8
16
 10
15.1638
 20
-9.3980
 30
0.0000
  0
SEQEND
  8
0
  0
POLYLINE
  8
16
 66
1
 10
0.0000
 20
0.0000
 30
0.0000
 40
0.1270
 41
0.1270
 70
0
  0
VERTEX
  8
16
 10
15.1638
 20
-9.4615
 30
0.0000
 42
1.0000
  0
VERTEX
  8
16
 10
15.1638
 20
-9.3345
 30
0.0000
  0
SEQEND
  8
0
  0
POLYLINE
  8
16
 66
1
 10
0.0000
 20
0.0000
 30
0.0000
 40
0.1270
 41
0.1270
 70
0
  0
VERTEX
  8
16
 10
9.6160
 20
-9.3345
 30
0.0000
 42
1.0000
  0
VERTEX
  8
16
 10
9.6160
 20
-9.4615
 30
0.0000
  0
SEQEND
  8
0
  0
POLYLINE
  8
16
 66
1
 10
0.0000
 20
0.0000
 30
0.0000
 40
0.2540
 41
0.2540
 70
0
  0
VERTEX
  8
16
 10
-1.1938
 20
-9.1440
 30
0.0000
  0
VERTEX
  8
16
 10
4.9106
 20
-9.1440
 30
0.0000
  0
SEQEND
  8
0
  0
POLYLINE
  8
16
 66
1
 10
0.0000
 20
0.0000
 30
0.0000
 40
0.1270
 41
0.1270
 70
0
  0
VERTEX
  8
16
 10
4.9106
 20
-9.2075
 30
0.0000
 42
1.0000
  0
VERTEX
  8
16
 10
4.9106
 20
-9.0805
 30
0.0000
  0
SEQEND
  8
0
  0
POLYLINE
  8
16
 66
1
 10
0.0000
 20
0.0000
 30
0.0000
 40
0.1270
 41
0.1270
 70
0
  0
VERTEX
  8
16
 10
-1.1938
 20
-9.0805
 30
0.0000
 42
1.0000
  0
VERTEX
  8
16
 10
-1.1938
 20
-9.2075
 30
0.0000
  0
SEQEND
  8
0
  0
POLYLINE
  8
16
 66
1
 10
0.0000
 20
0.0000
 30
0.0000
 40
0.2540
 41
0.2540
 70
0
  0
VERTEX
  8
16
 10
9.4694
 20
-9.1440
 30
0.0000
  0
VERTEX
  8
16
 10
15.1638
 20
-9.1440
 30
0.0000
  0
SEQEND
  8
0
  0
POLYLINE
  8
16
 66
1
 10
0.0000
 20
0.0000
 30
0.0000
 40
0.1270
 41
0.1270
 70
0
  0
VERTEX
  8
16
 10
15.1638
 20
-9.2075
 30
0.0000
 42
1.0000
  0
VERTEX
  8
16
 10
15.1638
 20
-9.0805
 30
0.0000
  0
SEQEND
  8
0
  0
POLYLINE
  8
16
 66
1
 10
0.0000
 20
0.0000
 30
0.0000
 40
0.1270
 41
0.1270
 70
0
  0
VERTEX
  8
16
 10
9.4694
 20
-9.0805
 30
0.0000
 42
1.0000
  0
VERTEX
  8
16
 10
9.4694
 20
-9.2075
 30
0.0000
  0
SEQEND
  8
0
  0
POLYLINE
  8
16
 66
1
 10
0.0000
 20
0.0000
 30
0.0000
 40
0.2540
 41
0.2540
 70
0
  0
VERTEX
  8
16
 10
-1.1938
 20
-8.8900
 30
0.0000
  0
VERTEX
  8
16
 10
5.0583
 20
-8.8900
 30
0.0000
  0
SEQEND
  8
0
  0
POLYLINE
  8
16
 66
1
 10
0.0000
 20
0.0000
 30
0.0000
 40
0.1270
 41
0.1270
 70
0
  0
VERTEX
  8
16
 10
5.0583
 20
-8.9535
 30
0.0000
 42
1.0000
  0
VERTEX
  8
16
 10
5.0583
 20
-8.8265
 30
0.0000
  0
SEQEND
  8
0
  0
POLYLINE
  8
16
 66
1
 10
0.0000
 20
0.0000
 30
0.0000
 40
0.1270
 41
0.1270
 70
0
  0
VERTEX
  8
16
 10
-1.1938
 20
-8.8265
 30
0.0000
 42
1.0000
  0
VERTEX
  8
16
 10
-1.1938
 20
-8.9535
 30
0.0000
  0
SEQEND
  8
0
  0
POLYLINE
  8
16
 66
1
 10
0.0000
 20
0.0000
 30
0.0000
 40
0.2540
 41
0.2540
 70
0
  0
VERTEX
  8
16
 10
9.3217
 20
-8.8900
 30
0.0000
  0
VERTEX
  8
16
 10
15.1638
 20
-8.8900
 30
0.0000
  0
SEQEND
  8
0
  0
POLYLINE
  8
16
 66
1
 10
0.0000
 20
0.0000
 30
0.0000
 40
0.1270
 41
0.1270
 70
0
  0
VERTEX
  8
16
 10
15.1638
 20
-8.9535
 30
0.0000
 42
1.0000
  0
VERTEX
  8
16
 10
15.1638
 20
-8.8265
 30
0.0000
  0
SEQEND
  8
0
  0
POLYLINE
  8
16
 66
1
 10
0.0000
 20
0.0000
 30
0.0000
 40
0.1270
 41
0.1270
 70
0
  0
VERTEX
  8
16
 10
9.3217
 20
-8.8265
 30
0.0000
 42
1.0000
  0
VERTEX
  8
16
 10
9.3217
 20
-8.9535
 30
0.0000
  0
SEQEND
  8
0
  0
POLYLINE
  8
16
 66
1
 10
0.0000
 20
0.0000
 30
0.0000
 40
0.2540
 41
0.2540
 70
0
  0
VERTEX
  8
16
 10
-1.1938
 20
-8.6360
 30
0.0000
  0
VERTEX
  8
16
 10
5.3123
 20
-8.6360
 30
0.0000
  0
SEQEND
  8
0
  0
POLYLINE
  8
16
 66
1
 10
0.0000
 20
0.0000
 30
0.0000
 40
0.1270
 41
0.1270
 70
0
  0
VERTEX
  8
16
 10
5.3123
 20
-8.6995
 30
0.0000
 42
1.0000
  0
VERTEX
  8
16
 10
5.3123
 20
-8.5725
 30
0.0000
  0
SEQEND
  8
0
  0
POLYLINE
  8
16
 66
1
 10
0.0000
 20
0.0000
 30
0.0000
 40
0.1270
 41
0.1270
 70
0
  0
VERTEX
  8
16
 10
-1.1938
 20
-8.5725
 30
0.0000
 42
1.0000
  0
VERTEX
  8
16
 10
-1.1938
 20
-8.6995
 30
0.0000
  0
SEQEND
  8
0
  0
POLYLINE
  8
16
 66
1
 10
0.0000
 20
0.0000
 30
0.0000
 40
0.2540
 41
0.2540
 70
0
  0
VERTEX
  8
16
 10
9.0677
 20
-8.6360
 30
0.0000
  0
VERTEX
  8
16
 10
15.1638
 20
-8.6360
 30
0.0000
  0
SEQEND
  8
0
  0
POLYLINE
  8
16
 66
1
 10
0.0000
 20
0.0000
 30
0.0000
 40
0.1270
 41
0.1270
 70
0
  0
VERTEX
  8
16
 10
15.1638
 20
-8.6995
 30
0.0000
 42
1.0000
  0
VERTEX
  8
16
 10
15.1638
 20
-8.5725
 30
0.0000
  0
SEQEND
  8
0
  0
POLYLINE
  8
16
 66
1
 10
0.0000
 20
0.0000
 30
0.0000
 40
0.1270
 41
0.1270
 70
0
  0
VERTEX
  8
16
 10
9.0677
 20
-8.5725
 30
0.0000
 42
1.0000
  0
VERTEX
  8
16
 10
9.0677
 20
-8.6995
 30
0.0000
  0
SEQEND
  8
0
  0
POLYLINE
  8
16
 66
1
 10
0.0000
 20
0.0000
 30
0.0000
 40
0.2540
 41
0.2540
 70
0
  0
VERTEX
  8
16
 10
-1.1938
 20
-8.3820
 30
0.0000
  0
VERTEX
  8
16
 10
5.5764
 20
-8.3820
 30
0.0000
  0
SEQEND
  8
0
  0
POLYLINE
  8
16
 66
1
 10
0.0000
 20
0.0000
 30
0.0000
 40
0.1270
 41
0.1270
 70
0
  0
VERTEX
  8
16
 10
5.5764
 20
-8.4455
 30
0.0000
 42
1.0000
  0
VERTEX
  8
16
 10
5.5764
 20
-8.3185
 30
0.0000
  0
SEQEND
  8
0
  0
POLYLINE
  8
16
 66
1
 10
0.0000
 20
0.0000
 30
0.0000
 40
0.1270
 41
0.1270
 70
0
  0
VERTEX
  8
16
 10
-1.1938
 20
-8.3185
 30
0.0000
 42
1.0000
  0
VERTEX
  8
16
 10
-1.1938
 20
-8.4455
 30
0.0000
  0
SEQEND
  8
0
  0
POLYLINE
  8
16
 66
1
 10
0.0000
 20
0.0000
 30
0.0000
 40
0.2540
 41
0.2540
 70
0
  0
VERTEX
  8
16
 10
8.8036
 20
-8.3820
 30
0.0000
  0
VERTEX
  8
16
 10
15.1638
 20
-8.3820
 30
0.0000
  0
SEQEND
  8
0
  0
POLYLINE
  8
16
 66
1
 10
0.0000
 20
0.0000
 30
0.0000
 40
0.1270
 41
0.1270
 70
0
  0
VERTEX
  8
16
 10
15.1638
 20
-8.4455
 30
0.0000
 42
1.0000
  0
VERTEX
  8
16
 10
15.1638
 20
-8.3185
 30
0.0000
  0
SEQEND
  8
0
  0
POLYLINE
  8
16
 66
1
 10
0.0000
 20
0.0000
 30
0.0000
 40
0.1270
 41
0.1270
 70
0
  0
VERTEX
  8
16
 10
8.8036
 20
-8.3185
 30
0.0000
 42
1.0000
  0
VERTEX
  8
16
 10
8.8036
 20
-8.4455
 30
0.0000
  0
SEQEND
  8
0
  0
POLYLINE
  8
16
 66
1
 10
0.0000
 20
0.0000
 30
0.0000
 40
0.2540
 41
0.2540
 70
0
  0
VERTEX
  8
16
 10
-1.1938
 20
-8.1280
 30
0.0000
  0
VERTEX
  8
16
 10
6.0164
 20
-8.1280
 30
0.0000
  0
SEQEND
  8
0
  0
POLYLINE
  8
16
 66
1
 10
0.0000
 20
0.0000
 30
0.0000
 40
0.1270
 41
0.1270
 70
0
  0
VERTEX
  8
16
 10
6.0164
 20
-8.1915
 30
0.0000
 42
1.0000
  0
VERTEX
  8
16
 10
6.0164
 20
-8.0645
 30
0.0000
  0
SEQEND
  8
0
  0
POLYLINE
  8
16
 66
1
 10
0.0000
 20
0.0000
 30
0.0000
 40
0.1270
 41
0.1270
 70
0
  0
VERTEX
  8
16
 10
-1.1938
 20
-8.0645
 30
0.0000
 42
1.0000
  0
VERTEX
  8
16
 10
-1.1938
 20
-8.1915
 30
0.0000
  0
SEQEND
  8
0
  0
POLYLINE
  8
16
 66
1
 10
0.0000
 20
0.0000
 30
0.0000
 40
0.2540
 41
0.2540
 70
0
  0
VERTEX
  8
16
 10
8.3636
 20
-8.1280
 30
0.0000
  0
VERTEX
  8
16
 10
15.1638
 20
-8.1280
 30
0.0000
  0
SEQEND
  8
0
  0
POLYLINE
  8
16
 66
1
 10
0.0000
 20
0.0000
 30
0.0000
 40
0.1270
 41
0.1270
 70
0
  0
VERTEX
  8
16
 10
15.1638
 20
-8.1915
 30
0.0000
 42
1.0000
  0
VERTEX
  8
16
 10
15.1638
 20
-8.0645
 30
0.0000
  0
SEQEND
  8
0
  0
POLYLINE
  8
16
 66
1
 10
0.0000
 20
0.0000
 30
0.0000
 40
0.1270
 41
0.1270
 70
0
  0
VERTEX
  8
16
 10
8.3636
 20
-8.0645
 30
0.0000
 42
1.0000
  0
VERTEX
  8
16
 10
8.3636
 20
-8.1915
 30
0.0000
  0
SEQEND
  8
0
  0
POLYLINE
  8
16
 66
1
 10
0.0000
 20
0.0000
 30
0.0000
 40
0.2540
 41
0.2540
 70
0
  0
VERTEX
  8
16
 10
-1.1938
 20
-7.8740
 30
0.0000
  0
VERTEX
  8
16
 10
6.7978
 20
-7.8740
 30
0.0000
  0
SEQEND
  8
0
  0
POLYLINE
  8
16
 66
1
 10
0.0000
 20
0.0000
 30
0.0000
 40
0.1270
 41
0.1270
 70
0
  0
VERTEX
  8
16
 10
6.7978
 20
-7.9375
 30
0.0000
 42
1.0000
  0
VERTEX
  8
16
 10
6.7978
 20
-7.8105
 30
0.0000
  0
SEQEND
  8
0
  0
POLYLINE
  8
16
 66
1
 10
0.0000
 20
0.0000
 30
0.0000
 40
0.1270
 41
0.1270
 70
0
  0
VERTEX
  8
16
 10
-1.1938
 20
-7.8105
 30
0.0000
 42
1.0000
  0
VERTEX
  8
16
 10
-1.1938
 20
-7.9375
 30
0.0000
  0
SEQEND
  8
0
  0
POLYLINE
  8
16
 66
1
 10
0.0000
 20
0.0000
 30
0.0000
 40
0.2540
 41
0.2540
 70
0
  0
VERTEX
  8
16
 10
7.5822
 20
-7.8740
 30
0.0000
  0
VERTEX
  8
16
 10
15.1638
 20
-7.8740
 30
0.0000
  0
SEQEND
  8
0
  0
POLYLINE
  8
16
 66
1
 10
0.0000
 20
0.0000
 30
0.0000
 40
0.1270
 41
0.1270
 70
0
  0
VERTEX
  8
16
 10
15.1638
 20
-7.9375
 30
0.0000
 42
1.0000
  0
VERTEX
  8
16
 10
15.1638
 20
-7.8105
 30
0.0000
  0
SEQEND
  8
0
  0
POLYLINE
  8
16
 66
1
 10
0.0000
 20
0.0000
 30
0.0000
 40
0.1270
 41
0.1270
 70
0
  0
VERTEX
  8
16
 10
7.5822
 20
-7.8105
 30
0.0000
 42
1.0000
  0
VERTEX
  8
16
 10
7.5822
 20
-7.9375
 30
0.0000
  0
SEQEND
  8
0
  0
POLYLINE
  8
16
 66
1
 10
0.0000
 20
0.0000
 30
0.0000
 40
0.2540
 41
0.2540
 70
0
  0
VERTEX
  8
16
 10
-1.1938
 20
-7.6200
 30
0.0000
  0
VERTEX
  8
16
 10
15.1638
 20
-7.6200
 30
0.0000
  0
SEQEND
  8
0
  0
POLYLINE
  8
16
 66
1
 10
0.0000
 20
0.0000
 30
0.0000
 40
0.1270
 41
0.1270
 70
0
  0
VERTEX
  8
16
 10
15.1638
 20
-7.6835
 30
0.0000
 42
1.0000
  0
VERTEX
  8
16
 10
15.1638
 20
-7.5565
 30
0.0000
  0
SEQEND
  8
0
  0
POLYLINE
  8
16
 66
1
 10
0.0000
 20
0.0000
 30
0.0000
 40
0.1270
 41
0.1270
 70
0
  0
VERTEX
  8
16
 10
-1.1938
 20
-7.5565
 30
0.0000
 42
1.0000
  0
VERTEX
  8
16
 10
-1.1938
 20
-7.6835
 30
0.0000
  0
SEQEND
  8
0
  0
POLYLINE
  8
16
 66
1
 10
0.0000
 20
0.0000
 30
0.0000
 40
0.2540
 41
0.2540
 70
0
  0
VERTEX
  8
16
 10
-1.1938
 20
-7.3660
 30
0.0000
  0
VERTEX
  8
16
 10
15.1638
 20
-7.3660
 30
0.0000
  0
SEQEND
  8
0
  0
POLYLINE
  8
16
 66
1
 10
0.0000
 20
0.0000
 30
0.0000
 40
0.1270
 41
0.1270
 70
0
  0
VERTEX
  8
16
 10
15.1638
 20
-7.4295
 30
0.0000
 42
1.0000
  0
VERTEX
  8
16
 10
15.1638
 20
-7.3025
 30
0.0000
  0
SEQEND
  8
0
  0
POLYLINE
  8
16
 66
1
 10
0.0000
 20
0.0000
 30
0.0000
 40
0.1270
 41
0.1270
 70
0
  0
VERTEX
  8
16
 10
-1.1938
 20
-7.3025
 30
0.0000
 42
1.0000
  0
VERTEX
  8
16
 10
-1.1938
 20
-7.4295
 30
0.0000
  0
SEQEND
  8
0
  0
POLYLINE
  8
16
 66
1
 10
0.0000
 20
0.0000
 30
0.0000
 40
0.2540
 41
0.2540
 70
0
  0
VERTEX
  8
16
 10
-1.1938
 20
-7.1120
 30
0.0000
  0
VERTEX
  8
16
 10
15.1638
 20
-7.1120
 30
0.0000
  0
SEQEND
  8
0
  0
POLYLINE
  8
16
 66
1
 10
0.0000
 20
0.0000
 30
0.0000
 40
0.1270
 41
0.1270
 70
0
  0
VERTEX
  8
16
 10
15.1638
 20
-7.1755
 30
0.0000
 42
1.0000
  0
VERTEX
  8
16
 10
15.1638
 20
-7.0485
 30
0.0000
  0
SEQEND
  8
0
  0
POLYLINE
  8
16
 66
1
 10
0.0000
 20
0.0000
 30
0.0000
 40
0.1270
 41
0.1270
 70
0
  0
VERTEX
  8
16
 10
-1.1938
 20
-7.0485
 30
0.0000
 42
1.0000
  0
VERTEX
  8
16
 10
-1.1938
 20
-7.1755
 30
0.0000
  0
SEQEND
  8
0
  0
POLYLINE
  8
16
 66
1
 10
0.0000
 20
0.0000
 30
0.0000
 40
0.2540
 41
0.2540
 70
0
  0
VERTEX
  8
16
 10
-1.1938
 20
-6.8580
 30
0.0000
  0
VERTEX
  8
16
 10
15.1638
 20
-6.8580
 30
0.0000
  0
SEQEND
  8
0
  0
POLYLINE
  8
16
 66
1
 10
0.0000
 20
0.0000
 30
0.0000
 40
0.1270
 41
0.1270
 70
0
  0
VERTEX
  8
16
 10
15.1638
 20
-6.9215
 30
0.0000
 42
1.0000
  0
VERTEX
  8
16
 10
15.1638
 20
-6.7945
 30
0.0000
  0
SEQEND
  8
0
  0
POLYLINE
  8
16
 66
1
 10
0.0000
 20
0.0000
 30
0.0000
 40
0.1270
 41
0.1270
 70
0
  0
VERTEX
  8
16
 10
-1.1938
 20
-6.7945
 30
0.0000
 42
1.0000
  0
VERTEX
  8
16
 10
-1.1938
 20
-6.9215
 30
0.0000
  0
SEQEND
  8
0
  0
POLYLINE
  8
16
 66
1
 10
0.0000
 20
0.0000
 30
0.0000
 40
0.2540
 41
0.2540
 70
0
  0
VERTEX
  8
16
 10
-1.1938
 20
-6.6040
 30
0.0000
  0
VERTEX
  8
16
 10
15.1638
 20
-6.6040
 30
0.0000
  0
SEQEND
  8
0
  0
POLYLINE
  8
16
 66
1
 10
0.0000
 20
0.0000
 30
0.0000
 40
0.1270
 41
0.1270
 70
0
  0
VERTEX
  8
16
 10
15.1638
 20
-6.6675
 30
0.0000
 42
1.0000
  0
VERTEX
  8
16
 10
15.1638
 20
-6.5405
 30
0.0000
  0
SEQEND
  8
0
  0
POLYLINE
  8
16
 66
1
 10
0.0000
 20
0.0000
 30
0.0000
 40
0.1270
 41
0.1270
 70
0
  0
VERTEX
  8
16
 10
-1.1938
 20
-6.5405
 30
0.0000
 42
1.0000
  0
VERTEX
  8
16
 10
-1.1938
 20
-6.6675
 30
0.0000
  0
SEQEND
  8
0
  0
POLYLINE
  8
16
 66
1
 10
0.0000
 20
0.0000
 30
0.0000
 40
0.2540
 41
0.2540
 70
0
  0
VERTEX
  8
16
 10
-1.1938
 20
-6.3500
 30
0.0000
  0
VERTEX
  8
16
 10
15.1638
 20
-6.3500
 30
0.0000
  0
SEQEND
  8
0
  0
POLYLINE
  8
16
 66
1
 10
0.0000
 20
0.0000
 30
0.0000
 40
0.1270
 41
0.1270
 70
0
  0
VERTEX
  8
16
 10
15.1638
 20
-6.4135
 30
0.0000
 42
1.0000
  0
VERTEX
  8
16
 10
15.1638
 20
-6.2865
 30
0.0000
  0
SEQEND
  8
0
  0
POLYLINE
  8
16
 66
1
 10
0.0000
 20
0.0000
 30
0.0000
 40
0.1270
 41
0.1270
 70
0
  0
VERTEX
  8
16
 10
-1.1938
 20
-6.2865
 30
0.0000
 42
1.0000
  0
VERTEX
  8
16
 10
-1.1938
 20
-6.4135
 30
0.0000
  0
SEQEND
  8
0
  0
POLYLINE
  8
16
 66
1
 10
0.0000
 20
0.0000
 30
0.0000
 40
0.2540
 41
0.2540
 70
0
  0
VERTEX
  8
16
 10
-1.1938
 20
-6.0960
 30
0.0000
  0
VERTEX
  8
16
 10
15.1638
 20
-6.0960
 30
0.0000
  0
SEQEND
  8
0
  0
POLYLINE
  8
16
 66
1
 10
0.0000
 20
0.0000
 30
0.0000
 40
0.1270
 41
0.1270
 70
0
  0
VERTEX
  8
16
 10
15.1638
 20
-6.1595
 30
0.0000
 42
1.0000
  0
VERTEX
  8
16
 10
15.1638
 20
-6.0325
 30
0.0000
  0
SEQEND
  8
0
  0
POLYLINE
  8
16
 66
1
 10
0.0000
 20
0.0000
 30
0.0000
 40
0.1270
 41
0.1270
 70
0
  0
VERTEX
  8
16
 10
-1.1938
 20
-6.0325
 30
0.0000
 42
1.0000
  0
VERTEX
  8
16
 10
-1.1938
 20
-6.1595
 30
0.0000
  0
SEQEND
  8
0
  0
POLYLINE
  8
16
 66
1
 10
0.0000
 20
0.0000
 30
0.0000
 40
0.2540
 41
0.2540
 70
0
  0
VERTEX
  8
16
 10
-1.1938
 20
-5.8420
 30
0.0000
  0
VERTEX
  8
16
 10
0.5903
 20
-5.8420
 30
0.0000
  0
SEQEND
  8
0
  0
POLYLINE
  8
16
 66
1
 10
0.0000
 20
0.0000
 30
0.0000
 40
0.1270
 41
0.1270
 70
0
  0
VERTEX
  8
16
 10
0.5903
 20
-5.9055
 30
0.0000
 42
1.0000
  0
VERTEX
  8
16
 10
0.5903
 20
-5.7785
 30
0.0000
  0
SEQEND
  8
0
  0
POLYLINE
  8
16
 66
1
 10
0.0000
 20
0.0000
 30
0.0000
 40
0.1270
 41
0.1270
 70
0
  0
VERTEX
  8
16
 10
-1.1938
 20
-5.7785
 30
0.0000
 42
1.0000
  0
VERTEX
  8
16
 10
-1.1938
 20
-5.9055
 30
0.0000
  0
SEQEND
  8
0
  0
POLYLINE
  8
16
 66
1
 10
0.0000
 20
0.0000
 30
0.0000
 40
0.2540
 41
0.2540
 70
0
  0
VERTEX
  8
16
 10
3.2197
 20
-5.8420
 30
0.0000
  0
VERTEX
  8
16
 10
9.3267
 20
-5.8420
 30
0.0000
  0
SEQEND
  8
0
  0
POLYLINE
  8
16
 66
1
 10
0.0000
 20
0.0000
 30
0.0000
 40
0.1270
 41
0.1270
 70
0
  0
VERTEX
  8
16
 10
9.3267
 20
-5.9055
 30
0.0000
 42
1.0000
  0
VERTEX
  8
16
 10
9.3267
 20
-5.7785
 30
0.0000
  0
SEQEND
  8
0
  0
POLYLINE
  8
16
 66
1
 10
0.0000
 20
0.0000
 30
0.0000
 40
0.1270
 41
0.1270
 70
0
  0
VERTEX
  8
16
 10
3.2197
 20
-5.7785
 30
0.0000
 42
1.0000
  0
VERTEX
  8
16
 10
3.2197
 20
-5.9055
 30
0.0000
  0
SEQEND
  8
0
  0
POLYLINE
  8
16
 66
1
 10
0.0000
 20
0.0000
 30
0.0000
 40
0.2540
 41
0.2540
 70
0
  0
VERTEX
  8
16
 10
10.5333
 20
-5.8420
 30
0.0000
  0
VERTEX
  8
16
 10
15.1638
 20
-5.8420
 30
0.0000
  0
SEQEND
  8
0
  0
POLYLINE
  8
16
 66
1
 10
0.0000
 20
0.0000
 30
0.0000
 40
0.1270
 41
0.1270
 70
0
  0
VERTEX
  8
16
 10
15.1638
 20
-5.9055
 30
0.0000
 42
1.0000
  0
VERTEX
  8
16
 10
15.1638
 20
-5.7785
 30
0.0000
  0
SEQEND
  8
0
  0
POLYLINE
  8
16
 66
1
 10
0.0000
 20
0.0000
 30
0.0000
 40
0.1270
 41
0.1270
 70
0
  0
VERTEX
  8
16
 10
10.5333
 20
-5.7785
 30
0.0000
 42
1.0000
  0
VERTEX
  8
16
 10
10.5333
 20
-5.9055
 30
0.0000
  0
SEQEND
  8
0
  0
POLYLINE
  8
16
 66
1
 10
0.0000
 20
0.0000
 30
0.0000
 40
0.2540
 41
0.2540
 70
0
  0
VERTEX
  8
16
 10
-1.1938
 20
-5.5880
 30
0.0000
  0
VERTEX
  8
16
 10
0.4680
 20
-5.5880
 30
0.0000
  0
SEQEND
  8
0
  0
POLYLINE
  8
16
 66
1
 10
0.0000
 20
0.0000
 30
0.0000
 40
0.1270
 41
0.1270
 70
0
  0
VERTEX
  8
16
 10
0.4680
 20
-5.6515
 30
0.0000
 42
1.0000
  0
VERTEX
  8
16
 10
0.4680
 20
-5.5245
 30
0.0000
  0
SEQEND
  8
0
  0
POLYLINE
  8
16
 66
1
 10
0.0000
 20
0.0000
 30
0.0000
 40
0.1270
 41
0.1270
 70
0
  0
VERTEX
  8
16
 10
-1.1938
 20
-5.5245
 30
0.0000
 42
1.0000
  0
VERTEX
  8
16
 10
-1.1938
 20
-5.6515
 30
0.0000
  0
SEQEND
  8
0
  0
POLYLINE
  8
16
 66
1
 10
0.0000
 20
0.0000
 30
0.0000
 40
0.2540
 41
0.2540
 70
0
  0
VERTEX
  8
16
 10
3.3420
 20
-5.5880
 30
0.0000
  0
VERTEX
  8
16
 10
8.9473
 20
-5.5880
 30
0.0000
  0
SEQEND
  8
0
  0
POLYLINE
  8
16
 66
1
 10
0.0000
 20
0.0000
 30
0.0000
 40
0.1270
 41
0.1270
 70
0
  0
VERTEX
  8
16
 10
8.9473
 20
-5.6515
 30
0.0000
 42
1.0000
  0
VERTEX
  8
16
 10
8.9473
 20
-5.5245
 30
0.0000
  0
SEQEND
  8
0
  0
POLYLINE
  8
16
 66
1
 10
0.0000
 20
0.0000
 30
0.0000
 40
0.1270
 41
0.1270
 70
0
  0
VERTEX
  8
16
 10
3.3420
 20
-5.5245
 30
0.0000
 42
1.0000
  0
VERTEX
  8
16
 10
3.3420
 20
-5.6515
 30
0.0000
  0
SEQEND
  8
0
  0
POLYLINE
  8
16
 66
1
 10
0.0000
 20
0.0000
 30
0.0000
 40
0.2540
 41
0.2540
 70
0
  0
VERTEX
  8
16
 10
10.9127
 20
-5.5880
 30
0.0000
  0
VERTEX
  8
16
 10
15.1638
 20
-5.5880
 30
0.0000
  0
SEQEND
  8
0
  0
POLYLINE
  8
16
 66
1
 10
0.0000
 20
0.0000
 30
0.0000
 40
0.1270
 41
0.1270
 70
0
  0
VERTEX
  8
16
 10
15.1638
 20
-5.6515
 30
0.0000
 42
1.0000
  0
VERTEX
  8
16
 10
15.1638
 20
-5.5245
 30
0.0000
  0
SEQEND
  8
0
  0
POLYLINE
  8
16
 66
1
 10
0.0000
 20
0.0000
 30
0.0000
 40
0.1270
 41
0.1270
 70
0
  0
VERTEX
  8
16
 10
10.9127
 20
-5.5245
 30
0.0000
 42
1.0000
  0
VERTEX
  8
16
 10
10.9127
 20
-5.6515
 30
0.0000
  0
SEQEND
  8
0
  0
POLYLINE
  8
16
 66
1
 10
0.0000
 20
0.0000
 30
0.0000
 40
0.2540
 41
0.2540
 70
0
  0
VERTEX
  8
16
 10
-1.1938
 20
-5.3340
 30
0.0000
  0
VERTEX
  8
16
 10
0.4680
 20
-5.3340
 30
0.0000
  0
SEQEND
  8
0
  0
POLYLINE
  8
16
 66
1
 10
0.0000
 20
0.0000
 30
0.0000
 40
0.1270
 41
0.1270
 70
0
  0
VERTEX
  8
16
 10
0.4680
 20
-5.3975
 30
0.0000
 42
1.0000
  0
VERTEX
  8
16
 10
0.4680
 20
-5.2705
 30
0.0000
  0
SEQEND
  8
0
  0
POLYLINE
  8
16
 66
1
 10
0.0000
 20
0.0000
 30
0.0000
 40
0.1270
 41
0.1270
 70
0
  0
VERTEX
  8
16
 10
-1.1938
 20
-5.2705
 30
0.0000
 42
1.0000
  0
VERTEX
  8
16
 10
-1.1938
 20
-5.3975
 30
0.0000
  0
SEQEND
  8
0
  0
POLYLINE
  8
16
 66
1
 10
0.0000
 20
0.0000
 30
0.0000
 40
0.2540
 41
0.2540
 70
0
  0
VERTEX
  8
16
 10
3.3420
 20
-5.3340
 30
0.0000
  0
VERTEX
  8
16
 10
8.7011
 20
-5.3340
 30
0.0000
  0
SEQEND
  8
0
  0
POLYLINE
  8
16
 66
1
 10
0.0000
 20
0.0000
 30
0.0000
 40
0.1270
 41
0.1270
 70
0
  0
VERTEX
  8
16
 10
8.7011
 20
-5.3975
 30
0.0000
 42
1.0000
  0
VERTEX
  8
16
 10
8.7011
 20
-5.2705
 30
0.0000
  0
SEQEND
  8
0
  0
POLYLINE
  8
16
 66
1
 10
0.0000
 20
0.0000
 30
0.0000
 40
0.1270
 41
0.1270
 70
0
  0
VERTEX
  8
16
 10
3.3420
 20
-5.2705
 30
0.0000
 42
1.0000
  0
VERTEX
  8
16
 10
3.3420
 20
-5.3975
 30
0.0000
  0
SEQEND
  8
0
  0
POLYLINE
  8
16
 66
1
 10
0.0000
 20
0.0000
 30
0.0000
 40
0.2540
 41
0.2540
 70
0
  0
VERTEX
  8
16
 10
11.1589
 20
-5.3340
 30
0.0000
  0
VERTEX
  8
16
 10
15.1638
 20
-5.3340
 30
0.0000
  0
SEQEND
  8
0
  0
POLYLINE
  8
16
 66
1
 10
0.0000
 20
0.0000
 30
0.0000
 40
0.1270
 41
0.1270
 70
0
  0
VERTEX
  8
16
 10
15.1638
 20
-5.3975
 30
0.0000
 42
1.0000
  0
VERTEX
  8
16
 10
15.1638
 20
-5.2705
 30
0.0000
  0
SEQEND
  8
0
  0
POLYLINE
  8
16
 66
1
 10
0.0000
 20
0.0000
 30
0.0000
 40
0.1270
 41
0.1270
 70
0
  0
VERTEX
  8
16
 10
11.1589
 20
-5.2705
 30
0.0000
 42
1.0000
  0
VERTEX
  8
16
 10
11.1589
 20
-5.3975
 30
0.0000
  0
SEQEND
  8
0
  0
POLYLINE
  8
16
 66
1
 10
0.0000
 20
0.0000
 30
0.0000
 40
0.2540
 41
0.2540
 70
0
  0
VERTEX
  8
16
 10
-1.1938
 20
-5.0800
 30
0.0000
  0
VERTEX
  8
16
 10
0.4680
 20
-5.0800
 30
0.0000
  0
SEQEND
  8
0
  0
POLYLINE
  8
16
 66
1
 10
0.0000
 20
0.0000
 30
0.0000
 40
0.1270
 41
0.1270
 70
0
  0
VERTEX
  8
16
 10
0.4680
 20
-5.1435
 30
0.0000
 42
1.0000
  0
VERTEX
  8
16
 10
0.4680
 20
-5.0165
 30
0.0000
  0
SEQEND
  8
0
  0
POLYLINE
  8
16
 66
1
 10
0.0000
 20
0.0000
 30
0.0000
 40
0.1270
 41
0.1270
 70
0
  0
VERTEX
  8
16
 10
-1.1938
 20
-5.0165
 30
0.0000
 42
1.0000
  0
VERTEX
  8
16
 10
-1.1938
 20
-5.1435
 30
0.0000
  0
SEQEND
  8
0
  0
POLYLINE
  8
16
 66
1
 10
0.0000
 20
0.0000
 30
0.0000
 40
0.2540
 41
0.2540
 70
0
  0
VERTEX
  8
16
 10
3.3420
 20
-5.0800
 30
0.0000
  0
VERTEX
  8
16
 10
8.5959
 20
-5.0800
 30
0.0000
  0
SEQEND
  8
0
  0
POLYLINE
  8
16
 66
1
 10
0.0000
 20
0.0000
 30
0.0000
 40
0.1270
 41
0.1270
 70
0
  0
VERTEX
  8
16
 10
8.5959
 20
-5.1435
 30
0.0000
 42
1.0000
  0
VERTEX
  8
16
 10
8.5959
 20
-5.0165
 30
0.0000
  0
SEQEND
  8
0
  0
POLYLINE
  8
16
 66
1
 10
0.0000
 20
0.0000
 30
0.0000
 40
0.1270
 41
0.1270
 70
0
  0
VERTEX
  8
16
 10
3.3420
 20
-5.0165
 30
0.0000
 42
1.0000
  0
VERTEX
  8
16
 10
3.3420
 20
-5.1435
 30
0.0000
  0
SEQEND
  8
0
  0
POLYLINE
  8
16
 66
1
 10
0.0000
 20
0.0000
 30
0.0000
 40
0.2540
 41
0.2540
 70
0
  0
VERTEX
  8
16
 10
11.2641
 20
-5.0800
 30
0.0000
  0
VERTEX
  8
16
 10
15.1638
 20
-5.0800
 30
0.0000
  0
SEQEND
  8
0
  0
POLYLINE
  8
16
 66
1
 10
0.0000
 20
0.0000
 30
0.0000
 40
0.1270
 41
0.1270
 70
0
  0
VERTEX
  8
16
 10
15.1638
 20
-5.1435
 30
0.0000
 42
1.0000
  0
VERTEX
  8
16
 10
15.1638
 20
-5.0165
 30
0.0000
  0
SEQEND
  8
0
  0
POLYLINE
  8
16
 66
1
 10
0.0000
 20
0.0000
 30
0.0000
 40
0.1270
 41
0.1270
 70
0
  0
VERTEX
  8
16
 10
11.2641
 20
-5.0165
 30
0.0000
 42
1.0000
  0
VERTEX
  8
16
 10
11.2641
 20
-5.1435
 30
0.0000
  0
SEQEND
  8
0
  0
POLYLINE
  8
16
 66
1
 10
0.0000
 20
0.0000
 30
0.0000
 40
0.2540
 41
0.2540
 70
0
  0
VERTEX
  8
16
 10
-1.1938
 20
-4.8260
 30
0.0000
  0
VERTEX
  8
16
 10
0.4680
 20
-4.8260
 30
0.0000
  0
SEQEND
  8
0
  0
POLYLINE
  8
16
 66
1
 10
0.0000
 20
0.0000
 30
0.0000
 40
0.1270
 41
0.1270
 70
0
  0
VERTEX
  8
16
 10
0.4680
 20
-4.8895
 30
0.0000
 42
1.0000
  0
VERTEX
  8
16
 10
0.4680
 20
-4.7625
 30
0.0000
  0
SEQEND
  8
0
  0
POLYLINE
  8
16
 66
1
 10
0.0000
 20
0.0000
 30
0.0000
 40
0.1270
 41
0.1270
 70
0
  0
VERTEX
  8
16
 10
-1.1938
 20
-4.7625
 30
0.0000
 42
1.0000
  0
VERTEX
  8
16
 10
-1.1938
 20
-4.8895
 30
0.0000
  0
SEQEND
  8
0
  0
POLYLINE
  8
16
 66
1
 10
0.0000
 20
0.0000
 30
0.0000
 40
0.2540
 41
0.2540
 70
0
  0
VERTEX
  8
16
 10
3.3420
 20
-4.8260
 30
0.0000
  0
VERTEX
  8
16
 10
8.4907
 20
-4.8260
 30
0.0000
  0
SEQEND
  8
0
  0
POLYLINE
  8
16
 66
1
 10
0.0000
 20
0.0000
 30
0.0000
 40
0.1270
 41
0.1270
 70
0
  0
VERTEX
  8
16
 10
8.4907
 20
-4.8895
 30
0.0000
 42
1.0000
  0
VERTEX
  8
16
 10
8.4907
 20
-4.7625
 30
0.0000
  0
SEQEND
  8
0
  0
POLYLINE
  8
16
 66
1
 10
0.0000
 20
0.0000
 30
0.0000
 40
0.1270
 41
0.1270
 70
0
  0
VERTEX
  8
16
 10
3.3420
 20
-4.7625
 30
0.0000
 42
1.0000
  0
VERTEX
  8
16
 10
3.3420
 20
-4.8895
 30
0.0000
  0
SEQEND
  8
0
  0
POLYLINE
  8
16
 66
1
 10
0.0000
 20
0.0000
 30
0.0000
 40
0.2540
 41
0.2540
 70
0
  0
VERTEX
  8
16
 10
11.3693
 20
-4.8260
 30
0.0000
  0
VERTEX
  8
16
 10
15.1638
 20
-4.8260
 30
0.0000
  0
SEQEND
  8
0
  0
POLYLINE
  8
16
 66
1
 10
0.0000
 20
0.0000
 30
0.0000
 40
0.1270
 41
0.1270
 70
0
  0
VERTEX
  8
16
 10
15.1638
 20
-4.8895
 30
0.0000
 42
1.0000
  0
VERTEX
  8
16
 10
15.1638
 20
-4.7625
 30
0.0000
  0
SEQEND
  8
0
  0
POLYLINE
  8
16
 66
1
 10
0.0000
 20
0.0000
 30
0.0000
 40
0.1270
 41
0.1270
 70
0
  0
VERTEX
  8
16
 10
11.3693
 20
-4.7625
 30
0.0000
 42
1.0000
  0
VERTEX
  8
16
 10
11.3693
 20
-4.8895
 30
0.0000
  0
SEQEND
  8
0
  0
POLYLINE
  8
16
 66
1
 10
0.0000
 20
0.0000
 30
0.0000
 40
0.2540
 41
0.2540
 70
0
  0
VERTEX
  8
16
 10
-1.1938
 20
-4.5720
 30
0.0000
  0
VERTEX
  8
16
 10
0.4680
 20
-4.5720
 30
0.0000
  0
SEQEND
  8
0
  0
POLYLINE
  8
16
 66
1
 10
0.0000
 20
0.0000
 30
0.0000
 40
0.1270
 41
0.1270
 70
0
  0
VERTEX
  8
16
 10
0.4680
 20
-4.6355
 30
0.0000
 42
1.0000
  0
VERTEX
  8
16
 10
0.4680
 20
-4.5085
 30
0.0000
  0
SEQEND
  8
0
  0
POLYLINE
  8
16
 66
1
 10
0.0000
 20
0.0000
 30
0.0000
 40
0.1270
 41
0.1270
 70
0
  0
VERTEX
  8
16
 10
-1.1938
 20
-4.5085
 30
0.0000
 42
1.0000
  0
VERTEX
  8
16
 10
-1.1938
 20
-4.6355
 30
0.0000
  0
SEQEND
  8
0
  0
POLYLINE
  8
16
 66
1
 10
0.0000
 20
0.0000
 30
0.0000
 40
0.2540
 41
0.2540
 70
0
  0
VERTEX
  8
16
 10
3.3420
 20
-4.5720
 30
0.0000
  0
VERTEX
  8
16
 10
8.4870
 20
-4.5720
 30
0.0000
  0
SEQEND
  8
0
  0
POLYLINE
  8
16
 66
1
 10
0.0000
 20
0.0000
 30
0.0000
 40
0.1270
 41
0.1270
 70
0
  0
VERTEX
  8
16
 10
8.4870
 20
-4.6355
 30
0.0000
 42
1.0000
  0
VERTEX
  8
16
 10
8.4870
 20
-4.5085
 30
0.0000
  0
SEQEND
  8
0
  0
POLYLINE
  8
16
 66
1
 10
0.0000
 20
0.0000
 30
0.0000
 40
0.1270
 41
0.1270
 70
0
  0
VERTEX
  8
16
 10
3.3420
 20
-4.5085
 30
0.0000
 42
1.0000
  0
VERTEX
  8
16
 10
3.3420
 20
-4.6355
 30
0.0000
  0
SEQEND
  8
0
  0
POLYLINE
  8
16
 66
1
 10
0.0000
 20
0.0000
 30
0.0000
 40
0.2540
 41
0.2540
 70
0
  0
VERTEX
  8
16
 10
11.3730
 20
-4.5720
 30
0.0000
  0
VERTEX
  8
16
 10
15.1638
 20
-4.5720
 30
0.0000
  0
SEQEND
  8
0
  0
POLYLINE
  8
16
 66
1
 10
0.0000
 20
0.0000
 30
0.0000
 40
0.1270
 41
0.1270
 70
0
  0
VERTEX
  8
16
 10
15.1638
 20
-4.6355
 30
0.0000
 42
1.0000
  0
VERTEX
  8
16
 10
15.1638
 20
-4.5085
 30
0.0000
  0
SEQEND
  8
0
  0
POLYLINE
  8
16
 66
1
 10
0.0000
 20
0.0000
 30
0.0000
 40
0.1270
 41
0.1270
 70
0
  0
VERTEX
  8
16
 10
11.3730
 20
-4.5085
 30
0.0000
 42
1.0000
  0
VERTEX
  8
16
 10
11.3730
 20
-4.6355
 30
0.0000
  0
SEQEND
  8
0
  0
POLYLINE
  8
16
 66
1
 10
0.0000
 20
0.0000
 30
0.0000
 40
0.2540
 41
0.2540
 70
0
  0
VERTEX
  8
16
 10
-1.1938
 20
-4.3180
 30
0.0000
  0
VERTEX
  8
16
 10
0.4680
 20
-4.3180
 30
0.0000
  0
SEQEND
  8
0
  0
POLYLINE
  8
16
 66
1
 10
0.0000
 20
0.0000
 30
0.0000
 40
0.1270
 41
0.1270
 70
0
  0
VERTEX
  8
16
 10
0.4680
 20
-4.3815
 30
0.0000
 42
1.0000
  0
VERTEX
  8
16
 10
0.4680
 20
-4.2545
 30
0.0000
  0
SEQEND
  8
0
  0
POLYLINE
  8
16
 66
1
 10
0.0000
 20
0.0000
 30
0.0000
 40
0.1270
 41
0.1270
 70
0
  0
VERTEX
  8
16
 10
-1.1938
 20
-4.2545
 30
0.0000
 42
1.0000
  0
VERTEX
  8
16
 10
-1.1938
 20
-4.3815
 30
0.0000
  0
SEQEND
  8
0
  0
POLYLINE
  8
16
 66
1
 10
0.0000
 20
0.0000
 30
0.0000
 40
0.2540
 41
0.2540
 70
0
  0
VERTEX
  8
16
 10
3.3420
 20
-4.3180
 30
0.0000
  0
VERTEX
  8
16
 10
8.4870
 20
-4.3180
 30
0.0000
  0
SEQEND
  8
0
  0
POLYLINE
  8
16
 66
1
 10
0.0000
 20
0.0000
 30
0.0000
 40
0.1270
 41
0.1270
 70
0
  0
VERTEX
  8
16
 10
8.4870
 20
-4.3815
 30
0.0000
 42
1.0000
  0
VERTEX
  8
16
 10
8.4870
 20
-4.2545
 30
0.0000
  0
SEQEND
  8
0
  0
POLYLINE
  8
16
 66
1
 10
0.0000
 20
0.0000
 30
0.0000
 40
0.1270
 41
0.1270
 70
0
  0
VERTEX
  8
16
 10
3.3420
 20
-4.2545
 30
0.0000
 42
1.0000
  0
VERTEX
  8
16
 10
3.3420
 20
-4.3815
 30
0.0000
  0
SEQEND
  8
0
  0
POLYLINE
  8
16
 66
1
 10
0.0000
 20
0.0000
 30
0.0000
 40
0.2540
 41
0.2540
 70
0
  0
VERTEX
  8
16
 10
11.3730
 20
-4.3180
 30
0.0000
  0
VERTEX
  8
16
 10
15.1638
 20
-4.3180
 30
0.0000
  0
SEQEND
  8
0
  0
POLYLINE
  8
16
 66
1
 10
0.0000
 20
0.0000
 30
0.0000
 40
0.1270
 41
0.1270
 70
0
  0
VERTEX
  8
16
 10
15.1638
 20
-4.3815
 30
0.0000
 42
1.0000
  0
VERTEX
  8
16
 10
15.1638
 20
-4.2545
 30
0.0000
  0
SEQEND
  8
0
  0
POLYLINE
  8
16
 66
1
 10
0.0000
 20
0.0000
 30
0.0000
 40
0.1270
 41
0.1270
 70
0
  0
VERTEX
  8
16
 10
11.3730
 20
-4.2545
 30
0.0000
 42
1.0000
  0
VERTEX
  8
16
 10
11.3730
 20
-4.3815
 30
0.0000
  0
SEQEND
  8
0
  0
POLYLINE
  8
16
 66
1
 10
0.0000
 20
0.0000
 30
0.0000
 40
0.2540
 41
0.2540
 70
0
  0
VERTEX
  8
16
 10
-1.1938
 20
-4.0640
 30
0.0000
  0
VERTEX
  8
16
 10
0.4680
 20
-4.0640
 30
0.0000
  0
SEQEND
  8
0
  0
POLYLINE
  8
16
 66
1
 10
0.0000
 20
0.0000
 30
0.0000
 40
0.1270
 41
0.1270
 70
0
  0
VERTEX
  8
16
 10
0.4680
 20
-4.1275
 30
0.0000
 42
1.0000
  0
VERTEX
  8
16
 10
0.4680
 20
-4.0005
 30
0.0000
  0
SEQEND
  8
0
  0
POLYLINE
  8
16
 66
1
 10
0.0000
 20
0.0000
 30
0.0000
 40
0.1270
 41
0.1270
 70
0
  0
VERTEX
  8
16
 10
-1.1938
 20
-4.0005
 30
0.0000
 42
1.0000
  0
VERTEX
  8
16
 10
-1.1938
 20
-4.1275
 30
0.0000
  0
SEQEND
  8
0
  0
POLYLINE
  8
16
 66
1
 10
0.0000
 20
0.0000
 30
0.0000
 40
0.2540
 41
0.2540
 70
0
  0
VERTEX
  8
16
 10
3.3420
 20
-4.0640
 30
0.0000
  0
VERTEX
  8
16
 10
8.5611
 20
-4.0640
 30
0.0000
  0
SEQEND
  8
0
  0
POLYLINE
  8
16
 66
1
 10
0.0000
 20
0.0000
 30
0.0000
 40
0.1270
 41
0.1270
 70
0
  0
VERTEX
  8
16
 10
8.5611
 20
-4.1275
 30
0.0000
 42
1.0000
  0
VERTEX
  8
16
 10
8.5611
 20
-4.0005
 30
0.0000
  0
SEQEND
  8
0
  0
POLYLINE
  8
16
 66
1
 10
0.0000
 20
0.0000
 30
0.0000
 40
0.1270
 41
0.1270
 70
0
  0
VERTEX
  8
16
 10
3.3420
 20
-4.0005
 30
0.0000
 42
1.0000
  0
VERTEX
  8
16
 10
3.3420
 20
-4.1275
 30
0.0000
  0
SEQEND
  8
0
  0
POLYLINE
  8
16
 66
1
 10
0.0000
 20
0.0000
 30
0.0000
 40
0.2540
 41
0.2540
 70
0
  0
VERTEX
  8
16
 10
11.2989
 20
-4.0640
 30
0.0000
  0
VERTEX
  8
16
 10
15.1638
 20
-4.0640
 30
0.0000
  0
SEQEND
  8
0
  0
POLYLINE
  8
16
 66
1
 10
0.0000
 20
0.0000
 30
0.0000
 40
0.1270
 41
0.1270
 70
0
  0
VERTEX
  8
16
 10
15.1638
 20
-4.1275
 30
0.0000
 42
1.0000
  0
VERTEX
  8
16
 10
15.1638
 20
-4.0005
 30
0.0000
  0
SEQEND
  8
0
  0
POLYLINE
  8
16
 66
1
 10
0.0000
 20
0.0000
 30
0.0000
 40
0.1270
 41
0.1270
 70
0
  0
VERTEX
  8
16
 10
11.2989
 20
-4.0005
 30
0.0000
 42
1.0000
  0
VERTEX
  8
16
 10
11.2989
 20
-4.1275
 30
0.0000
  0
SEQEND
  8
0
  0
POLYLINE
  8
16
 66
1
 10
0.0000
 20
0.0000
 30
0.0000
 40
0.2540
 41
0.2540
 70
0
  0
VERTEX
  8
16
 10
-1.1938
 20
-3.8100
 30
0.0000
  0
VERTEX
  8
16
 10
0.4680
 20
-3.8100
 30
0.0000
  0
SEQEND
  8
0
  0
POLYLINE
  8
16
 66
1
 10
0.0000
 20
0.0000
 30
0.0000
 40
0.1270
 41
0.1270
 70
0
  0
VERTEX
  8
16
 10
0.4680
 20
-3.8735
 30
0.0000
 42
1.0000
  0
VERTEX
  8
16
 10
0.4680
 20
-3.7465
 30
0.0000
  0
SEQEND
  8
0
  0
POLYLINE
  8
16
 66
1
 10
0.0000
 20
0.0000
 30
0.0000
 40
0.1270
 41
0.1270
 70
0
  0
VERTEX
  8
16
 10
-1.1938
 20
-3.7465
 30
0.0000
 42
1.0000
  0
VERTEX
  8
16
 10
-1.1938
 20
-3.8735
 30
0.0000
  0
SEQEND
  8
0
  0
POLYLINE
  8
16
 66
1
 10
0.0000
 20
0.0000
 30
0.0000
 40
0.2540
 41
0.2540
 70
0
  0
VERTEX
  8
16
 10
3.3420
 20
-3.8100
 30
0.0000
  0
VERTEX
  8
16
 10
8.6663
 20
-3.8100
 30
0.0000
  0
SEQEND
  8
0
  0
POLYLINE
  8
16
 66
1
 10
0.0000
 20
0.0000
 30
0.0000
 40
0.1270
 41
0.1270
 70
0
  0
VERTEX
  8
16
 10
8.6663
 20
-3.8735
 30
0.0000
 42
1.0000
  0
VERTEX
  8
16
 10
8.6663
 20
-3.7465
 30
0.0000
  0
SEQEND
  8
0
  0
POLYLINE
  8
16
 66
1
 10
0.0000
 20
0.0000
 30
0.0000
 40
0.1270
 41
0.1270
 70
0
  0
VERTEX
  8
16
 10
3.3420
 20
-3.7465
 30
0.0000
 42
1.0000
  0
VERTEX
  8
16
 10
3.3420
 20
-3.8735
 30
0.0000
  0
SEQEND
  8
0
  0
POLYLINE
  8
16
 66
1
 10
0.0000
 20
0.0000
 30
0.0000
 40
0.2540
 41
0.2540
 70
0
  0
VERTEX
  8
16
 10
11.1937
 20
-3.8100
 30
0.0000
  0
VERTEX
  8
16
 10
15.1638
 20
-3.8100
 30
0.0000
  0
SEQEND
  8
0
  0
POLYLINE
  8
16
 66
1
 10
0.0000
 20
0.0000
 30
0.0000
 40
0.1270
 41
0.1270
 70
0
  0
VERTEX
  8
16
 10
15.1638
 20
-3.8735
 30
0.0000
 42
1.0000
  0
VERTEX
  8
16
 10
15.1638
 20
-3.7465
 30
0.0000
  0
SEQEND
  8
0
  0
POLYLINE
  8
16
 66
1
 10
0.0000
 20
0.0000
 30
0.0000
 40
0.1270
 41
0.1270
 70
0
  0
VERTEX
  8
16
 10
11.1937
 20
-3.7465
 30
0.0000
 42
1.0000
  0
VERTEX
  8
16
 10
11.1937
 20
-3.8735
 30
0.0000
  0
SEQEND
  8
0
  0
POLYLINE
  8
16
 66
1
 10
0.0000
 20
0.0000
 30
0.0000
 40
0.2540
 41
0.2540
 70
0
  0
VERTEX
  8
16
 10
-1.1938
 20
-3.5560
 30
0.0000
  0
VERTEX
  8
16
 10
0.4680
 20
-3.5560
 30
0.0000
  0
SEQEND
  8
0
  0
POLYLINE
  8
16
 66
1
 10
0.0000
 20
0.0000
 30
0.0000
 40
0.1270
 41
0.1270
 70
0
  0
VERTEX
  8
16
 10
0.4680
 20
-3.6195
 30
0.0000
 42
1.0000
  0
VERTEX
  8
16
 10
0.4680
 20
-3.4925
 30
0.0000
  0
SEQEND
  8
0
  0
POLYLINE
  8
16
 66
1
 10
0.0000
 20
0.0000
 30
0.0000
 40
0.1270
 41
0.1270
 70
0
  0
VERTEX
  8
16
 10
-1.1938
 20
-3.4925
 30
0.0000
 42
1.0000
  0
VERTEX
  8
16
 10
-1.1938
 20
-3.6195
 30
0.0000
  0
SEQEND
  8
0
  0
POLYLINE
  8
16
 66
1
 10
0.0000
 20
0.0000
 30
0.0000
 40
0.2540
 41
0.2540
 70
0
  0
VERTEX
  8
16
 10
3.3420
 20
-3.5560
 30
0.0000
  0
VERTEX
  8
16
 10
8.8633
 20
-3.5560
 30
0.0000
  0
SEQEND
  8
0
  0
POLYLINE
  8
16
 66
1
 10
0.0000
 20
0.0000
 30
0.0000
 40
0.1270
 41
0.1270
 70
0
  0
VERTEX
  8
16
 10
8.8633
 20
-3.6195
 30
0.0000
 42
1.0000
  0
VERTEX
  8
16
 10
8.8633
 20
-3.4925
 30
0.0000
  0
SEQEND
  8
0
  0
POLYLINE
  8
16
 66
1
 10
0.0000
 20
0.0000
 30
0.0000
 40
0.1270
 41
0.1270
 70
0
  0
VERTEX
  8
16
 10
3.3420
 20
-3.4925
 30
0.0000
 42
1.0000
  0
VERTEX
  8
16
 10
3.3420
 20
-3.6195
 30
0.0000
  0
SEQEND
  8
0
  0
POLYLINE
  8
16
 66
1
 10
0.0000
 20
0.0000
 30
0.0000
 40
0.2540
 41
0.2540
 70
0
  0
VERTEX
  8
16
 10
10.9967
 20
-3.5560
 30
0.0000
  0
VERTEX
  8
16
 10
15.1638
 20
-3.5560
 30
0.0000
  0
SEQEND
  8
0
  0
POLYLINE
  8
16
 66
1
 10
0.0000
 20
0.0000
 30
0.0000
 40
0.1270
 41
0.1270
 70
0
  0
VERTEX
  8
16
 10
15.1638
 20
-3.6195
 30
0.0000
 42
1.0000
  0
VERTEX
  8
16
 10
15.1638
 20
-3.4925
 30
0.0000
  0
SEQEND
  8
0
  0
POLYLINE
  8
16
 66
1
 10
0.0000
 20
0.0000
 30
0.0000
 40
0.1270
 41
0.1270
 70
0
  0
VERTEX
  8
16
 10
10.9967
 20
-3.4925
 30
0.0000
 42
1.0000
  0
VERTEX
  8
16
 10
10.9967
 20
-3.6195
 30
0.0000
  0
SEQEND
  8
0
  0
POLYLINE
  8
16
 66
1
 10
0.0000
 20
0.0000
 30
0.0000
 40
0.2540
 41
0.2540
 70
0
  0
VERTEX
  8
16
 10
-1.1938
 20
-3.3020
 30
0.0000
  0
VERTEX
  8
16
 10
0.4680
 20
-3.3020
 30
0.0000
  0
SEQEND
  8
0
  0
POLYLINE
  8
16
 66
1
 10
0.0000
 20
0.0000
 30
0.0000
 40
0.1270
 41
0.1270
 70
0
  0
VERTEX
  8
16
 10
0.4680
 20
-3.3655
 30
0.0000
 42
1.0000
  0
VERTEX
  8
16
 10
0.4680
 20
-3.2385
 30
0.0000
  0
SEQEND
  8
0
  0
POLYLINE
  8
16
 66
1
 10
0.0000
 20
0.0000
 30
0.0000
 40
0.1270
 41
0.1270
 70
0
  0
VERTEX
  8
16
 10
-1.1938
 20
-3.2385
 30
0.0000
 42
1.0000
  0
VERTEX
  8
16
 10
-1.1938
 20
-3.3655
 30
0.0000
  0
SEQEND
  8
0
  0
POLYLINE
  8
16
 66
1
 10
0.0000
 20
0.0000
 30
0.0000
 40
0.2540
 41
0.2540
 70
0
  0
VERTEX
  8
16
 10
3.3420
 20
-3.3020
 30
0.0000
  0
VERTEX
  8
16
 10
9.1239
 20
-3.3020
 30
0.0000
  0
SEQEND
  8
0
  0
POLYLINE
  8
16
 66
1
 10
0.0000
 20
0.0000
 30
0.0000
 40
0.1270
 41
0.1270
 70
0
  0
VERTEX
  8
16
 10
9.1239
 20
-3.3655
 30
0.0000
 42
1.0000
  0
VERTEX
  8
16
 10
9.1239
 20
-3.2385
 30
0.0000
  0
SEQEND
  8
0
  0
POLYLINE
  8
16
 66
1
 10
0.0000
 20
0.0000
 30
0.0000
 40
0.1270
 41
0.1270
 70
0
  0
VERTEX
  8
16
 10
3.3420
 20
-3.2385
 30
0.0000
 42
1.0000
  0
VERTEX
  8
16
 10
3.3420
 20
-3.3655
 30
0.0000
  0
SEQEND
  8
0
  0
POLYLINE
  8
16
 66
1
 10
0.0000
 20
0.0000
 30
0.0000
 40
0.2540
 41
0.2540
 70
0
  0
VERTEX
  8
16
 10
10.7361
 20
-3.3020
 30
0.0000
  0
VERTEX
  8
16
 10
15.1638
 20
-3.3020
 30
0.0000
  0
SEQEND
  8
0
  0
POLYLINE
  8
16
 66
1
 10
0.0000
 20
0.0000
 30
0.0000
 40
0.1270
 41
0.1270
 70
0
  0
VERTEX
  8
16
 10
15.1638
 20
-3.3655
 30
0.0000
 42
1.0000
  0
VERTEX
  8
16
 10
15.1638
 20
-3.2385
 30
0.0000
  0
SEQEND
  8
0
  0
POLYLINE
  8
16
 66
1
 10
0.0000
 20
0.0000
 30
0.0000
 40
0.1270
 41
0.1270
 70
0
  0
VERTEX
  8
16
 10
10.7361
 20
-3.2385
 30
0.0000
 42
1.0000
  0
VERTEX
  8
16
 10
10.7361
 20
-3.3655
 30
0.0000
  0
SEQEND
  8
0
  0
POLYLINE
  8
16
 66
1
 10
0.0000
 20
0.0000
 30
0.0000
 40
0.2540
 41
0.2540
 70
0
  0
VERTEX
  8
16
 10
-1.1938
 20
-3.0480
 30
0.0000
  0
VERTEX
  8
16
 10
0.4680
 20
-3.0480
 30
0.0000
  0
SEQEND
  8
0
  0
POLYLINE
  8
16
 66
1
 10
0.0000
 20
0.0000
 30
0.0000
 40
0.1270
 41
0.1270
 70
0
  0
VERTEX
  8
16
 10
0.4680
 20
-3.1115
 30
0.0000
 42
1.0000
  0
VERTEX
  8
16
 10
0.4680
 20
-2.9845
 30
0.0000
  0
SEQEND
  8
0
  0
POLYLINE
  8
16
 66
1
 10
0.0000
 20
0.0000
 30
0.0000
 40
0.1270
 41
0.1270
 70
0
  0
VERTEX
  8
16
 10
-1.1938
 20
-2.9845
 30
0.0000
 42
1.0000
  0
VERTEX
  8
16
 10
-1.1938
 20
-3.1115
 30
0.0000
  0
SEQEND
  8
0
  0
POLYLINE
  8
16
 66
1
 10
0.0000
 20
0.0000
 30
0.0000
 40
0.2540
 41
0.2540
 70
0
  0
VERTEX
  8
16
 10
3.3420
 20
-3.0480
 30
0.0000
  0
VERTEX
  8
16
 10
15.1638
 20
-3.0480
 30
0.0000
  0
SEQEND
  8
0
  0
POLYLINE
  8
16
 66
1
 10
0.0000
 20
0.0000
 30
0.0000
 40
0.1270
 41
0.1270
 70
0
  0
VERTEX
  8
16
 10
15.1638
 20
-3.1115
 30
0.0000
 42
1.0000
  0
VERTEX
  8
16
 10
15.1638
 20
-2.9845
 30
0.0000
  0
SEQEND
  8
0
  0
POLYLINE
  8
16
 66
1
 10
0.0000
 20
0.0000
 30
0.0000
 40
0.1270
 41
0.1270
 70
0
  0
VERTEX
  8
16
 10
3.3420
 20
-2.9845
 30
0.0000
 42
1.0000
  0
VERTEX
  8
16
 10
3.3420
 20
-3.1115
 30
0.0000
  0
SEQEND
  8
0
  0
POLYLINE
  8
16
 66
1
 10
0.0000
 20
0.0000
 30
0.0000
 40
0.2540
 41
0.2540
 70
0
  0
VERTEX
  8
16
 10
-1.1938
 20
-2.7940
 30
0.0000
  0
VERTEX
  8
16
 10
0.4680
 20
-2.7940
 30
0.0000
  0
SEQEND
  8
0
  0
POLYLINE
  8
16
 66
1
 10
0.0000
 20
0.0000
 30
0.0000
 40
0.1270
 41
0.1270
 70
0
  0
VERTEX
  8
16
 10
0.4680
 20
-2.8575
 30
0.0000
 42
1.0000
  0
VERTEX
  8
16
 10
0.4680
 20
-2.7305
 30
0.0000
  0
SEQEND
  8
0
  0
POLYLINE
  8
16
 66
1
 10
0.0000
 20
0.0000
 30
0.0000
 40
0.1270
 41
0.1270
 70
0
  0
VERTEX
  8
16
 10
-1.1938
 20
-2.7305
 30
0.0000
 42
1.0000
  0
VERTEX
  8
16
 10
-1.1938
 20
-2.8575
 30
0.0000
  0
SEQEND
  8
0
  0
POLYLINE
  8
16
 66
1
 10
0.0000
 20
0.0000
 30
0.0000
 40
0.2540
 41
0.2540
 70
0
  0
VERTEX
  8
16
 10
3.3420
 20
-2.7940
 30
0.0000
  0
VERTEX
  8
16
 10
15.1638
 20
-2.7940
 30
0.0000
  0
SEQEND
  8
0
  0
POLYLINE
  8
16
 66
1
 10
0.0000
 20
0.0000
 30
0.0000
 40
0.1270
 41
0.1270
 70
0
  0
VERTEX
  8
16
 10
15.1638
 20
-2.8575
 30
0.0000
 42
1.0000
  0
VERTEX
  8
16
 10
15.1638
 20
-2.7305
 30
0.0000
  0
SEQEND
  8
0
  0
POLYLINE
  8
16
 66
1
 10
0.0000
 20
0.0000
 30
0.0000
 40
0.1270
 41
0.1270
 70
0
  0
VERTEX
  8
16
 10
3.3420
 20
-2.7305
 30
0.0000
 42
1.0000
  0
VERTEX
  8
16
 10
3.3420
 20
-2.8575
 30
0.0000
  0
SEQEND
  8
0
  0
POLYLINE
  8
16
 66
1
 10
0.0000
 20
0.0000
 30
0.0000
 40
0.2540
 41
0.2540
 70
0
  0
VERTEX
  8
16
 10
-1.1938
 20
-2.5400
 30
0.0000
  0
VERTEX
  8
16
 10
0.4680
 20
-2.5400
 30
0.0000
  0
SEQEND
  8
0
  0
POLYLINE
  8
16
 66
1
 10
0.0000
 20
0.0000
 30
0.0000
 40
0.1270
 41
0.1270
 70
0
  0
VERTEX
  8
16
 10
0.4680
 20
-2.6035
 30
0.0000
 42
1.0000
  0
VERTEX
  8
16
 10
0.4680
 20
-2.4765
 30
0.0000
  0
SEQEND
  8
0
  0
POLYLINE
  8
16
 66
1
 10
0.0000
 20
0.0000
 30
0.0000
 40
0.1270
 41
0.1270
 70
0
  0
VERTEX
  8
16
 10
-1.1938
 20
-2.4765
 30
0.0000
 42
1.0000
  0
VERTEX
  8
16
 10
-1.1938
 20
-2.6035
 30
0.0000
  0
SEQEND
  8
0
  0
POLYLINE
  8
16
 66
1
 10
0.0000
 20
0.0000
 30
0.0000
 40
0.2540
 41
0.2540
 70
0
  0
VERTEX
  8
16
 10
3.3420
 20
-2.5400
 30
0.0000
  0
VERTEX
  8
16
 10
15.1638
 20
-2.5400
 30
0.0000
  0
SEQEND
  8
0
  0
POLYLINE
  8
16
 66
1
 10
0.0000
 20
0.0000
 30
0.0000
 40
0.1270
 41
0.1270
 70
0
  0
VERTEX
  8
16
 10
15.1638
 20
-2.6035
 30
0.0000
 42
1.0000
  0
VERTEX
  8
16
 10
15.1638
 20
-2.4765
 30
0.0000
  0
SEQEND
  8
0
  0
POLYLINE
  8
16
 66
1
 10
0.0000
 20
0.0000
 30
0.0000
 40
0.1270
 41
0.1270
 70
0
  0
VERTEX
  8
16
 10
3.3420
 20
-2.4765
 30
0.0000
 42
1.0000
  0
VERTEX
  8
16
 10
3.3420
 20
-2.6035
 30
0.0000
  0
SEQEND
  8
0
  0
POLYLINE
  8
16
 66
1
 10
0.0000
 20
0.0000
 30
0.0000
 40
0.2540
 41
0.2540
 70
0
  0
VERTEX
  8
16
 10
-1.1938
 20
-2.2860
 30
0.0000
  0
VERTEX
  8
16
 10
0.4680
 20
-2.2860
 30
0.0000
  0
SEQEND
  8
0
  0
POLYLINE
  8
16
 66
1
 10
0.0000
 20
0.0000
 30
0.0000
 40
0.1270
 41
0.1270
 70
0
  0
VERTEX
  8
16
 10
0.4680
 20
-2.3495
 30
0.0000
 42
1.0000
  0
VERTEX
  8
16
 10
0.4680
 20
-2.2225
 30
0.0000
  0
SEQEND
  8
0
  0
POLYLINE
  8
16
 66
1
 10
0.0000
 20
0.0000
 30
0.0000
 40
0.1270
 41
0.1270
 70
0
  0
VERTEX
  8
16
 10
-1.1938
 20
-2.2225
 30
0.0000
 42
1.0000
  0
VERTEX
  8
16
 10
-1.1938
 20
-2.3495
 30
0.0000
  0
SEQEND
  8
0
  0
POLYLINE
  8
16
 66
1
 10
0.0000
 20
0.0000
 30
0.0000
 40
0.2540
 41
0.2540
 70
0
  0
VERTEX
  8
16
 10
3.3420
 20
-2.2860
 30
0.0000
  0
VERTEX
  8
16
 10
15.1638
 20
-2.2860
 30
0.0000
  0
SEQEND
  8
0
  0
POLYLINE
  8
16
 66
1
 10
0.0000
 20
0.0000
 30
0.0000
 40
0.1270
 41
0.1270
 70
0
  0
VERTEX
  8
16
 10
15.1638
 20
-2.3495
 30
0.0000
 42
1.0000
  0
VERTEX
  8
16
 10
15.1638
 20
-2.2225
 30
0.0000
  0
SEQEND
  8
0
  0
POLYLINE
  8
16
 66
1
 10
0.0000
 20
0.0000
 30
0.0000
 40
0.1270
 41
0.1270
 70
0
  0
VERTEX
  8
16
 10
3.3420
 20
-2.2225
 30
0.0000
 42
1.0000
  0
VERTEX
  8
16
 10
3.3420
 20
-2.3495
 30
0.0000
  0
SEQEND
  8
0
  0
POLYLINE
  8
16
 66
1
 10
0.0000
 20
0.0000
 30
0.0000
 40
0.2540
 41
0.2540
 70
0
  0
VERTEX
  8
16
 10
-1.1938
 20
-2.0320
 30
0.0000
  0
VERTEX
  8
16
 10
0.4680
 20
-2.0320
 30
0.0000
  0
SEQEND
  8
0
  0
POLYLINE
  8
16
 66
1
 10
0.0000
 20
0.0000
 30
0.0000
 40
0.1270
 41
0.1270
 70
0
  0
VERTEX
  8
16
 10
0.4680
 20
-2.0955
 30
0.0000
 42
1.0000
  0
VERTEX
  8
16
 10
0.4680
 20
-1.9685
 30
0.0000
  0
SEQEND
  8
0
  0
POLYLINE
  8
16
 66
1
 10
0.0000
 20
0.0000
 30
0.0000
 40
0.1270
 41
0.1270
 70
0
  0
VERTEX
  8
16
 10
-1.1938
 20
-1.9685
 30
0.0000
 42
1.0000
  0
VERTEX
  8
16
 10
-1.1938
 20
-2.0955
 30
0.0000
  0
SEQEND
  8
0
  0
POLYLINE
  8
16
 66
1
 10
0.0000
 20
0.0000
 30
0.0000
 40
0.2540
 41
0.2540
 70
0
  0
VERTEX
  8
16
 10
3.3420
 20
-2.0320
 30
0.0000
  0
VERTEX
  8
16
 10
15.1638
 20
-2.0320
 30
0.0000
  0
SEQEND
  8
0
  0
POLYLINE
  8
16
 66
1
 10
0.0000
 20
0.0000
 30
0.0000
 40
0.1270
 41
0.1270
 70
0
  0
VERTEX
  8
16
 10
15.1638
 20
-2.0955
 30
0.0000
 42
1.0000
  0
VERTEX
  8
16
 10
15.1638
 20
-1.9685
 30
0.0000
  0
SEQEND
  8
0
  0
POLYLINE
  8
16
 66
1
 10
0.0000
 20
0.0000
 30
0.0000
 40
0.1270
 41
0.1270
 70
0
  0
VERTEX
  8
16
 10
3.3420
 20
-1.9685
 30
0.0000
 42
1.0000
  0
VERTEX
  8
16
 10
3.3420
 20
-2.0955
 30
0.0000
  0
SEQEND
  8
0
  0
POLYLINE
  8
16
 66
1
 10
0.0000
 20
0.0000
 30
0.0000
 40
0.2540
 41
0.2540
 70
0
  0
VERTEX
  8
16
 10
-1.1938
 20
-1.7780
 30
0.0000
  0
VERTEX
  8
16
 10
0.4680
 20
-1.7780
 30
0.0000
  0
SEQEND
  8
0
  0
POLYLINE
  8
16
 66
1
 10
0.0000
 20
0.0000
 30
0.0000
 40
0.1270
 41
0.1270
 70
0
  0
VERTEX
  8
16
 10
0.4680
 20
-1.8415
 30
0.0000
 42
1.0000
  0
VERTEX
  8
16
 10
0.4680
 20
-1.7145
 30
0.0000
  0
SEQEND
  8
0
  0
POLYLINE
  8
16
 66
1
 10
0.0000
 20
0.0000
 30
0.0000
 40
0.1270
 41
0.1270
 70
0
  0
VERTEX
  8
16
 10
-1.1938
 20
-1.7145
 30
0.0000
 42
1.0000
  0
VERTEX
  8
16
 10
-1.1938
 20
-1.8415
 30
0.0000
  0
SEQEND
  8
0
  0
POLYLINE
  8
16
 66
1
 10
0.0000
 20
0.0000
 30
0.0000
 40
0.2540
 41
0.2540
 70
0
  0
VERTEX
  8
16
 10
3.3420
 20
-1.7780
 30
0.0000
  0
VERTEX
  8
16
 10
15.1638
 20
-1.7780
 30
0.0000
  0
SEQEND
  8
0
  0
POLYLINE
  8
16
 66
1
 10
0.0000
 20
0.0000
 30
0.0000
 40
0.1270
 41
0.1270
 70
0
  0
VERTEX
  8
16
 10
15.1638
 20
-1.8415
 30
0.0000
 42
1.0000
  0
VERTEX
  8
16
 10
15.1638
 20
-1.7145
 30
0.0000
  0
SEQEND
  8
0
  0
POLYLINE
  8
16
 66
1
 10
0.0000
 20
0.0000
 30
0.0000
 40
0.1270
 41
0.1270
 70
0
  0
VERTEX
  8
16
 10
3.3420
 20
-1.7145
 30
0.0000
 42
1.0000
  0
VERTEX
  8
16
 10
3.3420
 20
-1.8415
 30
0.0000
  0
SEQEND
  8
0
  0
POLYLINE
  8
16
 66
1
 10
0.0000
 20
0.0000
 30
0.0000
 40
0.2540
 41
0.2540
 70
0
  0
VERTEX
  8
16
 10
-1.1938
 20
-1.5240
 30
0.0000
  0
VERTEX
  8
16
 10
0.4680
 20
-1.5240
 30
0.0000
  0
SEQEND
  8
0
  0
POLYLINE
  8
16
 66
1
 10
0.0000
 20
0.0000
 30
0.0000
 40
0.1270
 41
0.1270
 70
0
  0
VERTEX
  8
16
 10
0.4680
 20
-1.5875
 30
0.0000
 42
1.0000
  0
VERTEX
  8
16
 10
0.4680
 20
-1.4605
 30
0.0000
  0
SEQEND
  8
0
  0
POLYLINE
  8
16
 66
1
 10
0.0000
 20
0.0000
 30
0.0000
 40
0.1270
 41
0.1270
 70
0
  0
VERTEX
  8
16
 10
-1.1938
 20
-1.4605
 30
0.0000
 42
1.0000
  0
VERTEX
  8
16
 10
-1.1938
 20
-1.5875
 30
0.0000
  0
SEQEND
  8
0
  0
POLYLINE
  8
16
 66
1
 10
0.0000
 20
0.0000
 30
0.0000
 40
0.2540
 41
0.2540
 70
0
  0
VERTEX
  8
16
 10
3.3420
 20
-1.5240
 30
0.0000
  0
VERTEX
  8
16
 10
15.1638
 20
-1.5240
 30
0.0000
  0
SEQEND
  8
0
  0
POLYLINE
  8
16
 66
1
 10
0.0000
 20
0.0000
 30
0.0000
 40
0.1270
 41
0.1270
 70
0
  0
VERTEX
  8
16
 10
15.1638
 20
-1.5875
 30
0.0000
 42
1.0000
  0
VERTEX
  8
16
 10
15.1638
 20
-1.4605
 30
0.0000
  0
SEQEND
  8
0
  0
POLYLINE
  8
16
 66
1
 10
0.0000
 20
0.0000
 30
0.0000
 40
0.1270
 41
0.1270
 70
0
  0
VERTEX
  8
16
 10
3.3420
 20
-1.4605
 30
0.0000
 42
1.0000
  0
VERTEX
  8
16
 10
3.3420
 20
-1.5875
 30
0.0000
  0
SEQEND
  8
0
  0
POLYLINE
  8
16
 66
1
 10
0.0000
 20
0.0000
 30
0.0000
 40
0.2540
 41
0.2540
 70
0
  0
VERTEX
  8
16
 10
-1.1938
 20
-1.2700
 30
0.0000
  0
VERTEX
  8
16
 10
0.4680
 20
-1.2700
 30
0.0000
  0
SEQEND
  8
0
  0
POLYLINE
  8
16
 66
1
 10
0.0000
 20
0.0000
 30
0.0000
 40
0.1270
 41
0.1270
 70
0
  0
VERTEX
  8
16
 10
0.4680
 20
-1.3335
 30
0.0000
 42
1.0000
  0
VERTEX
  8
16
 10
0.4680
 20
-1.2065
 30
0.0000
  0
SEQEND
  8
0
  0
POLYLINE
  8
16
 66
1
 10
0.0000
 20
0.0000
 30
0.0000
 40
0.1270
 41
0.1270
 70
0
  0
VERTEX
  8
16
 10
-1.1938
 20
-1.2065
 30
0.0000
 42
1.0000
  0
VERTEX
  8
16
 10
-1.1938
 20
-1.3335
 30
0.0000
  0
SEQEND
  8
0
  0
POLYLINE
  8
16
 66
1
 10
0.0000
 20
0.0000
 30
0.0000
 40
0.2540
 41
0.2540
 70
0
  0
VERTEX
  8
16
 10
3.3420
 20
-1.2700
 30
0.0000
  0
VERTEX
  8
16
 10
15.1638
 20
-1.2700
 30
0.0000
  0
SEQEND
  8
0
  0
POLYLINE
  8
16
 66
1
 10
0.0000
 20
0.0000
 30
0.0000
 40
0.1270
 41
0.1270
 70
0
  0
VERTEX
  8
16
 10
15.1638
 20
-1.3335
 30
0.0000
 42
1.0000
  0
VERTEX
  8
16
 10
15.1638
 20
-1.2065
 30
0.0000
  0
SEQEND
  8
0
  0
POLYLINE
  8
16
 66
1
 10
0.0000
 20
0.0000
 30
0.0000
 40
0.1270
 41
0.1270
 70
0
  0
VERTEX
  8
16
 10
3.3420
 20
-1.2065
 30
0.0000
 42
1.0000
  0
VERTEX
  8
16
 10
3.3420
 20
-1.3335
 30
0.0000
  0
SEQEND
  8
0
  0
POLYLINE
  8
16
 66
1
 10
0.0000
 20
0.0000
 30
0.0000
 40
0.2540
 41
0.2540
 70
0
  0
VERTEX
  8
16
 10
-1.1938
 20
-1.0160
 30
0.0000
  0
VERTEX
  8
16
 10
0.4680
 20
-1.0160
 30
0.0000
  0
SEQEND
  8
0
  0
POLYLINE
  8
16
 66
1
 10
0.0000
 20
0.0000
 30
0.0000
 40
0.1270
 41
0.1270
 70
0
  0
VERTEX
  8
16
 10
0.4680
 20
-1.0795
 30
0.0000
 42
1.0000
  0
VERTEX
  8
16
 10
0.4680
 20
-0.9525
 30
0.0000
  0
SEQEND
  8
0
  0
POLYLINE
  8
16
 66
1
 10
0.0000
 20
0.0000
 30
0.0000
 40
0.1270
 41
0.1270
 70
0
  0
VERTEX
  8
16
 10
-1.1938
 20
-0.9525
 30
0.0000
 42
1.0000
  0
VERTEX
  8
16
 10
-1.1938
 20
-1.0795
 30
0.0000
  0
SEQEND
  8
0
  0
POLYLINE
  8
16
 66
1
 10
0.0000
 20
0.0000
 30
0.0000
 40
0.2540
 41
0.2540
 70
0
  0
VERTEX
  8
16
 10
3.3420
 20
-1.0160
 30
0.0000
  0
VERTEX
  8
16
 10
15.1638
 20
-1.0160
 30
0.0000
  0
SEQEND
  8
0
  0
POLYLINE
  8
16
 66
1
 10
0.0000
 20
0.0000
 30
0.0000
 40
0.1270
 41
0.1270
 70
0
  0
VERTEX
  8
16
 10
15.1638
 20
-1.0795
 30
0.0000
 42
1.0000
  0
VERTEX
  8
16
 10
15.1638
 20
-0.9525
 30
0.0000
  0
SEQEND
  8
0
  0
POLYLINE
  8
16
 66
1
 10
0.0000
 20
0.0000
 30
0.0000
 40
0.1270
 41
0.1270
 70
0
  0
VERTEX
  8
16
 10
3.3420
 20
-0.9525
 30
0.0000
 42
1.0000
  0
VERTEX
  8
16
 10
3.3420
 20
-1.0795
 30
0.0000
  0
SEQEND
  8
0
  0
POLYLINE
  8
16
 66
1
 10
0.0000
 20
0.0000
 30
0.0000
 40
0.2540
 41
0.2540
 70
0
  0
VERTEX
  8
16
 10
-1.1938
 20
-0.7620
 30
0.0000
  0
VERTEX
  8
16
 10
0.4680
 20
-0.7620
 30
0.0000
  0
SEQEND
  8
0
  0
POLYLINE
  8
16
 66
1
 10
0.0000
 20
0.0000
 30
0.0000
 40
0.1270
 41
0.1270
 70
0
  0
VERTEX
  8
16
 10
0.4680
 20
-0.8255
 30
0.0000
 42
1.0000
  0
VERTEX
  8
16
 10
0.4680
 20
-0.6985
 30
0.0000
  0
SEQEND
  8
0
  0
POLYLINE
  8
16
 66
1
 10
0.0000
 20
0.0000
 30
0.0000
 40
0.1270
 41
0.1270
 70
0
  0
VERTEX
  8
16
 10
-1.1938
 20
-0.6985
 30
0.0000
 42
1.0000
  0
VERTEX
  8
16
 10
-1.1938
 20
-0.8255
 30
0.0000
  0
SEQEND
  8
0
  0
POLYLINE
  8
16
 66
1
 10
0.0000
 20
0.0000
 30
0.0000
 40
0.2540
 41
0.2540
 70
0
  0
VERTEX
  8
16
 10
3.3420
 20
-0.7620
 30
0.0000
  0
VERTEX
  8
16
 10
15.1638
 20
-0.7620
 30
0.0000
  0
SEQEND
  8
0
  0
POLYLINE
  8
16
 66
1
 10
0.0000
 20
0.0000
 30
0.0000
 40
0.1270
 41
0.1270
 70
0
  0
VERTEX
  8
16
 10
15.1638
 20
-0.8255
 30
0.0000
 42
1.0000
  0
VERTEX
  8
16
 10
15.1638
 20
-0.6985
 30
0.0000
  0
SEQEND
  8
0
  0
POLYLINE
  8
16
 66
1
 10
0.0000
 20
0.0000
 30
0.0000
 40
0.1270
 41
0.1270
 70
0
  0
VERTEX
  8
16
 10
3.3420
 20
-0.6985
 30
0.0000
 42
1.0000
  0
VERTEX
  8
16
 10
3.3420
 20
-0.8255
 30
0.0000
  0
SEQEND
  8
0
  0
POLYLINE
  8
16
 66
1
 10
0.0000
 20
0.0000
 30
0.0000
 40
0.2540
 41
0.2540
 70
0
  0
VERTEX
  8
16
 10
-1.1938
 20
-0.5080
 30
0.0000
  0
VERTEX
  8
16
 10
0.4680
 20
-0.5080
 30
0.0000
  0
SEQEND
  8
0
  0
POLYLINE
  8
16
 66
1
 10
0.0000
 20
0.0000
 30
0.0000
 40
0.1270
 41
0.1270
 70
0
  0
VERTEX
  8
16
 10
0.4680
 20
-0.5715
 30
0.0000
 42
1.0000
  0
VERTEX
  8
16
 10
0.4680
 20
-0.4445
 30
0.0000
  0
SEQEND
  8
0
  0
POLYLINE
  8
16
 66
1
 10
0.0000
 20
0.0000
 30
0.0000
 40
0.1270
 41
0.1270
 70
0
  0
VERTEX
  8
16
 10
-1.1938
 20
-0.4445
 30
0.0000
 42
1.0000
  0
VERTEX
  8
16
 10
-1.1938
 20
-0.5715
 30
0.0000
  0
SEQEND
  8
0
  0
POLYLINE
  8
16
 66
1
 10
0.0000
 20
0.0000
 30
0.0000
 40
0.2540
 41
0.2540
 70
0
  0
VERTEX
  8
16
 10
3.3420
 20
-0.5080
 30
0.0000
  0
VERTEX
  8
16
 10
15.1638
 20
-0.5080
 30
0.0000
  0
SEQEND
  8
0
  0
POLYLINE
  8
16
 66
1
 10
0.0000
 20
0.0000
 30
0.0000
 40
0.1270
 41
0.1270
 70
0
  0
VERTEX
  8
16
 10
15.1638
 20
-0.5715
 30
0.0000
 42
1.0000
  0
VERTEX
  8
16
 10
15.1638
 20
-0.4445
 30
0.0000
  0
SEQEND
  8
0
  0
POLYLINE
  8
16
 66
1
 10
0.0000
 20
0.0000
 30
0.0000
 40
0.1270
 41
0.1270
 70
0
  0
VERTEX
  8
16
 10
3.3420
 20
-0.4445
 30
0.0000
 42
1.0000
  0
VERTEX
  8
16
 10
3.3420
 20
-0.5715
 30
0.0000
  0
SEQEND
  8
0
  0
POLYLINE
  8
16
 66
1
 10
0.0000
 20
0.0000
 30
0.0000
 40
0.2540
 41
0.2540
 70
0
  0
VERTEX
  8
16
 10
-1.1938
 20
-0.2540
 30
0.0000
  0
VERTEX
  8
16
 10
0.4680
 20
-0.2540
 30
0.0000
  0
SEQEND
  8
0
  0
POLYLINE
  8
16
 66
1
 10
0.0000
 20
0.0000
 30
0.0000
 40
0.1270
 41
0.1270
 70
0
  0
VERTEX
  8
16
 10
0.4680
 20
-0.3175
 30
0.0000
 42
1.0000
  0
VERTEX
  8
16
 10
0.4680
 20
-0.1905
 30
0.0000
  0
SEQEND
  8
0
  0
POLYLINE
  8
16
 66
1
 10
0.0000
 20
0.0000
 30
0.0000
 40
0.1270
 41
0.1270
 70
0
  0
VERTEX
  8
16
 10
-1.1938
 20
-0.1905
 30
0.0000
 42
1.0000
  0
VERTEX
  8
16
 10
-1.1938
 20
-0.3175
 30
0.0000
  0
SEQEND
  8
0
  0
POLYLINE
  8
16
 66
1
 10
0.0000
 20
0.0000
 30
0.0000
 40
0.2540
 41
0.2540
 70
0
  0
VERTEX
  8
16
 10
3.3420
 20
-0.2540
 30
0.0000
  0
VERTEX
  8
16
 10
15.1638
 20
-0.2540
 30
0.0000
  0
SEQEND
  8
0
  0
POLYLINE
  8
16
 66
1
 10
0.0000
 20
0.0000
 30
0.0000
 40
0.1270
 41
0.1270
 70
0
  0
VERTEX
  8
16
 10
15.1638
 20
-0.3175
 30
0.0000
 42
1.0000
  0
VERTEX
  8
16
 10
15.1638
 20
-0.1905
 30
0.0000
  0
SEQEND
  8
0
  0
POLYLINE
  8
16
 66
1
 10
0.0000
 20
0.0000
 30
0.0000
 40
0.1270
 41
0.1270
 70
0
  0
VERTEX
  8
16
 10
3.3420
 20
-0.1905
 30
0.0000
 42
1.0000
  0
VERTEX
  8
16
 10
3.3420
 20
-0.3175
 30
0.0000
  0
SEQEND
  8
0
  0
POLYLINE
  8
16
 66
1
 10
0.0000
 20
0.0000
 30
0.0000
 40
0.2540
 41
0.2540
 70
0
  0
VERTEX
  8
16
 10
-1.1938
 20
0.0000
 30
0.0000
  0
VERTEX
  8
16
 10
0.4680
 20
0.0000
 30
0.0000
  0
SEQEND
  8
0
  0
POLYLINE
  8
16
 66
1
 10
0.0000
 20
0.0000
 30
0.0000
 40
0.1270
 41
0.1270
 70
0
  0
VERTEX
  8
16
 10
0.4680
 20
-0.0635
 30
0.0000
 42
1.0000
  0
VERTEX
  8
16
 10
0.4680
 20
0.0635
 30
0.0000
  0
SEQEND
  8
0
  0
POLYLINE
  8
16
 66
1
 10
0.0000
 20
0.0000
 30
0.0000
 40
0.1270
 41
0.1270
 70
0
  0
VERTEX
  8
16
 10
-1.1938
 20
0.0635
 30
0.0000
 42
1.0000
  0
VERTEX
  8
16
 10
-1.1938
 20
-0.0635
 30
0.0000
  0
SEQEND
  8
0
  0
POLYLINE
  8
16
 66
1
 10
0.0000
 20
0.0000
 30
0.0000
 40
0.2540
 41
0.2540
 70
0
  0
VERTEX
  8
16
 10
3.3420
 20
0.0000
 30
0.0000
  0
VERTEX
  8
16
 10
15.1638
 20
0.0000
 30
0.0000
  0
SEQEND
  8
0
  0
POLYLINE
  8
16
 66
1
 10
0.0000
 20
0.0000
 30
0.0000
 40
0.1270
 41
0.1270
 70
0
  0
VERTEX
  8
16
 10
15.1638
 20
-0.0635
 30
0.0000
 42
1.0000
  0
VERTEX
  8
16
 10
15.1638
 20
0.0635
 30
0.0000
  0
SEQEND
  8
0
  0
POLYLINE
  8
16
 66
1
 10
0.0000
 20
0.0000
 30
0.0000
 40
0.1270
 41
0.1270
 70
0
  0
VERTEX
  8
16
 10
3.3420
 20
0.0635
 30
0.0000
 42
1.0000
  0
VERTEX
  8
16
 10
3.3420
 20
-0.0635
 30
0.0000
  0
SEQEND
  8
0
  0
POLYLINE
  8
16
 66
1
 10
0.0000
 20
0.0000
 30
0.0000
 40
0.2540
 41
0.2540
 70
0
  0
VERTEX
  8
16
 10
-1.1938
 20
0.2540
 30
0.0000
  0
VERTEX
  8
16
 10
0.4680
 20
0.2540
 30
0.0000
  0
SEQEND
  8
0
  0
POLYLINE
  8
16
 66
1
 10
0.0000
 20
0.0000
 30
0.0000
 40
0.1270
 41
0.1270
 70
0
  0
VERTEX
  8
16
 10
0.4680
 20
0.1905
 30
0.0000
 42
1.0000
  0
VERTEX
  8
16
 10
0.4680
 20
0.3175
 30
0.0000
  0
SEQEND
  8
0
  0
POLYLINE
  8
16
 66
1
 10
0.0000
 20
0.0000
 30
0.0000
 40
0.1270
 41
0.1270
 70
0
  0
VERTEX
  8
16
 10
-1.1938
 20
0.3175
 30
0.0000
 42
1.0000
  0
VERTEX
  8
16
 10
-1.1938
 20
0.1905
 30
0.0000
  0
SEQEND
  8
0
  0
POLYLINE
  8
16
 66
1
 10
0.0000
 20
0.0000
 30
0.0000
 40
0.2540
 41
0.2540
 70
0
  0
VERTEX
  8
16
 10
3.3420
 20
0.2540
 30
0.0000
  0
VERTEX
  8
16
 10
15.1638
 20
0.2540
 30
0.0000
  0
SEQEND
  8
0
  0
POLYLINE
  8
16
 66
1
 10
0.0000
 20
0.0000
 30
0.0000
 40
0.1270
 41
0.1270
 70
0
  0
VERTEX
  8
16
 10
15.1638
 20
0.1905
 30
0.0000
 42
1.0000
  0
VERTEX
  8
16
 10
15.1638
 20
0.3175
 30
0.0000
  0
SEQEND
  8
0
  0
POLYLINE
  8
16
 66
1
 10
0.0000
 20
0.0000
 30
0.0000
 40
0.1270
 41
0.1270
 70
0
  0
VERTEX
  8
16
 10
3.3420
 20
0.3175
 30
0.0000
 42
1.0000
  0
VERTEX
  8
16
 10
3.3420
 20
0.1905
 30
0.0000
  0
SEQEND
  8
0
  0
POLYLINE
  8
16
 66
1
 10
0.0000
 20
0.0000
 30
0.0000
 40
0.2540
 41
0.2540
 70
0
  0
VERTEX
  8
16
 10
-1.1938
 20
0.5080
 30
0.0000
  0
VERTEX
  8
16
 10
0.4680
 20
0.5080
 30
0.0000
  0
SEQEND
  8
0
  0
POLYLINE
  8
16
 66
1
 10
0.0000
 20
0.0000
 30
0.0000
 40
0.1270
 41
0.1270
 70
0
  0
VERTEX
  8
16
 10
0.4680
 20
0.4445
 30
0.0000
 42
1.0000
  0
VERTEX
  8
16
 10
0.4680
 20
0.5715
 30
0.0000
  0
SEQEND
  8
0
  0
POLYLINE
  8
16
 66
1
 10
0.0000
 20
0.0000
 30
0.0000
 40
0.1270
 41
0.1270
 70
0
  0
VERTEX
  8
16
 10
-1.1938
 20
0.5715
 30
0.0000
 42
1.0000
  0
VERTEX
  8
16
 10
-1.1938
 20
0.4445
 30
0.0000
  0
SEQEND
  8
0
  0
POLYLINE
  8
16
 66
1
 10
0.0000
 20
0.0000
 30
0.0000
 40
0.2540
 41
0.2540
 70
0
  0
VERTEX
  8
16
 10
3.3420
 20
0.5080
 30
0.0000
  0
VERTEX
  8
16
 10
15.1638
 20
0.5080
 30
0.0000
  0
SEQEND
  8
0
  0
POLYLINE
  8
16
 66
1
 10
0.0000
 20
0.0000
 30
0.0000
 40
0.1270
 41
0.1270
 70
0
  0
VERTEX
  8
16
 10
15.1638
 20
0.4445
 30
0.0000
 42
1.0000
  0
VERTEX
  8
16
 10
15.1638
 20
0.5715
 30
0.0000
  0
SEQEND
  8
0
  0
POLYLINE
  8
16
 66
1
 10
0.0000
 20
0.0000
 30
0.0000
 40
0.1270
 41
0.1270
 70
0
  0
VERTEX
  8
16
 10
3.3420
 20
0.5715
 30
0.0000
 42
1.0000
  0
VERTEX
  8
16
 10
3.3420
 20
0.4445
 30
0.0000
  0
SEQEND
  8
0
  0
POLYLINE
  8
16
 66
1
 10
0.0000
 20
0.0000
 30
0.0000
 40
0.2540
 41
0.2540
 70
0
  0
VERTEX
  8
16
 10
-1.1938
 20
0.7620
 30
0.0000
  0
VERTEX
  8
16
 10
0.4680
 20
0.7620
 30
0.0000
  0
SEQEND
  8
0
  0
POLYLINE
  8
16
 66
1
 10
0.0000
 20
0.0000
 30
0.0000
 40
0.1270
 41
0.1270
 70
0
  0
VERTEX
  8
16
 10
0.4680
 20
0.6985
 30
0.0000
 42
1.0000
  0
VERTEX
  8
16
 10
0.4680
 20
0.8255
 30
0.0000
  0
SEQEND
  8
0
  0
POLYLINE
  8
16
 66
1
 10
0.0000
 20
0.0000
 30
0.0000
 40
0.1270
 41
0.1270
 70
0
  0
VERTEX
  8
16
 10
-1.1938
 20
0.8255
 30
0.0000
 42
1.0000
  0
VERTEX
  8
16
 10
-1.1938
 20
0.6985
 30
0.0000
  0
SEQEND
  8
0
  0
POLYLINE
  8
16
 66
1
 10
0.0000
 20
0.0000
 30
0.0000
 40
0.2540
 41
0.2540
 70
0
  0
VERTEX
  8
16
 10
3.3420
 20
0.7620
 30
0.0000
  0
VERTEX
  8
16
 10
15.1638
 20
0.7620
 30
0.0000
  0
SEQEND
  8
0
  0
POLYLINE
  8
16
 66
1
 10
0.0000
 20
0.0000
 30
0.0000
 40
0.1270
 41
0.1270
 70
0
  0
VERTEX
  8
16
 10
15.1638
 20
0.6985
 30
0.0000
 42
1.0000
  0
VERTEX
  8
16
 10
15.1638
 20
0.8255
 30
0.0000
  0
SEQEND
  8
0
  0
POLYLINE
  8
16
 66
1
 10
0.0000
 20
0.0000
 30
0.0000
 40
0.1270
 41
0.1270
 70
0
  0
VERTEX
  8
16
 10
3.3420
 20
0.8255
 30
0.0000
 42
1.0000
  0
VERTEX
  8
16
 10
3.3420
 20
0.6985
 30
0.0000
  0
SEQEND
  8
0
  0
POLYLINE
  8
16
 66
1
 10
0.0000
 20
0.0000
 30
0.0000
 40
0.2540
 41
0.2540
 70
0
  0
VERTEX
  8
16
 10
-1.1938
 20
1.0160
 30
0.0000
  0
VERTEX
  8
16
 10
0.4680
 20
1.0160
 30
0.0000
  0
SEQEND
  8
0
  0
POLYLINE
  8
16
 66
1
 10
0.0000
 20
0.0000
 30
0.0000
 40
0.1270
 41
0.1270
 70
0
  0
VERTEX
  8
16
 10
0.4680
 20
0.9525
 30
0.0000
 42
1.0000
  0
VERTEX
  8
16
 10
0.4680
 20
1.0795
 30
0.0000
  0
SEQEND
  8
0
  0
POLYLINE
  8
16
 66
1
 10
0.0000
 20
0.0000
 30
0.0000
 40
0.1270
 41
0.1270
 70
0
  0
VERTEX
  8
16
 10
-1.1938
 20
1.0795
 30
0.0000
 42
1.0000
  0
VERTEX
  8
16
 10
-1.1938
 20
0.9525
 30
0.0000
  0
SEQEND
  8
0
  0
POLYLINE
  8
16
 66
1
 10
0.0000
 20
0.0000
 30
0.0000
 40
0.2540
 41
0.2540
 70
0
  0
VERTEX
  8
16
 10
3.3420
 20
1.0160
 30
0.0000
  0
VERTEX
  8
16
 10
15.1638
 20
1.0160
 30
0.0000
  0
SEQEND
  8
0
  0
POLYLINE
  8
16
 66
1
 10
0.0000
 20
0.0000
 30
0.0000
 40
0.1270
 41
0.1270
 70
0
  0
VERTEX
  8
16
 10
15.1638
 20
0.9525
 30
0.0000
 42
1.0000
  0
VERTEX
  8
16
 10
15.1638
 20
1.0795
 30
0.0000
  0
SEQEND
  8
0
  0
POLYLINE
  8
16
 66
1
 10
0.0000
 20
0.0000
 30
0.0000
 40
0.1270
 41
0.1270
 70
0
  0
VERTEX
  8
16
 10
3.3420
 20
1.0795
 30
0.0000
 42
1.0000
  0
VERTEX
  8
16
 10
3.3420
 20
0.9525
 30
0.0000
  0
SEQEND
  8
0
  0
POLYLINE
  8
16
 66
1
 10
0.0000
 20
0.0000
 30
0.0000
 40
0.2540
 41
0.2540
 70
0
  0
VERTEX
  8
16
 10
-1.1938
 20
1.2700
 30
0.0000
  0
VERTEX
  8
16
 10
0.4680
 20
1.2700
 30
0.0000
  0
SEQEND
  8
0
  0
POLYLINE
  8
16
 66
1
 10
0.0000
 20
0.0000
 30
0.0000
 40
0.1270
 41
0.1270
 70
0
  0
VERTEX
  8
16
 10
0.4680
 20
1.2065
 30
0.0000
 42
1.0000
  0
VERTEX
  8
16
 10
0.4680
 20
1.3335
 30
0.0000
  0
SEQEND
  8
0
  0
POLYLINE
  8
16
 66
1
 10
0.0000
 20
0.0000
 30
0.0000
 40
0.1270
 41
0.1270
 70
0
  0
VERTEX
  8
16
 10
-1.1938
 20
1.3335
 30
0.0000
 42
1.0000
  0
VERTEX
  8
16
 10
-1.1938
 20
1.2065
 30
0.0000
  0
SEQEND
  8
0
  0
POLYLINE
  8
16
 66
1
 10
0.0000
 20
0.0000
 30
0.0000
 40
0.2540
 41
0.2540
 70
0
  0
VERTEX
  8
16
 10
3.3420
 20
1.2700
 30
0.0000
  0
VERTEX
  8
16
 10
15.1638
 20
1.2700
 30
0.0000
  0
SEQEND
  8
0
  0
POLYLINE
  8
16
 66
1
 10
0.0000
 20
0.0000
 30
0.0000
 40
0.1270
 41
0.1270
 70
0
  0
VERTEX
  8
16
 10
15.1638
 20
1.2065
 30
0.0000
 42
1.0000
  0
VERTEX
  8
16
 10
15.1638
 20
1.3335
 30
0.0000
  0
SEQEND
  8
0
  0
POLYLINE
  8
16
 66
1
 10
0.0000
 20
0.0000
 30
0.0000
 40
0.1270
 41
0.1270
 70
0
  0
VERTEX
  8
16
 10
3.3420
 20
1.3335
 30
0.0000
 42
1.0000
  0
VERTEX
  8
16
 10
3.3420
 20
1.2065
 30
0.0000
  0
SEQEND
  8
0
  0
POLYLINE
  8
16
 66
1
 10
0.0000
 20
0.0000
 30
0.0000
 40
0.2540
 41
0.2540
 70
0
  0
VERTEX
  8
16
 10
-1.1938
 20
1.5240
 30
0.0000
  0
VERTEX
  8
16
 10
0.4680
 20
1.5240
 30
0.0000
  0
SEQEND
  8
0
  0
POLYLINE
  8
16
 66
1
 10
0.0000
 20
0.0000
 30
0.0000
 40
0.1270
 41
0.1270
 70
0
  0
VERTEX
  8
16
 10
0.4680
 20
1.4605
 30
0.0000
 42
1.0000
  0
VERTEX
  8
16
 10
0.4680
 20
1.5875
 30
0.0000
  0
SEQEND
  8
0
  0
POLYLINE
  8
16
 66
1
 10
0.0000
 20
0.0000
 30
0.0000
 40
0.1270
 41
0.1270
 70
0
  0
VERTEX
  8
16
 10
-1.1938
 20
1.5875
 30
0.0000
 42
1.0000
  0
VERTEX
  8
16
 10
-1.1938
 20
1.4605
 30
0.0000
  0
SEQEND
  8
0
  0
POLYLINE
  8
16
 66
1
 10
0.0000
 20
0.0000
 30
0.0000
 40
0.2540
 41
0.2540
 70
0
  0
VERTEX
  8
16
 10
3.3420
 20
1.5240
 30
0.0000
  0
VERTEX
  8
16
 10
15.1638
 20
1.5240
 30
0.0000
  0
SEQEND
  8
0
  0
POLYLINE
  8
16
 66
1
 10
0.0000
 20
0.0000
 30
0.0000
 40
0.1270
 41
0.1270
 70
0
  0
VERTEX
  8
16
 10
15.1638
 20
1.4605
 30
0.0000
 42
1.0000
  0
VERTEX
  8
16
 10
15.1638
 20
1.5875
 30
0.0000
  0
SEQEND
  8
0
  0
POLYLINE
  8
16
 66
1
 10
0.0000
 20
0.0000
 30
0.0000
 40
0.1270
 41
0.1270
 70
0
  0
VERTEX
  8
16
 10
3.3420
 20
1.5875
 30
0.0000
 42
1.0000
  0
VERTEX
  8
16
 10
3.3420
 20
1.4605
 30
0.0000
  0
SEQEND
  8
0
  0
POLYLINE
  8
16
 66
1
 10
0.0000
 20
0.0000
 30
0.0000
 40
0.2540
 41
0.2540
 70
0
  0
VERTEX
  8
16
 10
-1.1938
 20
1.7780
 30
0.0000
  0
VERTEX
  8
16
 10
0.4680
 20
1.7780
 30
0.0000
  0
SEQEND
  8
0
  0
POLYLINE
  8
16
 66
1
 10
0.0000
 20
0.0000
 30
0.0000
 40
0.1270
 41
0.1270
 70
0
  0
VERTEX
  8
16
 10
0.4680
 20
1.7145
 30
0.0000
 42
1.0000
  0
VERTEX
  8
16
 10
0.4680
 20
1.8415
 30
0.0000
  0
SEQEND
  8
0
  0
POLYLINE
  8
16
 66
1
 10
0.0000
 20
0.0000
 30
0.0000
 40
0.1270
 41
0.1270
 70
0
  0
VERTEX
  8
16
 10
-1.1938
 20
1.8415
 30
0.0000
 42
1.0000
  0
VERTEX
  8
16
 10
-1.1938
 20
1.7145
 30
0.0000
  0
SEQEND
  8
0
  0
POLYLINE
  8
16
 66
1
 10
0.0000
 20
0.0000
 30
0.0000
 40
0.2540
 41
0.2540
 70
0
  0
VERTEX
  8
16
 10
3.3420
 20
1.7780
 30
0.0000
  0
VERTEX
  8
16
 10
15.1638
 20
1.7780
 30
0.0000
  0
SEQEND
  8
0
  0
POLYLINE
  8
16
 66
1
 10
0.0000
 20
0.0000
 30
0.0000
 40
0.1270
 41
0.1270
 70
0
  0
VERTEX
  8
16
 10
15.1638
 20
1.7145
 30
0.0000
 42
1.0000
  0
VERTEX
  8
16
 10
15.1638
 20
1.8415
 30
0.0000
  0
SEQEND
  8
0
  0
POLYLINE
  8
16
 66
1
 10
0.0000
 20
0.0000
 30
0.0000
 40
0.1270
 41
0.1270
 70
0
  0
VERTEX
  8
16
 10
3.3420
 20
1.8415
 30
0.0000
 42
1.0000
  0
VERTEX
  8
16
 10
3.3420
 20
1.7145
 30
0.0000
  0
SEQEND
  8
0
  0
POLYLINE
  8
16
 66
1
 10
0.0000
 20
0.0000
 30
0.0000
 40
0.2540
 41
0.2540
 70
0
  0
VERTEX
  8
16
 10
-1.1938
 20
2.0320
 30
0.0000
  0
VERTEX
  8
16
 10
0.4680
 20
2.0320
 30
0.0000
  0
SEQEND
  8
0
  0
POLYLINE
  8
16
 66
1
 10
0.0000
 20
0.0000
 30
0.0000
 40
0.1270
 41
0.1270
 70
0
  0
VERTEX
  8
16
 10
0.4680
 20
1.9685
 30
0.0000
 42
1.0000
  0
VERTEX
  8
16
 10
0.4680
 20
2.0955
 30
0.0000
  0
SEQEND
  8
0
  0
POLYLINE
  8
16
 66
1
 10
0.0000
 20
0.0000
 30
0.0000
 40
0.1270
 41
0.1270
 70
0
  0
VERTEX
  8
16
 10
-1.1938
 20
2.0955
 30
0.0000
 42
1.0000
  0
VERTEX
  8
16
 10
-1.1938
 20
1.9685
 30
0.0000
  0
SEQEND
  8
0
  0
POLYLINE
  8
16
 66
1
 10
0.0000
 20
0.0000
 30
0.0000
 40
0.2540
 41
0.2540
 70
0
  0
VERTEX
  8
16
 10
3.3420
 20
2.0320
 30
0.0000
  0
VERTEX
  8
16
 10
15.1638
 20
2.0320
 30
0.0000
  0
SEQEND
  8
0
  0
POLYLINE
  8
16
 66
1
 10
0.0000
 20
0.0000
 30
0.0000
 40
0.1270
 41
0.1270
 70
0
  0
VERTEX
  8
16
 10
15.1638
 20
1.9685
 30
0.0000
 42
1.0000
  0
VERTEX
  8
16
 10
15.1638
 20
2.0955
 30
0.0000
  0
SEQEND
  8
0
  0
POLYLINE
  8
16
 66
1
 10
0.0000
 20
0.0000
 30
0.0000
 40
0.1270
 41
0.1270
 70
0
  0
VERTEX
  8
16
 10
3.3420
 20
2.0955
 30
0.0000
 42
1.0000
  0
VERTEX
  8
16
 10
3.3420
 20
1.9685
 30
0.0000
  0
SEQEND
  8
0
  0
POLYLINE
  8
16
 66
1
 10
0.0000
 20
0.0000
 30
0.0000
 40
0.2540
 41
0.2540
 70
0
  0
VERTEX
  8
16
 10
-1.1938
 20
2.2860
 30
0.0000
  0
VERTEX
  8
16
 10
0.4680
 20
2.2860
 30
0.0000
  0
SEQEND
  8
0
  0
POLYLINE
  8
16
 66
1
 10
0.0000
 20
0.0000
 30
0.0000
 40
0.1270
 41
0.1270
 70
0
  0
VERTEX
  8
16
 10
0.4680
 20
2.2225
 30
0.0000
 42
1.0000
  0
VERTEX
  8
16
 10
0.4680
 20
2.3495
 30
0.0000
  0
SEQEND
  8
0
  0
POLYLINE
  8
16
 66
1
 10
0.0000
 20
0.0000
 30
0.0000
 40
0.1270
 41
0.1270
 70
0
  0
VERTEX
  8
16
 10
-1.1938
 20
2.3495
 30
0.0000
 42
1.0000
  0
VERTEX
  8
16
 10
-1.1938
 20
2.2225
 30
0.0000
  0
SEQEND
  8
0
  0
POLYLINE
  8
16
 66
1
 10
0.0000
 20
0.0000
 30
0.0000
 40
0.2540
 41
0.2540
 70
0
  0
VERTEX
  8
16
 10
3.3420
 20
2.2860
 30
0.0000
  0
VERTEX
  8
16
 10
15.1638
 20
2.2860
 30
0.0000
  0
SEQEND
  8
0
  0
POLYLINE
  8
16
 66
1
 10
0.0000
 20
0.0000
 30
0.0000
 40
0.1270
 41
0.1270
 70
0
  0
VERTEX
  8
16
 10
15.1638
 20
2.2225
 30
0.0000
 42
1.0000
  0
VERTEX
  8
16
 10
15.1638
 20
2.3495
 30
0.0000
  0
SEQEND
  8
0
  0
POLYLINE
  8
16
 66
1
 10
0.0000
 20
0.0000
 30
0.0000
 40
0.1270
 41
0.1270
 70
0
  0
VERTEX
  8
16
 10
3.3420
 20
2.3495
 30
0.0000
 42
1.0000
  0
VERTEX
  8
16
 10
3.3420
 20
2.2225
 30
0.0000
  0
SEQEND
  8
0
  0
POLYLINE
  8
16
 66
1
 10
0.0000
 20
0.0000
 30
0.0000
 40
0.2540
 41
0.2540
 70
0
  0
VERTEX
  8
16
 10
-1.1938
 20
2.5400
 30
0.0000
  0
VERTEX
  8
16
 10
0.4680
 20
2.5400
 30
0.0000
  0
SEQEND
  8
0
  0
POLYLINE
  8
16
 66
1
 10
0.0000
 20
0.0000
 30
0.0000
 40
0.1270
 41
0.1270
 70
0
  0
VERTEX
  8
16
 10
0.4680
 20
2.4765
 30
0.0000
 42
1.0000
  0
VERTEX
  8
16
 10
0.4680
 20
2.6035
 30
0.0000
  0
SEQEND
  8
0
  0
POLYLINE
  8
16
 66
1
 10
0.0000
 20
0.0000
 30
0.0000
 40
0.1270
 41
0.1270
 70
0
  0
VERTEX
  8
16
 10
-1.1938
 20
2.6035
 30
0.0000
 42
1.0000
  0
VERTEX
  8
16
 10
-1.1938
 20
2.4765
 30
0.0000
  0
SEQEND
  8
0
  0
POLYLINE
  8
16
 66
1
 10
0.0000
 20
0.0000
 30
0.0000
 40
0.2540
 41
0.2540
 70
0
  0
VERTEX
  8
16
 10
3.3420
 20
2.5400
 30
0.0000
  0
VERTEX
  8
16
 10
15.1638
 20
2.5400
 30
0.0000
  0
SEQEND
  8
0
  0
POLYLINE
  8
16
 66
1
 10
0.0000
 20
0.0000
 30
0.0000
 40
0.1270
 41
0.1270
 70
0
  0
VERTEX
  8
16
 10
15.1638
 20
2.4765
 30
0.0000
 42
1.0000
  0
VERTEX
  8
16
 10
15.1638
 20
2.6035
 30
0.0000
  0
SEQEND
  8
0
  0
POLYLINE
  8
16
 66
1
 10
0.0000
 20
0.0000
 30
0.0000
 40
0.1270
 41
0.1270
 70
0
  0
VERTEX
  8
16
 10
3.3420
 20
2.6035
 30
0.0000
 42
1.0000
  0
VERTEX
  8
16
 10
3.3420
 20
2.4765
 30
0.0000
  0
SEQEND
  8
0
  0
POLYLINE
  8
16
 66
1
 10
0.0000
 20
0.0000
 30
0.0000
 40
0.2540
 41
0.2540
 70
0
  0
VERTEX
  8
16
 10
-1.1938
 20
2.7940
 30
0.0000
  0
VERTEX
  8
16
 10
0.4680
 20
2.7940
 30
0.0000
  0
SEQEND
  8
0
  0
POLYLINE
  8
16
 66
1
 10
0.0000
 20
0.0000
 30
0.0000
 40
0.1270
 41
0.1270
 70
0
  0
VERTEX
  8
16
 10
0.4680
 20
2.7305
 30
0.0000
 42
1.0000
  0
VERTEX
  8
16
 10
0.4680
 20
2.8575
 30
0.0000
  0
SEQEND
  8
0
  0
POLYLINE
  8
16
 66
1
 10
0.0000
 20
0.0000
 30
0.0000
 40
0.1270
 41
0.1270
 70
0
  0
VERTEX
  8
16
 10
-1.1938
 20
2.8575
 30
0.0000
 42
1.0000
  0
VERTEX
  8
16
 10
-1.1938
 20
2.7305
 30
0.0000
  0
SEQEND
  8
0
  0
POLYLINE
  8
16
 66
1
 10
0.0000
 20
0.0000
 30
0.0000
 40
0.2540
 41
0.2540
 70
0
  0
VERTEX
  8
16
 10
3.3420
 20
2.7940
 30
0.0000
  0
VERTEX
  8
16
 10
15.1638
 20
2.7940
 30
0.0000
  0
SEQEND
  8
0
  0
POLYLINE
  8
16
 66
1
 10
0.0000
 20
0.0000
 30
0.0000
 40
0.1270
 41
0.1270
 70
0
  0
VERTEX
  8
16
 10
15.1638
 20
2.7305
 30
0.0000
 42
1.0000
  0
VERTEX
  8
16
 10
15.1638
 20
2.8575
 30
0.0000
  0
SEQEND
  8
0
  0
POLYLINE
  8
16
 66
1
 10
0.0000
 20
0.0000
 30
0.0000
 40
0.1270
 41
0.1270
 70
0
  0
VERTEX
  8
16
 10
3.3420
 20
2.8575
 30
0.0000
 42
1.0000
  0
VERTEX
  8
16
 10
3.3420
 20
2.7305
 30
0.0000
  0
SEQEND
  8
0
  0
POLYLINE
  8
16
 66
1
 10
0.0000
 20
0.0000
 30
0.0000
 40
0.2540
 41
0.2540
 70
0
  0
VERTEX
  8
16
 10
-1.1938
 20
3.0480
 30
0.0000
  0
VERTEX
  8
16
 10
0.4680
 20
3.0480
 30
0.0000
  0
SEQEND
  8
0
  0
POLYLINE
  8
16
 66
1
 10
0.0000
 20
0.0000
 30
0.0000
 40
0.1270
 41
0.1270
 70
0
  0
VERTEX
  8
16
 10
0.4680
 20
2.9845
 30
0.0000
 42
1.0000
  0
VERTEX
  8
16
 10
0.4680
 20
3.1115
 30
0.0000
  0
SEQEND
  8
0
  0
POLYLINE
  8
16
 66
1
 10
0.0000
 20
0.0000
 30
0.0000
 40
0.1270
 41
0.1270
 70
0
  0
VERTEX
  8
16
 10
-1.1938
 20
3.1115
 30
0.0000
 42
1.0000
  0
VERTEX
  8
16
 10
-1.1938
 20
2.9845
 30
0.0000
  0
SEQEND
  8
0
  0
POLYLINE
  8
16
 66
1
 10
0.0000
 20
0.0000
 30
0.0000
 40
0.2540
 41
0.2540
 70
0
  0
VERTEX
  8
16
 10
3.3420
 20
3.0480
 30
0.0000
  0
VERTEX
  8
16
 10
15.1638
 20
3.0480
 30
0.0000
  0
SEQEND
  8
0
  0
POLYLINE
  8
16
 66
1
 10
0.0000
 20
0.0000
 30
0.0000
 40
0.1270
 41
0.1270
 70
0
  0
VERTEX
  8
16
 10
15.1638
 20
2.9845
 30
0.0000
 42
1.0000
  0
VERTEX
  8
16
 10
15.1638
 20
3.1115
 30
0.0000
  0
SEQEND
  8
0
  0
POLYLINE
  8
16
 66
1
 10
0.0000
 20
0.0000
 30
0.0000
 40
0.1270
 41
0.1270
 70
0
  0
VERTEX
  8
16
 10
3.3420
 20
3.1115
 30
0.0000
 42
1.0000
  0
VERTEX
  8
16
 10
3.3420
 20
2.9845
 30
0.0000
  0
SEQEND
  8
0
  0
POLYLINE
  8
16
 66
1
 10
0.0000
 20
0.0000
 30
0.0000
 40
0.2540
 41
0.2540
 70
0
  0
VERTEX
  8
16
 10
-1.1938
 20
3.3020
 30
0.0000
  0
VERTEX
  8
16
 10
0.4680
 20
3.3020
 30
0.0000
  0
SEQEND
  8
0
  0
POLYLINE
  8
16
 66
1
 10
0.0000
 20
0.0000
 30
0.0000
 40
0.1270
 41
0.1270
 70
0
  0
VERTEX
  8
16
 10
0.4680
 20
3.2385
 30
0.0000
 42
1.0000
  0
VERTEX
  8
16
 10
0.4680
 20
3.3655
 30
0.0000
  0
SEQEND
  8
0
  0
POLYLINE
  8
16
 66
1
 10
0.0000
 20
0.0000
 30
0.0000
 40
0.1270
 41
0.1270
 70
0
  0
VERTEX
  8
16
 10
-1.1938
 20
3.3655
 30
0.0000
 42
1.0000
  0
VERTEX
  8
16
 10
-1.1938
 20
3.2385
 30
0.0000
  0
SEQEND
  8
0
  0
POLYLINE
  8
16
 66
1
 10
0.0000
 20
0.0000
 30
0.0000
 40
0.2540
 41
0.2540
 70
0
  0
VERTEX
  8
16
 10
3.3420
 20
3.3020
 30
0.0000
  0
VERTEX
  8
16
 10
15.1638
 20
3.3020
 30
0.0000
  0
SEQEND
  8
0
  0
POLYLINE
  8
16
 66
1
 10
0.0000
 20
0.0000
 30
0.0000
 40
0.1270
 41
0.1270
 70
0
  0
VERTEX
  8
16
 10
15.1638
 20
3.2385
 30
0.0000
 42
1.0000
  0
VERTEX
  8
16
 10
15.1638
 20
3.3655
 30
0.0000
  0
SEQEND
  8
0
  0
POLYLINE
  8
16
 66
1
 10
0.0000
 20
0.0000
 30
0.0000
 40
0.1270
 41
0.1270
 70
0
  0
VERTEX
  8
16
 10
3.3420
 20
3.3655
 30
0.0000
 42
1.0000
  0
VERTEX
  8
16
 10
3.3420
 20
3.2385
 30
0.0000
  0
SEQEND
  8
0
  0
POLYLINE
  8
16
 66
1
 10
0.0000
 20
0.0000
 30
0.0000
 40
0.2540
 41
0.2540
 70
0
  0
VERTEX
  8
16
 10
-1.1938
 20
3.5560
 30
0.0000
  0
VERTEX
  8
16
 10
0.4680
 20
3.5560
 30
0.0000
  0
SEQEND
  8
0
  0
POLYLINE
  8
16
 66
1
 10
0.0000
 20
0.0000
 30
0.0000
 40
0.1270
 41
0.1270
 70
0
  0
VERTEX
  8
16
 10
0.4680
 20
3.4925
 30
0.0000
 42
1.0000
  0
VERTEX
  8
16
 10
0.4680
 20
3.6195
 30
0.0000
  0
SEQEND
  8
0
  0
POLYLINE
  8
16
 66
1
 10
0.0000
 20
0.0000
 30
0.0000
 40
0.1270
 41
0.1270
 70
0
  0
VERTEX
  8
16
 10
-1.1938
 20
3.6195
 30
0.0000
 42
1.0000
  0
VERTEX
  8
16
 10
-1.1938
 20
3.4925
 30
0.0000
  0
SEQEND
  8
0
  0
POLYLINE
  8
16
 66
1
 10
0.0000
 20
0.0000
 30
0.0000
 40
0.2540
 41
0.2540
 70
0
  0
VERTEX
  8
16
 10
3.3420
 20
3.5560
 30
0.0000
  0
VERTEX
  8
16
 10
15.1638
 20
3.5560
 30
0.0000
  0
SEQEND
  8
0
  0
POLYLINE
  8
16
 66
1
 10
0.0000
 20
0.0000
 30
0.0000
 40
0.1270
 41
0.1270
 70
0
  0
VERTEX
  8
16
 10
15.1638
 20
3.4925
 30
0.0000
 42
1.0000
  0
VERTEX
  8
16
 10
15.1638
 20
3.6195
 30
0.0000
  0
SEQEND
  8
0
  0
POLYLINE
  8
16
 66
1
 10
0.0000
 20
0.0000
 30
0.0000
 40
0.1270
 41
0.1270
 70
0
  0
VERTEX
  8
16
 10
3.3420
 20
3.6195
 30
0.0000
 42
1.0000
  0
VERTEX
  8
16
 10
3.3420
 20
3.4925
 30
0.0000
  0
SEQEND
  8
0
  0
POLYLINE
  8
16
 66
1
 10
0.0000
 20
0.0000
 30
0.0000
 40
0.2540
 41
0.2540
 70
0
  0
VERTEX
  8
16
 10
-1.1938
 20
3.8100
 30
0.0000
  0
VERTEX
  8
16
 10
0.4680
 20
3.8100
 30
0.0000
  0
SEQEND
  8
0
  0
POLYLINE
  8
16
 66
1
 10
0.0000
 20
0.0000
 30
0.0000
 40
0.1270
 41
0.1270
 70
0
  0
VERTEX
  8
16
 10
0.4680
 20
3.7465
 30
0.0000
 42
1.0000
  0
VERTEX
  8
16
 10
0.4680
 20
3.8735
 30
0.0000
  0
SEQEND
  8
0
  0
POLYLINE
  8
16
 66
1
 10
0.0000
 20
0.0000
 30
0.0000
 40
0.1270
 41
0.1270
 70
0
  0
VERTEX
  8
16
 10
-1.1938
 20
3.8735
 30
0.0000
 42
1.0000
  0
VERTEX
  8
16
 10
-1.1938
 20
3.7465
 30
0.0000
  0
SEQEND
  8
0
  0
POLYLINE
  8
16
 66
1
 10
0.0000
 20
0.0000
 30
0.0000
 40
0.2540
 41
0.2540
 70
0
  0
VERTEX
  8
16
 10
3.3420
 20
3.8100
 30
0.0000
  0
VERTEX
  8
16
 10
15.1638
 20
3.8100
 30
0.0000
  0
SEQEND
  8
0
  0
POLYLINE
  8
16
 66
1
 10
0.0000
 20
0.0000
 30
0.0000
 40
0.1270
 41
0.1270
 70
0
  0
VERTEX
  8
16
 10
15.1638
 20
3.7465
 30
0.0000
 42
1.0000
  0
VERTEX
  8
16
 10
15.1638
 20
3.8735
 30
0.0000
  0
SEQEND
  8
0
  0
POLYLINE
  8
16
 66
1
 10
0.0000
 20
0.0000
 30
0.0000
 40
0.1270
 41
0.1270
 70
0
  0
VERTEX
  8
16
 10
3.3420
 20
3.8735
 30
0.0000
 42
1.0000
  0
VERTEX
  8
16
 10
3.3420
 20
3.7465
 30
0.0000
  0
SEQEND
  8
0
  0
POLYLINE
  8
16
 66
1
 10
0.0000
 20
0.0000
 30
0.0000
 40
0.2540
 41
0.2540
 70
0
  0
VERTEX
  8
16
 10
-1.1938
 20
4.0640
 30
0.0000
  0
VERTEX
  8
16
 10
0.4680
 20
4.0640
 30
0.0000
  0
SEQEND
  8
0
  0
POLYLINE
  8
16
 66
1
 10
0.0000
 20
0.0000
 30
0.0000
 40
0.1270
 41
0.1270
 70
0
  0
VERTEX
  8
16
 10
0.4680
 20
4.0005
 30
0.0000
 42
1.0000
  0
VERTEX
  8
16
 10
0.4680
 20
4.1275
 30
0.0000
  0
SEQEND
  8
0
  0
POLYLINE
  8
16
 66
1
 10
0.0000
 20
0.0000
 30
0.0000
 40
0.1270
 41
0.1270
 70
0
  0
VERTEX
  8
16
 10
-1.1938
 20
4.1275
 30
0.0000
 42
1.0000
  0
VERTEX
  8
16
 10
-1.1938
 20
4.0005
 30
0.0000
  0
SEQEND
  8
0
  0
POLYLINE
  8
16
 66
1
 10
0.0000
 20
0.0000
 30
0.0000
 40
0.2540
 41
0.2540
 70
0
  0
VERTEX
  8
16
 10
3.3420
 20
4.0640
 30
0.0000
  0
VERTEX
  8
16
 10
15.1638
 20
4.0640
 30
0.0000
  0
SEQEND
  8
0
  0
POLYLINE
  8
16
 66
1
 10
0.0000
 20
0.0000
 30
0.0000
 40
0.1270
 41
0.1270
 70
0
  0
VERTEX
  8
16
 10
15.1638
 20
4.0005
 30
0.0000
 42
1.0000
  0
VERTEX
  8
16
 10
15.1638
 20
4.1275
 30
0.0000
  0
SEQEND
  8
0
  0
POLYLINE
  8
16
 66
1
 10
0.0000
 20
0.0000
 30
0.0000
 40
0.1270
 41
0.1270
 70
0
  0
VERTEX
  8
16
 10
3.3420
 20
4.1275
 30
0.0000
 42
1.0000
  0
VERTEX
  8
16
 10
3.3420
 20
4.0005
 30
0.0000
  0
SEQEND
  8
0
  0
POLYLINE
  8
16
 66
1
 10
0.0000
 20
0.0000
 30
0.0000
 40
0.2540
 41
0.2540
 70
0
  0
VERTEX
  8
16
 10
-1.1938
 20
4.3180
 30
0.0000
  0
VERTEX
  8
16
 10
0.4680
 20
4.3180
 30
0.0000
  0
SEQEND
  8
0
  0
POLYLINE
  8
16
 66
1
 10
0.0000
 20
0.0000
 30
0.0000
 40
0.1270
 41
0.1270
 70
0
  0
VERTEX
  8
16
 10
0.4680
 20
4.2545
 30
0.0000
 42
1.0000
  0
VERTEX
  8
16
 10
0.4680
 20
4.3815
 30
0.0000
  0
SEQEND
  8
0
  0
POLYLINE
  8
16
 66
1
 10
0.0000
 20
0.0000
 30
0.0000
 40
0.1270
 41
0.1270
 70
0
  0
VERTEX
  8
16
 10
-1.1938
 20
4.3815
 30
0.0000
 42
1.0000
  0
VERTEX
  8
16
 10
-1.1938
 20
4.2545
 30
0.0000
  0
SEQEND
  8
0
  0
POLYLINE
  8
16
 66
1
 10
0.0000
 20
0.0000
 30
0.0000
 40
0.2540
 41
0.2540
 70
0
  0
VERTEX
  8
16
 10
3.3420
 20
4.3180
 30
0.0000
  0
VERTEX
  8
16
 10
15.1638
 20
4.3180
 30
0.0000
  0
SEQEND
  8
0
  0
POLYLINE
  8
16
 66
1
 10
0.0000
 20
0.0000
 30
0.0000
 40
0.1270
 41
0.1270
 70
0
  0
VERTEX
  8
16
 10
15.1638
 20
4.2545
 30
0.0000
 42
1.0000
  0
VERTEX
  8
16
 10
15.1638
 20
4.3815
 30
0.0000
  0
SEQEND
  8
0
  0
POLYLINE
  8
16
 66
1
 10
0.0000
 20
0.0000
 30
0.0000
 40
0.1270
 41
0.1270
 70
0
  0
VERTEX
  8
16
 10
3.3420
 20
4.3815
 30
0.0000
 42
1.0000
  0
VERTEX
  8
16
 10
3.3420
 20
4.2545
 30
0.0000
  0
SEQEND
  8
0
  0
POLYLINE
  8
16
 66
1
 10
0.0000
 20
0.0000
 30
0.0000
 40
0.2540
 41
0.2540
 70
0
  0
VERTEX
  8
16
 10
-1.1938
 20
4.5720
 30
0.0000
  0
VERTEX
  8
16
 10
0.4680
 20
4.5720
 30
0.0000
  0
SEQEND
  8
0
  0
POLYLINE
  8
16
 66
1
 10
0.0000
 20
0.0000
 30
0.0000
 40
0.1270
 41
0.1270
 70
0
  0
VERTEX
  8
16
 10
0.4680
 20
4.5085
 30
0.0000
 42
1.0000
  0
VERTEX
  8
16
 10
0.4680
 20
4.6355
 30
0.0000
  0
SEQEND
  8
0
  0
POLYLINE
  8
16
 66
1
 10
0.0000
 20
0.0000
 30
0.0000
 40
0.1270
 41
0.1270
 70
0
  0
VERTEX
  8
16
 10
-1.1938
 20
4.6355
 30
0.0000
 42
1.0000
  0
VERTEX
  8
16
 10
-1.1938
 20
4.5085
 30
0.0000
  0
SEQEND
  8
0
  0
POLYLINE
  8
16
 66
1
 10
0.0000
 20
0.0000
 30
0.0000
 40
0.2540
 41
0.2540
 70
0
  0
VERTEX
  8
16
 10
3.3420
 20
4.5720
 30
0.0000
  0
VERTEX
  8
16
 10
15.1638
 20
4.5720
 30
0.0000
  0
SEQEND
  8
0
  0
POLYLINE
  8
16
 66
1
 10
0.0000
 20
0.0000
 30
0.0000
 40
0.1270
 41
0.1270
 70
0
  0
VERTEX
  8
16
 10
15.1638
 20
4.5085
 30
0.0000
 42
1.0000
  0
VERTEX
  8
16
 10
15.1638
 20
4.6355
 30
0.0000
  0
SEQEND
  8
0
  0
POLYLINE
  8
16
 66
1
 10
0.0000
 20
0.0000
 30
0.0000
 40
0.1270
 41
0.1270
 70
0
  0
VERTEX
  8
16
 10
3.3420
 20
4.6355
 30
0.0000
 42
1.0000
  0
VERTEX
  8
16
 10
3.3420
 20
4.5085
 30
0.0000
  0
SEQEND
  8
0
  0
POLYLINE
  8
16
 66
1
 10
0.0000
 20
0.0000
 30
0.0000
 40
0.2540
 41
0.2540
 70
0
  0
VERTEX
  8
16
 10
-1.1938
 20
4.8260
 30
0.0000
  0
VERTEX
  8
16
 10
0.4680
 20
4.8260
 30
0.0000
  0
SEQEND
  8
0
  0
POLYLINE
  8
16
 66
1
 10
0.0000
 20
0.0000
 30
0.0000
 40
0.1270
 41
0.1270
 70
0
  0
VERTEX
  8
16
 10
0.4680
 20
4.7625
 30
0.0000
 42
1.0000
  0
VERTEX
  8
16
 10
0.4680
 20
4.8895
 30
0.0000
  0
SEQEND
  8
0
  0
POLYLINE
  8
16
 66
1
 10
0.0000
 20
0.0000
 30
0.0000
 40
0.1270
 41
0.1270
 70
0
  0
VERTEX
  8
16
 10
-1.1938
 20
4.8895
 30
0.0000
 42
1.0000
  0
VERTEX
  8
16
 10
-1.1938
 20
4.7625
 30
0.0000
  0
SEQEND
  8
0
  0
POLYLINE
  8
16
 66
1
 10
0.0000
 20
0.0000
 30
0.0000
 40
0.2540
 41
0.2540
 70
0
  0
VERTEX
  8
16
 10
3.3420
 20
4.8260
 30
0.0000
  0
VERTEX
  8
16
 10
15.1638
 20
4.8260
 30
0.0000
  0
SEQEND
  8
0
  0
POLYLINE
  8
16
 66
1
 10
0.0000
 20
0.0000
 30
0.0000
 40
0.1270
 41
0.1270
 70
0
  0
VERTEX
  8
16
 10
15.1638
 20
4.7625
 30
0.0000
 42
1.0000
  0
VERTEX
  8
16
 10
15.1638
 20
4.8895
 30
0.0000
  0
SEQEND
  8
0
  0
POLYLINE
  8
16
 66
1
 10
0.0000
 20
0.0000
 30
0.0000
 40
0.1270
 41
0.1270
 70
0
  0
VERTEX
  8
16
 10
3.3420
 20
4.8895
 30
0.0000
 42
1.0000
  0
VERTEX
  8
16
 10
3.3420
 20
4.7625
 30
0.0000
  0
SEQEND
  8
0
  0
POLYLINE
  8
16
 66
1
 10
0.0000
 20
0.0000
 30
0.0000
 40
0.2540
 41
0.2540
 70
0
  0
VERTEX
  8
16
 10
-1.1938
 20
5.0800
 30
0.0000
  0
VERTEX
  8
16
 10
0.4680
 20
5.0800
 30
0.0000
  0
SEQEND
  8
0
  0
POLYLINE
  8
16
 66
1
 10
0.0000
 20
0.0000
 30
0.0000
 40
0.1270
 41
0.1270
 70
0
  0
VERTEX
  8
16
 10
0.4680
 20
5.0165
 30
0.0000
 42
1.0000
  0
VERTEX
  8
16
 10
0.4680
 20
5.1435
 30
0.0000
  0
SEQEND
  8
0
  0
POLYLINE
  8
16
 66
1
 10
0.0000
 20
0.0000
 30
0.0000
 40
0.1270
 41
0.1270
 70
0
  0
VERTEX
  8
16
 10
-1.1938
 20
5.1435
 30
0.0000
 42
1.0000
  0
VERTEX
  8
16
 10
-1.1938
 20
5.0165
 30
0.0000
  0
SEQEND
  8
0
  0
POLYLINE
  8
16
 66
1
 10
0.0000
 20
0.0000
 30
0.0000
 40
0.2540
 41
0.2540
 70
0
  0
VERTEX
  8
16
 10
3.3420
 20
5.0800
 30
0.0000
  0
VERTEX
  8
16
 10
15.1638
 20
5.0800
 30
0.0000
  0
SEQEND
  8
0
  0
POLYLINE
  8
16
 66
1
 10
0.0000
 20
0.0000
 30
0.0000
 40
0.1270
 41
0.1270
 70
0
  0
VERTEX
  8
16
 10
15.1638
 20
5.0165
 30
0.0000
 42
1.0000
  0
VERTEX
  8
16
 10
15.1638
 20
5.1435
 30
0.0000
  0
SEQEND
  8
0
  0
POLYLINE
  8
16
 66
1
 10
0.0000
 20
0.0000
 30
0.0000
 40
0.1270
 41
0.1270
 70
0
  0
VERTEX
  8
16
 10
3.3420
 20
5.1435
 30
0.0000
 42
1.0000
  0
VERTEX
  8
16
 10
3.3420
 20
5.0165
 30
0.0000
  0
SEQEND
  8
0
  0
POLYLINE
  8
16
 66
1
 10
0.0000
 20
0.0000
 30
0.0000
 40
0.2540
 41
0.2540
 70
0
  0
VERTEX
  8
16
 10
-1.1938
 20
5.3340
 30
0.0000
  0
VERTEX
  8
16
 10
0.4680
 20
5.3340
 30
0.0000
  0
SEQEND
  8
0
  0
POLYLINE
  8
16
 66
1
 10
0.0000
 20
0.0000
 30
0.0000
 40
0.1270
 41
0.1270
 70
0
  0
VERTEX
  8
16
 10
0.4680
 20
5.2705
 30
0.0000
 42
1.0000
  0
VERTEX
  8
16
 10
0.4680
 20
5.3975
 30
0.0000
  0
SEQEND
  8
0
  0
POLYLINE
  8
16
 66
1
 10
0.0000
 20
0.0000
 30
0.0000
 40
0.1270
 41
0.1270
 70
0
  0
VERTEX
  8
16
 10
-1.1938
 20
5.3975
 30
0.0000
 42
1.0000
  0
VERTEX
  8
16
 10
-1.1938
 20
5.2705
 30
0.0000
  0
SEQEND
  8
0
  0
POLYLINE
  8
16
 66
1
 10
0.0000
 20
0.0000
 30
0.0000
 40
0.2540
 41
0.2540
 70
0
  0
VERTEX
  8
16
 10
3.3420
 20
5.3340
 30
0.0000
  0
VERTEX
  8
16
 10
15.1638
 20
5.3340
 30
0.0000
  0
SEQEND
  8
0
  0
POLYLINE
  8
16
 66
1
 10
0.0000
 20
0.0000
 30
0.0000
 40
0.1270
 41
0.1270
 70
0
  0
VERTEX
  8
16
 10
15.1638
 20
5.2705
 30
0.0000
 42
1.0000
  0
VERTEX
  8
16
 10
15.1638
 20
5.3975
 30
0.0000
  0
SEQEND
  8
0
  0
POLYLINE
  8
16
 66
1
 10
0.0000
 20
0.0000
 30
0.0000
 40
0.1270
 41
0.1270
 70
0
  0
VERTEX
  8
16
 10
3.3420
 20
5.3975
 30
0.0000
 42
1.0000
  0
VERTEX
  8
16
 10
3.3420
 20
5.2705
 30
0.0000
  0
SEQEND
  8
0
  0
POLYLINE
  8
16
 66
1
 10
0.0000
 20
0.0000
 30
0.0000
 40
0.2540
 41
0.2540
 70
0
  0
VERTEX
  8
16
 10
-1.1938
 20
5.5880
 30
0.0000
  0
VERTEX
  8
16
 10
0.4680
 20
5.5880
 30
0.0000
  0
SEQEND
  8
0
  0
POLYLINE
  8
16
 66
1
 10
0.0000
 20
0.0000
 30
0.0000
 40
0.1270
 41
0.1270
 70
0
  0
VERTEX
  8
16
 10
0.4680
 20
5.5245
 30
0.0000
 42
1.0000
  0
VERTEX
  8
16
 10
0.4680
 20
5.6515
 30
0.0000
  0
SEQEND
  8
0
  0
POLYLINE
  8
16
 66
1
 10
0.0000
 20
0.0000
 30
0.0000
 40
0.1270
 41
0.1270
 70
0
  0
VERTEX
  8
16
 10
-1.1938
 20
5.6515
 30
0.0000
 42
1.0000
  0
VERTEX
  8
16
 10
-1.1938
 20
5.5245
 30
0.0000
  0
SEQEND
  8
0
  0
POLYLINE
  8
16
 66
1
 10
0.0000
 20
0.0000
 30
0.0000
 40
0.2540
 41
0.2540
 70
0
  0
VERTEX
  8
16
 10
3.3420
 20
5.5880
 30
0.0000
  0
VERTEX
  8
16
 10
15.1638
 20
5.5880
 30
0.0000
  0
SEQEND
  8
0
  0
POLYLINE
  8
16
 66
1
 10
0.0000
 20
0.0000
 30
0.0000
 40
0.1270
 41
0.1270
 70
0
  0
VERTEX
  8
16
 10
15.1638
 20
5.5245
 30
0.0000
 42
1.0000
  0
VERTEX
  8
16
 10
15.1638
 20
5.6515
 30
0.0000
  0
SEQEND
  8
0
  0
POLYLINE
  8
16
 66
1
 10
0.0000
 20
0.0000
 30
0.0000
 40
0.1270
 41
0.1270
 70
0
  0
VERTEX
  8
16
 10
3.3420
 20
5.6515
 30
0.0000
 42
1.0000
  0
VERTEX
  8
16
 10
3.3420
 20
5.5245
 30
0.0000
  0
SEQEND
  8
0
  0
POLYLINE
  8
16
 66
1
 10
0.0000
 20
0.0000
 30
0.0000
 40
0.2540
 41
0.2540
 70
0
  0
VERTEX
  8
16
 10
-1.1938
 20
5.8420
 30
0.0000
  0
VERTEX
  8
16
 10
0.4680
 20
5.8420
 30
0.0000
  0
SEQEND
  8
0
  0
POLYLINE
  8
16
 66
1
 10
0.0000
 20
0.0000
 30
0.0000
 40
0.1270
 41
0.1270
 70
0
  0
VERTEX
  8
16
 10
0.4680
 20
5.7785
 30
0.0000
 42
1.0000
  0
VERTEX
  8
16
 10
0.4680
 20
5.9055
 30
0.0000
  0
SEQEND
  8
0
  0
POLYLINE
  8
16
 66
1
 10
0.0000
 20
0.0000
 30
0.0000
 40
0.1270
 41
0.1270
 70
0
  0
VERTEX
  8
16
 10
-1.1938
 20
5.9055
 30
0.0000
 42
1.0000
  0
VERTEX
  8
16
 10
-1.1938
 20
5.7785
 30
0.0000
  0
SEQEND
  8
0
  0
POLYLINE
  8
16
 66
1
 10
0.0000
 20
0.0000
 30
0.0000
 40
0.2540
 41
0.2540
 70
0
  0
VERTEX
  8
16
 10
3.3420
 20
5.8420
 30
0.0000
  0
VERTEX
  8
16
 10
9.1239
 20
5.8420
 30
0.0000
  0
SEQEND
  8
0
  0
POLYLINE
  8
16
 66
1
 10
0.0000
 20
0.0000
 30
0.0000
 40
0.1270
 41
0.1270
 70
0
  0
VERTEX
  8
16
 10
9.1239
 20
5.7785
 30
0.0000
 42
1.0000
  0
VERTEX
  8
16
 10
9.1239
 20
5.9055
 30
0.0000
  0
SEQEND
  8
0
  0
POLYLINE
  8
16
 66
1
 10
0.0000
 20
0.0000
 30
0.0000
 40
0.1270
 41
0.1270
 70
0
  0
VERTEX
  8
16
 10
3.3420
 20
5.9055
 30
0.0000
 42
1.0000
  0
VERTEX
  8
16
 10
3.3420
 20
5.7785
 30
0.0000
  0
SEQEND
  8
0
  0
POLYLINE
  8
16
 66
1
 10
0.0000
 20
0.0000
 30
0.0000
 40
0.2540
 41
0.2540
 70
0
  0
VERTEX
  8
16
 10
10.7361
 20
5.8420
 30
0.0000
  0
VERTEX
  8
16
 10
15.1638
 20
5.8420
 30
0.0000
  0
SEQEND
  8
0
  0
POLYLINE
  8
16
 66
1
 10
0.0000
 20
0.0000
 30
0.0000
 40
0.1270
 41
0.1270
 70
0
  0
VERTEX
  8
16
 10
15.1638
 20
5.7785
 30
0.0000
 42
1.0000
  0
VERTEX
  8
16
 10
15.1638
 20
5.9055
 30
0.0000
  0
SEQEND
  8
0
  0
POLYLINE
  8
16
 66
1
 10
0.0000
 20
0.0000
 30
0.0000
 40
0.1270
 41
0.1270
 70
0
  0
VERTEX
  8
16
 10
10.7361
 20
5.9055
 30
0.0000
 42
1.0000
  0
VERTEX
  8
16
 10
10.7361
 20
5.7785
 30
0.0000
  0
SEQEND
  8
0
  0
POLYLINE
  8
16
 66
1
 10
0.0000
 20
0.0000
 30
0.0000
 40
0.2540
 41
0.2540
 70
0
  0
VERTEX
  8
16
 10
-1.1938
 20
6.0960
 30
0.0000
  0
VERTEX
  8
16
 10
0.4680
 20
6.0960
 30
0.0000
  0
SEQEND
  8
0
  0
POLYLINE
  8
16
 66
1
 10
0.0000
 20
0.0000
 30
0.0000
 40
0.1270
 41
0.1270
 70
0
  0
VERTEX
  8
16
 10
0.4680
 20
6.0325
 30
0.0000
 42
1.0000
  0
VERTEX
  8
16
 10
0.4680
 20
6.1595
 30
0.0000
  0
SEQEND
  8
0
  0
POLYLINE
  8
16
 66
1
 10
0.0000
 20
0.0000
 30
0.0000
 40
0.1270
 41
0.1270
 70
0
  0
VERTEX
  8
16
 10
-1.1938
 20
6.1595
 30
0.0000
 42
1.0000
  0
VERTEX
  8
16
 10
-1.1938
 20
6.0325
 30
0.0000
  0
SEQEND
  8
0
  0
POLYLINE
  8
16
 66
1
 10
0.0000
 20
0.0000
 30
0.0000
 40
0.2540
 41
0.2540
 70
0
  0
VERTEX
  8
16
 10
3.3420
 20
6.0960
 30
0.0000
  0
VERTEX
  8
16
 10
8.8633
 20
6.0960
 30
0.0000
  0
SEQEND
  8
0
  0
POLYLINE
  8
16
 66
1
 10
0.0000
 20
0.0000
 30
0.0000
 40
0.1270
 41
0.1270
 70
0
  0
VERTEX
  8
16
 10
8.8633
 20
6.0325
 30
0.0000
 42
1.0000
  0
VERTEX
  8
16
 10
8.8633
 20
6.1595
 30
0.0000
  0
SEQEND
  8
0
  0
POLYLINE
  8
16
 66
1
 10
0.0000
 20
0.0000
 30
0.0000
 40
0.1270
 41
0.1270
 70
0
  0
VERTEX
  8
16
 10
3.3420
 20
6.1595
 30
0.0000
 42
1.0000
  0
VERTEX
  8
16
 10
3.3420
 20
6.0325
 30
0.0000
  0
SEQEND
  8
0
  0
POLYLINE
  8
16
 66
1
 10
0.0000
 20
0.0000
 30
0.0000
 40
0.2540
 41
0.2540
 70
0
  0
VERTEX
  8
16
 10
10.9967
 20
6.0960
 30
0.0000
  0
VERTEX
  8
16
 10
15.1638
 20
6.0960
 30
0.0000
  0
SEQEND
  8
0
  0
POLYLINE
  8
16
 66
1
 10
0.0000
 20
0.0000
 30
0.0000
 40
0.1270
 41
0.1270
 70
0
  0
VERTEX
  8
16
 10
15.1638
 20
6.0325
 30
0.0000
 42
1.0000
  0
VERTEX
  8
16
 10
15.1638
 20
6.1595
 30
0.0000
  0
SEQEND
  8
0
  0
POLYLINE
  8
16
 66
1
 10
0.0000
 20
0.0000
 30
0.0000
 40
0.1270
 41
0.1270
 70
0
  0
VERTEX
  8
16
 10
10.9967
 20
6.1595
 30
0.0000
 42
1.0000
  0
VERTEX
  8
16
 10
10.9967
 20
6.0325
 30
0.0000
  0
SEQEND
  8
0
  0
POLYLINE
  8
16
 66
1
 10
0.0000
 20
0.0000
 30
0.0000
 40
0.2540
 41
0.2540
 70
0
  0
VERTEX
  8
16
 10
-1.1938
 20
6.3500
 30
0.0000
  0
VERTEX
  8
16
 10
0.4680
 20
6.3500
 30
0.0000
  0
SEQEND
  8
0
  0
POLYLINE
  8
16
 66
1
 10
0.0000
 20
0.0000
 30
0.0000
 40
0.1270
 41
0.1270
 70
0
  0
VERTEX
  8
16
 10
0.4680
 20
6.2865
 30
0.0000
 42
1.0000
  0
VERTEX
  8
16
 10
0.4680
 20
6.4135
 30
0.0000
  0
SEQEND
  8
0
  0
POLYLINE
  8
16
 66
1
 10
0.0000
 20
0.0000
 30
0.0000
 40
0.1270
 41
0.1270
 70
0
  0
VERTEX
  8
16
 10
-1.1938
 20
6.4135
 30
0.0000
 42
1.0000
  0
VERTEX
  8
16
 10
-1.1938
 20
6.2865
 30
0.0000
  0
SEQEND
  8
0
  0
POLYLINE
  8
16
 66
1
 10
0.0000
 20
0.0000
 30
0.0000
 40
0.2540
 41
0.2540
 70
0
  0
VERTEX
  8
16
 10
3.3420
 20
6.3500
 30
0.0000
  0
VERTEX
  8
16
 10
8.6663
 20
6.3500
 30
0.0000
  0
SEQEND
  8
0
  0
POLYLINE
  8
16
 66
1
 10
0.0000
 20
0.0000
 30
0.0000
 40
0.1270
 41
0.1270
 70
0
  0
VERTEX
  8
16
 10
8.6663
 20
6.2865
 30
0.0000
 42
1.0000
  0
VERTEX
  8
16
 10
8.6663
 20
6.4135
 30
0.0000
  0
SEQEND
  8
0
  0
POLYLINE
  8
16
 66
1
 10
0.0000
 20
0.0000
 30
0.0000
 40
0.1270
 41
0.1270
 70
0
  0
VERTEX
  8
16
 10
3.3420
 20
6.4135
 30
0.0000
 42
1.0000
  0
VERTEX
  8
16
 10
3.3420
 20
6.2865
 30
0.0000
  0
SEQEND
  8
0
  0
POLYLINE
  8
16
 66
1
 10
0.0000
 20
0.0000
 30
0.0000
 40
0.2540
 41
0.2540
 70
0
  0
VERTEX
  8
16
 10
11.1937
 20
6.3500
 30
0.0000
  0
VERTEX
  8
16
 10
15.1638
 20
6.3500
 30
0.0000
  0
SEQEND
  8
0
  0
POLYLINE
  8
16
 66
1
 10
0.0000
 20
0.0000
 30
0.0000
 40
0.1270
 41
0.1270
 70
0
  0
VERTEX
  8
16
 10
15.1638
 20
6.2865
 30
0.0000
 42
1.0000
  0
VERTEX
  8
16
 10
15.1638
 20
6.4135
 30
0.0000
  0
SEQEND
  8
0
  0
POLYLINE
  8
16
 66
1
 10
0.0000
 20
0.0000
 30
0.0000
 40
0.1270
 41
0.1270
 70
0
  0
VERTEX
  8
16
 10
11.1937
 20
6.4135
 30
0.0000
 42
1.0000
  0
VERTEX
  8
16
 10
11.1937
 20
6.2865
 30
0.0000
  0
SEQEND
  8
0
  0
POLYLINE
  8
16
 66
1
 10
0.0000
 20
0.0000
 30
0.0000
 40
0.2540
 41
0.2540
 70
0
  0
VERTEX
  8
16
 10
-1.1938
 20
6.6040
 30
0.0000
  0
VERTEX
  8
16
 10
0.4680
 20
6.6040
 30
0.0000
  0
SEQEND
  8
0
  0
POLYLINE
  8
16
 66
1
 10
0.0000
 20
0.0000
 30
0.0000
 40
0.1270
 41
0.1270
 70
0
  0
VERTEX
  8
16
 10
0.4680
 20
6.5405
 30
0.0000
 42
1.0000
  0
VERTEX
  8
16
 10
0.4680
 20
6.6675
 30
0.0000
  0
SEQEND
  8
0
  0
POLYLINE
  8
16
 66
1
 10
0.0000
 20
0.0000
 30
0.0000
 40
0.1270
 41
0.1270
 70
0
  0
VERTEX
  8
16
 10
-1.1938
 20
6.6675
 30
0.0000
 42
1.0000
  0
VERTEX
  8
16
 10
-1.1938
 20
6.5405
 30
0.0000
  0
SEQEND
  8
0
  0
POLYLINE
  8
16
 66
1
 10
0.0000
 20
0.0000
 30
0.0000
 40
0.2540
 41
0.2540
 70
0
  0
VERTEX
  8
16
 10
3.3420
 20
6.6040
 30
0.0000
  0
VERTEX
  8
16
 10
8.5611
 20
6.6040
 30
0.0000
  0
SEQEND
  8
0
  0
POLYLINE
  8
16
 66
1
 10
0.0000
 20
0.0000
 30
0.0000
 40
0.1270
 41
0.1270
 70
0
  0
VERTEX
  8
16
 10
8.5611
 20
6.5405
 30
0.0000
 42
1.0000
  0
VERTEX
  8
16
 10
8.5611
 20
6.6675
 30
0.0000
  0
SEQEND
  8
0
  0
POLYLINE
  8
16
 66
1
 10
0.0000
 20
0.0000
 30
0.0000
 40
0.1270
 41
0.1270
 70
0
  0
VERTEX
  8
16
 10
3.3420
 20
6.6675
 30
0.0000
 42
1.0000
  0
VERTEX
  8
16
 10
3.3420
 20
6.5405
 30
0.0000
  0
SEQEND
  8
0
  0
POLYLINE
  8
16
 66
1
 10
0.0000
 20
0.0000
 30
0.0000
 40
0.2540
 41
0.2540
 70
0
  0
VERTEX
  8
16
 10
11.2989
 20
6.6040
 30
0.0000
  0
VERTEX
  8
16
 10
15.1638
 20
6.6040
 30
0.0000
  0
SEQEND
  8
0
  0
POLYLINE
  8
16
 66
1
 10
0.0000
 20
0.0000
 30
0.0000
 40
0.1270
 41
0.1270
 70
0
  0
VERTEX
  8
16
 10
15.1638
 20
6.5405
 30
0.0000
 42
1.0000
  0
VERTEX
  8
16
 10
15.1638
 20
6.6675
 30
0.0000
  0
SEQEND
  8
0
  0
POLYLINE
  8
16
 66
1
 10
0.0000
 20
0.0000
 30
0.0000
 40
0.1270
 41
0.1270
 70
0
  0
VERTEX
  8
16
 10
11.2989
 20
6.6675
 30
0.0000
 42
1.0000
  0
VERTEX
  8
16
 10
11.2989
 20
6.5405
 30
0.0000
  0
SEQEND
  8
0
  0
POLYLINE
  8
16
 66
1
 10
0.0000
 20
0.0000
 30
0.0000
 40
0.2540
 41
0.2540
 70
0
  0
VERTEX
  8
16
 10
-1.1938
 20
6.8580
 30
0.0000
  0
VERTEX
  8
16
 10
0.4680
 20
6.8580
 30
0.0000
  0
SEQEND
  8
0
  0
POLYLINE
  8
16
 66
1
 10
0.0000
 20
0.0000
 30
0.0000
 40
0.1270
 41
0.1270
 70
0
  0
VERTEX
  8
16
 10
0.4680
 20
6.7945
 30
0.0000
 42
1.0000
  0
VERTEX
  8
16
 10
0.4680
 20
6.9215
 30
0.0000
  0
SEQEND
  8
0
  0
POLYLINE
  8
16
 66
1
 10
0.0000
 20
0.0000
 30
0.0000
 40
0.1270
 41
0.1270
 70
0
  0
VERTEX
  8
16
 10
-1.1938
 20
6.9215
 30
0.0000
 42
1.0000
  0
VERTEX
  8
16
 10
-1.1938
 20
6.7945
 30
0.0000
  0
SEQEND
  8
0
  0
POLYLINE
  8
16
 66
1
 10
0.0000
 20
0.0000
 30
0.0000
 40
0.2540
 41
0.2540
 70
0
  0
VERTEX
  8
16
 10
3.3420
 20
6.8580
 30
0.0000
  0
VERTEX
  8
16
 10
8.4870
 20
6.8580
 30
0.0000
  0
SEQEND
  8
0
  0
POLYLINE
  8
16
 66
1
 10
0.0000
 20
0.0000
 30
0.0000
 40
0.1270
 41
0.1270
 70
0
  0
VERTEX
  8
16
 10
8.4870
 20
6.7945
 30
0.0000
 42
1.0000
  0
VERTEX
  8
16
 10
8.4870
 20
6.9215
 30
0.0000
  0
SEQEND
  8
0
  0
POLYLINE
  8
16
 66
1
 10
0.0000
 20
0.0000
 30
0.0000
 40
0.1270
 41
0.1270
 70
0
  0
VERTEX
  8
16
 10
3.3420
 20
6.9215
 30
0.0000
 42
1.0000
  0
VERTEX
  8
16
 10
3.3420
 20
6.7945
 30
0.0000
  0
SEQEND
  8
0
  0
POLYLINE
  8
16
 66
1
 10
0.0000
 20
0.0000
 30
0.0000
 40
0.2540
 41
0.2540
 70
0
  0
VERTEX
  8
16
 10
11.3730
 20
6.8580
 30
0.0000
  0
VERTEX
  8
16
 10
15.1638
 20
6.8580
 30
0.0000
  0
SEQEND
  8
0
  0
POLYLINE
  8
16
 66
1
 10
0.0000
 20
0.0000
 30
0.0000
 40
0.1270
 41
0.1270
 70
0
  0
VERTEX
  8
16
 10
15.1638
 20
6.7945
 30
0.0000
 42
1.0000
  0
VERTEX
  8
16
 10
15.1638
 20
6.9215
 30
0.0000
  0
SEQEND
  8
0
  0
POLYLINE
  8
16
 66
1
 10
0.0000
 20
0.0000
 30
0.0000
 40
0.1270
 41
0.1270
 70
0
  0
VERTEX
  8
16
 10
11.3730
 20
6.9215
 30
0.0000
 42
1.0000
  0
VERTEX
  8
16
 10
11.3730
 20
6.7945
 30
0.0000
  0
SEQEND
  8
0
  0
POLYLINE
  8
16
 66
1
 10
0.0000
 20
0.0000
 30
0.0000
 40
0.2540
 41
0.2540
 70
0
  0
VERTEX
  8
16
 10
-1.1938
 20
7.1120
 30
0.0000
  0
VERTEX
  8
16
 10
0.5903
 20
7.1120
 30
0.0000
  0
SEQEND
  8
0
  0
POLYLINE
  8
16
 66
1
 10
0.0000
 20
0.0000
 30
0.0000
 40
0.1270
 41
0.1270
 70
0
  0
VERTEX
  8
16
 10
0.5903
 20
7.0485
 30
0.0000
 42
1.0000
  0
VERTEX
  8
16
 10
0.5903
 20
7.1755
 30
0.0000
  0
SEQEND
  8
0
  0
POLYLINE
  8
16
 66
1
 10
0.0000
 20
0.0000
 30
0.0000
 40
0.1270
 41
0.1270
 70
0
  0
VERTEX
  8
16
 10
-1.1938
 20
7.1755
 30
0.0000
 42
1.0000
  0
VERTEX
  8
16
 10
-1.1938
 20
7.0485
 30
0.0000
  0
SEQEND
  8
0
  0
POLYLINE
  8
16
 66
1
 10
0.0000
 20
0.0000
 30
0.0000
 40
0.2540
 41
0.2540
 70
0
  0
VERTEX
  8
16
 10
3.2197
 20
7.1120
 30
0.0000
  0
VERTEX
  8
16
 10
8.4870
 20
7.1120
 30
0.0000
  0
SEQEND
  8
0
  0
POLYLINE
  8
16
 66
1
 10
0.0000
 20
0.0000
 30
0.0000
 40
0.1270
 41
0.1270
 70
0
  0
VERTEX
  8
16
 10
8.4870
 20
7.0485
 30
0.0000
 42
1.0000
  0
VERTEX
  8
16
 10
8.4870
 20
7.1755
 30
0.0000
  0
SEQEND
  8
0
  0
POLYLINE
  8
16
 66
1
 10
0.0000
 20
0.0000
 30
0.0000
 40
0.1270
 41
0.1270
 70
0
  0
VERTEX
  8
16
 10
3.2197
 20
7.1755
 30
0.0000
 42
1.0000
  0
VERTEX
  8
16
 10
3.2197
 20
7.0485
 30
0.0000
  0
SEQEND
  8
0
  0
POLYLINE
  8
16
 66
1
 10
0.0000
 20
0.0000
 30
0.0000
 40
0.2540
 41
0.2540
 70
0
  0
VERTEX
  8
16
 10
11.3730
 20
7.1120
 30
0.0000
  0
VERTEX
  8
16
 10
15.1638
 20
7.1120
 30
0.0000
  0
SEQEND
  8
0
  0
POLYLINE
  8
16
 66
1
 10
0.0000
 20
0.0000
 30
0.0000
 40
0.1270
 41
0.1270
 70
0
  0
VERTEX
  8
16
 10
15.1638
 20
7.0485
 30
0.0000
 42
1.0000
  0
VERTEX
  8
16
 10
15.1638
 20
7.1755
 30
0.0000
  0
SEQEND
  8
0
  0
POLYLINE
  8
16
 66
1
 10
0.0000
 20
0.0000
 30
0.0000
 40
0.1270
 41
0.1270
 70
0
  0
VERTEX
  8
16
 10
11.3730
 20
7.1755
 30
0.0000
 42
1.0000
  0
VERTEX
  8
16
 10
11.3730
 20
7.0485
 30
0.0000
  0
SEQEND
  8
0
  0
POLYLINE
  8
16
 66
1
 10
0.0000
 20
0.0000
 30
0.0000
 40
0.2540
 41
0.2540
 70
0
  0
VERTEX
  8
16
 10
-1.1938
 20
7.3660
 30
0.0000
  0
VERTEX
  8
16
 10
8.4907
 20
7.3660
 30
0.0000
  0
SEQEND
  8
0
  0
POLYLINE
  8
16
 66
1
 10
0.0000
 20
0.0000
 30
0.0000
 40
0.1270
 41
0.1270
 70
0
  0
VERTEX
  8
16
 10
8.4907
 20
7.3025
 30
0.0000
 42
1.0000
  0
VERTEX
  8
16
 10
8.4907
 20
7.4295
 30
0.0000
  0
SEQEND
  8
0
  0
POLYLINE
  8
16
 66
1
 10
0.0000
 20
0.0000
 30
0.0000
 40
0.1270
 41
0.1270
 70
0
  0
VERTEX
  8
16
 10
-1.1938
 20
7.4295
 30
0.0000
 42
1.0000
  0
VERTEX
  8
16
 10
-1.1938
 20
7.3025
 30
0.0000
  0
SEQEND
  8
0
  0
POLYLINE
  8
16
 66
1
 10
0.0000
 20
0.0000
 30
0.0000
 40
0.2540
 41
0.2540
 70
0
  0
VERTEX
  8
16
 10
11.3693
 20
7.3660
 30
0.0000
  0
VERTEX
  8
16
 10
15.1638
 20
7.3660
 30
0.0000
  0
SEQEND
  8
0
  0
POLYLINE
  8
16
 66
1
 10
0.0000
 20
0.0000
 30
0.0000
 40
0.1270
 41
0.1270
 70
0
  0
VERTEX
  8
16
 10
15.1638
 20
7.3025
 30
0.0000
 42
1.0000
  0
VERTEX
  8
16
 10
15.1638
 20
7.4295
 30
0.0000
  0
SEQEND
  8
0
  0
POLYLINE
  8
16
 66
1
 10
0.0000
 20
0.0000
 30
0.0000
 40
0.1270
 41
0.1270
 70
0
  0
VERTEX
  8
16
 10
11.3693
 20
7.4295
 30
0.0000
 42
1.0000
  0
VERTEX
  8
16
 10
11.3693
 20
7.3025
 30
0.0000
  0
SEQEND
  8
0
  0
POLYLINE
  8
16
 66
1
 10
0.0000
 20
0.0000
 30
0.0000
 40
0.2540
 41
0.2540
 70
0
  0
VERTEX
  8
16
 10
-1.1938
 20
7.6200
 30
0.0000
  0
VERTEX
  8
16
 10
8.5959
 20
7.6200
 30
0.0000
  0
SEQEND
  8
0
  0
POLYLINE
  8
16
 66
1
 10
0.0000
 20
0.0000
 30
0.0000
 40
0.1270
 41
0.1270
 70
0
  0
VERTEX
  8
16
 10
8.5959
 20
7.5565
 30
0.0000
 42
1.0000
  0
VERTEX
  8
16
 10
8.5959
 20
7.6835
 30
0.0000
  0
SEQEND
  8
0
  0
POLYLINE
  8
16
 66
1
 10
0.0000
 20
0.0000
 30
0.0000
 40
0.1270
 41
0.1270
 70
0
  0
VERTEX
  8
16
 10
-1.1938
 20
7.6835
 30
0.0000
 42
1.0000
  0
VERTEX
  8
16
 10
-1.1938
 20
7.5565
 30
0.0000
  0
SEQEND
  8
0
  0
POLYLINE
  8
16
 66
1
 10
0.0000
 20
0.0000
 30
0.0000
 40
0.2540
 41
0.2540
 70
0
  0
VERTEX
  8
16
 10
11.2641
 20
7.6200
 30
0.0000
  0
VERTEX
  8
16
 10
15.1638
 20
7.6200
 30
0.0000
  0
SEQEND
  8
0
  0
POLYLINE
  8
16
 66
1
 10
0.0000
 20
0.0000
 30
0.0000
 40
0.1270
 41
0.1270
 70
0
  0
VERTEX
  8
16
 10
15.1638
 20
7.5565
 30
0.0000
 42
1.0000
  0
VERTEX
  8
16
 10
15.1638
 20
7.6835
 30
0.0000
  0
SEQEND
  8
0
  0
POLYLINE
  8
16
 66
1
 10
0.0000
 20
0.0000
 30
0.0000
 40
0.1270
 41
0.1270
 70
0
  0
VERTEX
  8
16
 10
11.2641
 20
7.6835
 30
0.0000
 42
1.0000
  0
VERTEX
  8
16
 10
11.2641
 20
7.5565
 30
0.0000
  0
SEQEND
  8
0
  0
POLYLINE
  8
16
 66
1
 10
0.0000
 20
0.0000
 30
0.0000
 40
0.2540
 41
0.2540
 70
0
  0
VERTEX
  8
16
 10
-1.1938
 20
7.8740
 30
0.0000
  0
VERTEX
  8
16
 10
8.7011
 20
7.8740
 30
0.0000
  0
SEQEND
  8
0
  0
POLYLINE
  8
16
 66
1
 10
0.0000
 20
0.0000
 30
0.0000
 40
0.1270
 41
0.1270
 70
0
  0
VERTEX
  8
16
 10
8.7011
 20
7.8105
 30
0.0000
 42
1.0000
  0
VERTEX
  8
16
 10
8.7011
 20
7.9375
 30
0.0000
  0
SEQEND
  8
0
  0
POLYLINE
  8
16
 66
1
 10
0.0000
 20
0.0000
 30
0.0000
 40
0.1270
 41
0.1270
 70
0
  0
VERTEX
  8
16
 10
-1.1938
 20
7.9375
 30
0.0000
 42
1.0000
  0
VERTEX
  8
16
 10
-1.1938
 20
7.8105
 30
0.0000
  0
SEQEND
  8
0
  0
POLYLINE
  8
16
 66
1
 10
0.0000
 20
0.0000
 30
0.0000
 40
0.2540
 41
0.2540
 70
0
  0
VERTEX
  8
16
 10
11.1589
 20
7.8740
 30
0.0000
  0
VERTEX
  8
16
 10
15.1638
 20
7.8740
 30
0.0000
  0
SEQEND
  8
0
  0
POLYLINE
  8
16
 66
1
 10
0.0000
 20
0.0000
 30
0.0000
 40
0.1270
 41
0.1270
 70
0
  0
VERTEX
  8
16
 10
15.1638
 20
7.8105
 30
0.0000
 42
1.0000
  0
VERTEX
  8
16
 10
15.1638
 20
7.9375
 30
0.0000
  0
SEQEND
  8
0
  0
POLYLINE
  8
16
 66
1
 10
0.0000
 20
0.0000
 30
0.0000
 40
0.1270
 41
0.1270
 70
0
  0
VERTEX
  8
16
 10
11.1589
 20
7.9375
 30
0.0000
 42
1.0000
  0
VERTEX
  8
16
 10
11.1589
 20
7.8105
 30
0.0000
  0
SEQEND
  8
0
  0
POLYLINE
  8
16
 66
1
 10
0.0000
 20
0.0000
 30
0.0000
 40
0.2540
 41
0.2540
 70
0
  0
VERTEX
  8
16
 10
-1.1938
 20
8.1280
 30
0.0000
  0
VERTEX
  8
16
 10
8.9473
 20
8.1280
 30
0.0000
  0
SEQEND
  8
0
  0
POLYLINE
  8
16
 66
1
 10
0.0000
 20
0.0000
 30
0.0000
 40
0.1270
 41
0.1270
 70
0
  0
VERTEX
  8
16
 10
8.9473
 20
8.0645
 30
0.0000
 42
1.0000
  0
VERTEX
  8
16
 10
8.9473
 20
8.1915
 30
0.0000
  0
SEQEND
  8
0
  0
POLYLINE
  8
16
 66
1
 10
0.0000
 20
0.0000
 30
0.0000
 40
0.1270
 41
0.1270
 70
0
  0
VERTEX
  8
16
 10
-1.1938
 20
8.1915
 30
0.0000
 42
1.0000
  0
VERTEX
  8
16
 10
-1.1938
 20
8.0645
 30
0.0000
  0
SEQEND
  8
0
  0
POLYLINE
  8
16
 66
1
 10
0.0000
 20
0.0000
 30
0.0000
 40
0.2540
 41
0.2540
 70
0
  0
VERTEX
  8
16
 10
10.9127
 20
8.1280
 30
0.0000
  0
VERTEX
  8
16
 10
15.1638
 20
8.1280
 30
0.0000
  0
SEQEND
  8
0
  0
POLYLINE
  8
16
 66
1
 10
0.0000
 20
0.0000
 30
0.0000
 40
0.1270
 41
0.1270
 70
0
  0
VERTEX
  8
16
 10
15.1638
 20
8.0645
 30
0.0000
 42
1.0000
  0
VERTEX
  8
16
 10
15.1638
 20
8.1915
 30
0.0000
  0
SEQEND
  8
0
  0
POLYLINE
  8
16
 66
1
 10
0.0000
 20
0.0000
 30
0.0000
 40
0.1270
 41
0.1270
 70
0
  0
VERTEX
  8
16
 10
10.9127
 20
8.1915
 30
0.0000
 42
1.0000
  0
VERTEX
  8
16
 10
10.9127
 20
8.0645
 30
0.0000
  0
SEQEND
  8
0
  0
POLYLINE
  8
16
 66
1
 10
0.0000
 20
0.0000
 30
0.0000
 40
0.2540
 41
0.2540
 70
0
  0
VERTEX
  8
16
 10
-1.1938
 20
8.3820
 30
0.0000
  0
VERTEX
  8
16
 10
9.3267
 20
8.3820
 30
0.0000
  0
SEQEND
  8
0
  0
POLYLINE
  8
16
 66
1
 10
0.0000
 20
0.0000
 30
0.0000
 40
0.1270
 41
0.1270
 70
0
  0
VERTEX
  8
16
 10
9.3267
 20
8.3185
 30
0.0000
 42
1.0000
  0
VERTEX
  8
16
 10
9.3267
 20
8.4455
 30
0.0000
  0
SEQEND
  8
0
  0
POLYLINE
  8
16
 66
1
 10
0.0000
 20
0.0000
 30
0.0000
 40
0.1270
 41
0.1270
 70
0
  0
VERTEX
  8
16
 10
-1.1938
 20
8.4455
 30
0.0000
 42
1.0000
  0
VERTEX
  8
16
 10
-1.1938
 20
8.3185
 30
0.0000
  0
SEQEND
  8
0
  0
POLYLINE
  8
16
 66
1
 10
0.0000
 20
0.0000
 30
0.0000
 40
0.2540
 41
0.2540
 70
0
  0
VERTEX
  8
16
 10
10.5333
 20
8.3820
 30
0.0000
  0
VERTEX
  8
16
 10
15.1638
 20
8.3820
 30
0.0000
  0
SEQEND
  8
0
  0
POLYLINE
  8
16
 66
1
 10
0.0000
 20
0.0000
 30
0.0000
 40
0.1270
 41
0.1270
 70
0
  0
VERTEX
  8
16
 10
15.1638
 20
8.3185
 30
0.0000
 42
1.0000
  0
VERTEX
  8
16
 10
15.1638
 20
8.4455
 30
0.0000
  0
SEQEND
  8
0
  0
POLYLINE
  8
16
 66
1
 10
0.0000
 20
0.0000
 30
0.0000
 40
0.1270
 41
0.1270
 70
0
  0
VERTEX
  8
16
 10
10.5333
 20
8.4455
 30
0.0000
 42
1.0000
  0
VERTEX
  8
16
 10
10.5333
 20
8.3185
 30
0.0000
  0
SEQEND
  8
0
  0
POLYLINE
  8
16
 66
1
 10
0.0000
 20
0.0000
 30
0.0000
 40
0.2540
 41
0.2540
 70
0
  0
VERTEX
  8
16
 10
-1.1938
 20
8.6360
 30
0.0000
  0
VERTEX
  8
16
 10
15.1638
 20
8.6360
 30
0.0000
  0
SEQEND
  8
0
  0
POLYLINE
  8
16
 66
1
 10
0.0000
 20
0.0000
 30
0.0000
 40
0.1270
 41
0.1270
 70
0
  0
VERTEX
  8
16
 10
15.1638
 20
8.5725
 30
0.0000
 42
1.0000
  0
VERTEX
  8
16
 10
15.1638
 20
8.6995
 30
0.0000
  0
SEQEND
  8
0
  0
POLYLINE
  8
16
 66
1
 10
0.0000
 20
0.0000
 30
0.0000
 40
0.1270
 41
0.1270
 70
0
  0
VERTEX
  8
16
 10
-1.1938
 20
8.6995
 30
0.0000
 42
1.0000
  0
VERTEX
  8
16
 10
-1.1938
 20
8.5725
 30
0.0000
  0
SEQEND
  8
0
  0
POLYLINE
  8
16
 66
1
 10
0.0000
 20
0.0000
 30
0.0000
 40
0.2540
 41
0.2540
 70
0
  0
VERTEX
  8
16
 10
-1.1938
 20
8.8900
 30
0.0000
  0
VERTEX
  8
16
 10
15.1638
 20
8.8900
 30
0.0000
  0
SEQEND
  8
0
  0
POLYLINE
  8
16
 66
1
 10
0.0000
 20
0.0000
 30
0.0000
 40
0.1270
 41
0.1270
 70
0
  0
VERTEX
  8
16
 10
15.1638
 20
8.8265
 30
0.0000
 42
1.0000
  0
VERTEX
  8
16
 10
15.1638
 20
8.9535
 30
0.0000
  0
SEQEND
  8
0
  0
POLYLINE
  8
16
 66
1
 10
0.0000
 20
0.0000
 30
0.0000
 40
0.1270
 41
0.1270
 70
0
  0
VERTEX
  8
16
 10
-1.1938
 20
8.9535
 30
0.0000
 42
1.0000
  0
VERTEX
  8
16
 10
-1.1938
 20
8.8265
 30
0.0000
  0
SEQEND
  8
0
  0
POLYLINE
  8
16
 66
1
 10
0.0000
 20
0.0000
 30
0.0000
 40
0.2540
 41
0.2540
 70
0
  0
VERTEX
  8
16
 10
-1.1938
 20
9.1440
 30
0.0000
  0
VERTEX
  8
16
 10
15.1638
 20
9.1440
 30
0.0000
  0
SEQEND
  8
0
  0
POLYLINE
  8
16
 66
1
 10
0.0000
 20
0.0000
 30
0.0000
 40
0.1270
 41
0.1270
 70
0
  0
VERTEX
  8
16
 10
15.1638
 20
9.0805
 30
0.0000
 42
1.0000
  0
VERTEX
  8
16
 10
15.1638
 20
9.2075
 30
0.0000
  0
SEQEND
  8
0
  0
POLYLINE
  8
16
 66
1
 10
0.0000
 20
0.0000
 30
0.0000
 40
0.1270
 41
0.1270
 70
0
  0
VERTEX
  8
16
 10
-1.1938
 20
9.2075
 30
0.0000
 42
1.0000
  0
VERTEX
  8
16
 10
-1.1938
 20
9.0805
 30
0.0000
  0
SEQEND
  8
0
  0
POLYLINE
  8
16
 66
1
 10
0.0000
 20
0.0000
 30
0.0000
 40
0.2540
 41
0.2540
 70
0
  0
VERTEX
  8
16
 10
-1.1938
 20
9.3980
 30
0.0000
  0
VERTEX
  8
16
 10
15.1638
 20
9.3980
 30
0.0000
  0
SEQEND
  8
0
  0
POLYLINE
  8
16
 66
1
 10
0.0000
 20
0.0000
 30
0.0000
 40
0.1270
 41
0.1270
 70
0
  0
VERTEX
  8
16
 10
15.1638
 20
9.3345
 30
0.0000
 42
1.0000
  0
VERTEX
  8
16
 10
15.1638
 20
9.4615
 30
0.0000
  0
SEQEND
  8
0
  0
POLYLINE
  8
16
 66
1
 10
0.0000
 20
0.0000
 30
0.0000
 40
0.1270
 41
0.1270
 70
0
  0
VERTEX
  8
16
 10
-1.1938
 20
9.4615
 30
0.0000
 42
1.0000
  0
VERTEX
  8
16
 10
-1.1938
 20
9.3345
 30
0.0000
  0
SEQEND
  8
0
  0
POLYLINE
  8
16
 66
1
 10
0.0000
 20
0.0000
 30
0.0000
 40
0.2540
 41
0.2540
 70
0
  0
VERTEX
  8
16
 10
-1.1938
 20
9.6520
 30
0.0000
  0
VERTEX
  8
16
 10
15.1638
 20
9.6520
 30
0.0000
  0
SEQEND
  8
0
  0
POLYLINE
  8
16
 66
1
 10
0.0000
 20
0.0000
 30
0.0000
 40
0.1270
 41
0.1270
 70
0
  0
VERTEX
  8
16
 10
15.1638
 20
9.5885
 30
0.0000
 42
1.0000
  0
VERTEX
  8
16
 10
15.1638
 20
9.7155
 30
0.0000
  0
SEQEND
  8
0
  0
POLYLINE
  8
16
 66
1
 10
0.0000
 20
0.0000
 30
0.0000
 40
0.1270
 41
0.1270
 70
0
  0
VERTEX
  8
16
 10
-1.1938
 20
9.7155
 30
0.0000
 42
1.0000
  0
VERTEX
  8
16
 10
-1.1938
 20
9.5885
 30
0.0000
  0
SEQEND
  8
0
  0
POLYLINE
  8
16
 66
1
 10
0.0000
 20
0.0000
 30
0.0000
 40
0.2540
 41
0.2540
 70
0
  0
VERTEX
  8
16
 10
-1.1938
 20
9.9060
 30
0.0000
  0
VERTEX
  8
16
 10
15.1638
 20
9.9060
 30
0.0000
  0
SEQEND
  8
0
  0
POLYLINE
  8
16
 66
1
 10
0.0000
 20
0.0000
 30
0.0000
 40
0.1270
 41
0.1270
 70
0
  0
VERTEX
  8
16
 10
15.1638
 20
9.8425
 30
0.0000
 42
1.0000
  0
VERTEX
  8
16
 10
15.1638
 20
9.9695
 30
0.0000
  0
SEQEND
  8
0
  0
POLYLINE
  8
16
 66
1
 10
0.0000
 20
0.0000
 30
0.0000
 40
0.1270
 41
0.1270
 70
0
  0
VERTEX
  8
16
 10
-1.1938
 20
9.9695
 30
0.0000
 42
1.0000
  0
VERTEX
  8
16
 10
-1.1938
 20
9.8425
 30
0.0000
  0
SEQEND
  8
0
  0
POLYLINE
  8
16
 66
1
 10
0.0000
 20
0.0000
 30
0.0000
 40
0.2540
 41
0.2540
 70
0
  0
VERTEX
  8
16
 10
-1.1938
 20
10.1600
 30
0.0000
  0
VERTEX
  8
16
 10
15.1638
 20
10.1600
 30
0.0000
  0
SEQEND
  8
0
  0
POLYLINE
  8
16
 66
1
 10
0.0000
 20
0.0000
 30
0.0000
 40
0.1270
 41
0.1270
 70
0
  0
VERTEX
  8
16
 10
15.1638
 20
10.0965
 30
0.0000
 42
1.0000
  0
VERTEX
  8
16
 10
15.1638
 20
10.2235
 30
0.0000
  0
SEQEND
  8
0
  0
POLYLINE
  8
16
 66
1
 10
0.0000
 20
0.0000
 30
0.0000
 40
0.1270
 41
0.1270
 70
0
  0
VERTEX
  8
16
 10
-1.1938
 20
10.2235
 30
0.0000
 42
1.0000
  0
VERTEX
  8
16
 10
-1.1938
 20
10.0965
 30
0.0000
  0
SEQEND
  8
0
  0
POLYLINE
  8
16
 66
1
 10
0.0000
 20
0.0000
 30
0.0000
 40
0.2540
 41
0.2540
 70
0
  0
VERTEX
  8
16
 10
-1.1938
 20
10.4140
 30
0.0000
  0
VERTEX
  8
16
 10
6.7978
 20
10.4140
 30
0.0000
  0
SEQEND
  8
0
  0
POLYLINE
  8
16
 66
1
 10
0.0000
 20
0.0000
 30
0.0000
 40
0.1270
 41
0.1270
 70
0
  0
VERTEX
  8
16
 10
6.7978
 20
10.3505
 30
0.0000
 42
1.0000
  0
VERTEX
  8
16
 10
6.7978
 20
10.4775
 30
0.0000
  0
SEQEND
  8
0
  0
POLYLINE
  8
16
 66
1
 10
0.0000
 20
0.0000
 30
0.0000
 40
0.1270
 41
0.1270
 70
0
  0
VERTEX
  8
16
 10
-1.1938
 20
10.4775
 30
0.0000
 42
1.0000
  0
VERTEX
  8
16
 10
-1.1938
 20
10.3505
 30
0.0000
  0
SEQEND
  8
0
  0
POLYLINE
  8
16
 66
1
 10
0.0000
 20
0.0000
 30
0.0000
 40
0.2540
 41
0.2540
 70
0
  0
VERTEX
  8
16
 10
7.5822
 20
10.4140
 30
0.0000
  0
VERTEX
  8
16
 10
15.1638
 20
10.4140
 30
0.0000
  0
SEQEND
  8
0
  0
POLYLINE
  8
16
 66
1
 10
0.0000
 20
0.0000
 30
0.0000
 40
0.1270
 41
0.1270
 70
0
  0
VERTEX
  8
16
 10
15.1638
 20
10.3505
 30
0.0000
 42
1.0000
  0
VERTEX
  8
16
 10
15.1638
 20
10.4775
 30
0.0000
  0
SEQEND
  8
0
  0
POLYLINE
  8
16
 66
1
 10
0.0000
 20
0.0000
 30
0.0000
 40
0.1270
 41
0.1270
 70
0
  0
VERTEX
  8
16
 10
7.5822
 20
10.4775
 30
0.0000
 42
1.0000
  0
VERTEX
  8
16
 10
7.5822
 20
10.3505
 30
0.0000
  0
SEQEND
  8
0
  0
POLYLINE
  8
16
 66
1
 10
0.0000
 20
0.0000
 30
0.0000
 40
0.2540
 41
0.2540
 70
0
  0
VERTEX
  8
16
 10
-1.1938
 20
10.6680
 30
0.0000
  0
VERTEX
  8
16
 10
6.0164
 20
10.6680
 30
0.0000
  0
SEQEND
  8
0
  0
POLYLINE
  8
16
 66
1
 10
0.0000
 20
0.0000
 30
0.0000
 40
0.1270
 41
0.1270
 70
0
  0
VERTEX
  8
16
 10
6.0164
 20
10.6045
 30
0.0000
 42
1.0000
  0
VERTEX
  8
16
 10
6.0164
 20
10.7315
 30
0.0000
  0
SEQEND
  8
0
  0
POLYLINE
  8
16
 66
1
 10
0.0000
 20
0.0000
 30
0.0000
 40
0.1270
 41
0.1270
 70
0
  0
VERTEX
  8
16
 10
-1.1938
 20
10.7315
 30
0.0000
 42
1.0000
  0
VERTEX
  8
16
 10
-1.1938
 20
10.6045
 30
0.0000
  0
SEQEND
  8
0
  0
POLYLINE
  8
16
 66
1
 10
0.0000
 20
0.0000
 30
0.0000
 40
0.2540
 41
0.2540
 70
0
  0
VERTEX
  8
16
 10
8.3636
 20
10.6680
 30
0.0000
  0
VERTEX
  8
16
 10
15.1638
 20
10.6680
 30
0.0000
  0
SEQEND
  8
0
  0
POLYLINE
  8
16
 66
1
 10
0.0000
 20
0.0000
 30
0.0000
 40
0.1270
 41
0.1270
 70
0
  0
VERTEX
  8
16
 10
15.1638
 20
10.6045
 30
0.0000
 42
1.0000
  0
VERTEX
  8
16
 10
15.1638
 20
10.7315
 30
0.0000
  0
SEQEND
  8
0
  0
POLYLINE
  8
16
 66
1
 10
0.0000
 20
0.0000
 30
0.0000
 40
0.1270
 41
0.1270
 70
0
  0
VERTEX
  8
16
 10
8.3636
 20
10.7315
 30
0.0000
 42
1.0000
  0
VERTEX
  8
16
 10
8.3636
 20
10.6045
 30
0.0000
  0
SEQEND
  8
0
  0
POLYLINE
  8
16
 66
1
 10
0.0000
 20
0.0000
 30
0.0000
 40
0.2540
 41
0.2540
 70
0
  0
VERTEX
  8
16
 10
-1.1938
 20
10.9220
 30
0.0000
  0
VERTEX
  8
16
 10
5.5764
 20
10.9220
 30
0.0000
  0
SEQEND
  8
0
  0
POLYLINE
  8
16
 66
1
 10
0.0000
 20
0.0000
 30
0.0000
 40
0.1270
 41
0.1270
 70
0
  0
VERTEX
  8
16
 10
5.5764
 20
10.8585
 30
0.0000
 42
1.0000
  0
VERTEX
  8
16
 10
5.5764
 20
10.9855
 30
0.0000
  0
SEQEND
  8
0
  0
POLYLINE
  8
16
 66
1
 10
0.0000
 20
0.0000
 30
0.0000
 40
0.1270
 41
0.1270
 70
0
  0
VERTEX
  8
16
 10
-1.1938
 20
10.9855
 30
0.0000
 42
1.0000
  0
VERTEX
  8
16
 10
-1.1938
 20
10.8585
 30
0.0000
  0
SEQEND
  8
0
  0
POLYLINE
  8
16
 66
1
 10
0.0000
 20
0.0000
 30
0.0000
 40
0.2540
 41
0.2540
 70
0
  0
VERTEX
  8
16
 10
8.8036
 20
10.9220
 30
0.0000
  0
VERTEX
  8
16
 10
15.1638
 20
10.9220
 30
0.0000
  0
SEQEND
  8
0
  0
POLYLINE
  8
16
 66
1
 10
0.0000
 20
0.0000
 30
0.0000
 40
0.1270
 41
0.1270
 70
0
  0
VERTEX
  8
16
 10
15.1638
 20
10.8585
 30
0.0000
 42
1.0000
  0
VERTEX
  8
16
 10
15.1638
 20
10.9855
 30
0.0000
  0
SEQEND
  8
0
  0
POLYLINE
  8
16
 66
1
 10
0.0000
 20
0.0000
 30
0.0000
 40
0.1270
 41
0.1270
 70
0
  0
VERTEX
  8
16
 10
8.8036
 20
10.9855
 30
0.0000
 42
1.0000
  0
VERTEX
  8
16
 10
8.8036
 20
10.8585
 30
0.0000
  0
SEQEND
  8
0
  0
POLYLINE
  8
16
 66
1
 10
0.0000
 20
0.0000
 30
0.0000
 40
0.2540
 41
0.2540
 70
0
  0
VERTEX
  8
16
 10
-1.1938
 20
11.1760
 30
0.0000
  0
VERTEX
  8
16
 10
5.3123
 20
11.1760
 30
0.0000
  0
SEQEND
  8
0
  0
POLYLINE
  8
16
 66
1
 10
0.0000
 20
0.0000
 30
0.0000
 40
0.1270
 41
0.1270
 70
0
  0
VERTEX
  8
16
 10
5.3123
 20
11.1125
 30
0.0000
 42
1.0000
  0
VERTEX
  8
16
 10
5.3123
 20
11.2395
 30
0.0000
  0
SEQEND
  8
0
  0
POLYLINE
  8
16
 66
1
 10
0.0000
 20
0.0000
 30
0.0000
 40
0.1270
 41
0.1270
 70
0
  0
VERTEX
  8
16
 10
-1.1938
 20
11.2395
 30
0.0000
 42
1.0000
  0
VERTEX
  8
16
 10
-1.1938
 20
11.1125
 30
0.0000
  0
SEQEND
  8
0
  0
POLYLINE
  8
16
 66
1
 10
0.0000
 20
0.0000
 30
0.0000
 40
0.2540
 41
0.2540
 70
0
  0
VERTEX
  8
16
 10
9.0677
 20
11.1760
 30
0.0000
  0
VERTEX
  8
16
 10
15.1638
 20
11.1760
 30
0.0000
  0
SEQEND
  8
0
  0
POLYLINE
  8
16
 66
1
 10
0.0000
 20
0.0000
 30
0.0000
 40
0.1270
 41
0.1270
 70
0
  0
VERTEX
  8
16
 10
15.1638
 20
11.1125
 30
0.0000
 42
1.0000
  0
VERTEX
  8
16
 10
15.1638
 20
11.2395
 30
0.0000
  0
SEQEND
  8
0
  0
POLYLINE
  8
16
 66
1
 10
0.0000
 20
0.0000
 30
0.0000
 40
0.1270
 41
0.1270
 70
0
  0
VERTEX
  8
16
 10
9.0677
 20
11.2395
 30
0.0000
 42
1.0000
  0
VERTEX
  8
16
 10
9.0677
 20
11.1125
 30
0.0000
  0
SEQEND
  8
0
  0
POLYLINE
  8
16
 66
1
 10
0.0000
 20
0.0000
 30
0.0000
 40
0.2540
 41
0.2540
 70
0
  0
VERTEX
  8
16
 10
-1.1938
 20
11.4300
 30
0.0000
  0
VERTEX
  8
16
 10
5.0583
 20
11.4300
 30
0.0000
  0
SEQEND
  8
0
  0
POLYLINE
  8
16
 66
1
 10
0.0000
 20
0.0000
 30
0.0000
 40
0.1270
 41
0.1270
 70
0
  0
VERTEX
  8
16
 10
5.0583
 20
11.3665
 30
0.0000
 42
1.0000
  0
VERTEX
  8
16
 10
5.0583
 20
11.4935
 30
0.0000
  0
SEQEND
  8
0
  0
POLYLINE
  8
16
 66
1
 10
0.0000
 20
0.0000
 30
0.0000
 40
0.1270
 41
0.1270
 70
0
  0
VERTEX
  8
16
 10
-1.1938
 20
11.4935
 30
0.0000
 42
1.0000
  0
VERTEX
  8
16
 10
-1.1938
 20
11.3665
 30
0.0000
  0
SEQEND
  8
0
  0
POLYLINE
  8
16
 66
1
 10
0.0000
 20
0.0000
 30
0.0000
 40
0.2540
 41
0.2540
 70
0
  0
VERTEX
  8
16
 10
9.3217
 20
11.4300
 30
0.0000
  0
VERTEX
  8
16
 10
15.1638
 20
11.4300
 30
0.0000
  0
SEQEND
  8
0
  0
POLYLINE
  8
16
 66
1
 10
0.0000
 20
0.0000
 30
0.0000
 40
0.1270
 41
0.1270
 70
0
  0
VERTEX
  8
16
 10
15.1638
 20
11.3665
 30
0.0000
 42
1.0000
  0
VERTEX
  8
16
 10
15.1638
 20
11.4935
 30
0.0000
  0
SEQEND
  8
0
  0
POLYLINE
  8
16
 66
1
 10
0.0000
 20
0.0000
 30
0.0000
 40
0.1270
 41
0.1270
 70
0
  0
VERTEX
  8
16
 10
9.3217
 20
11.4935
 30
0.0000
 42
1.0000
  0
VERTEX
  8
16
 10
9.3217
 20
11.3665
 30
0.0000
  0
SEQEND
  8
0
  0
POLYLINE
  8
16
 66
1
 10
0.0000
 20
0.0000
 30
0.0000
 40
0.2540
 41
0.2540
 70
0
  0
VERTEX
  8
16
 10
-1.1938
 20
11.6840
 30
0.0000
  0
VERTEX
  8
16
 10
4.9106
 20
11.6840
 30
0.0000
  0
SEQEND
  8
0
  0
POLYLINE
  8
16
 66
1
 10
0.0000
 20
0.0000
 30
0.0000
 40
0.1270
 41
0.1270
 70
0
  0
VERTEX
  8
16
 10
4.9106
 20
11.6205
 30
0.0000
 42
1.0000
  0
VERTEX
  8
16
 10
4.9106
 20
11.7475
 30
0.0000
  0
SEQEND
  8
0
  0
POLYLINE
  8
16
 66
1
 10
0.0000
 20
0.0000
 30
0.0000
 40
0.1270
 41
0.1270
 70
0
  0
VERTEX
  8
16
 10
-1.1938
 20
11.7475
 30
0.0000
 42
1.0000
  0
VERTEX
  8
16
 10
-1.1938
 20
11.6205
 30
0.0000
  0
SEQEND
  8
0
  0
POLYLINE
  8
16
 66
1
 10
0.0000
 20
0.0000
 30
0.0000
 40
0.2540
 41
0.2540
 70
0
  0
VERTEX
  8
16
 10
9.4694
 20
11.6840
 30
0.0000
  0
VERTEX
  8
16
 10
15.1638
 20
11.6840
 30
0.0000
  0
SEQEND
  8
0
  0
POLYLINE
  8
16
 66
1
 10
0.0000
 20
0.0000
 30
0.0000
 40
0.1270
 41
0.1270
 70
0
  0
VERTEX
  8
16
 10
15.1638
 20
11.6205
 30
0.0000
 42
1.0000
  0
VERTEX
  8
16
 10
15.1638
 20
11.7475
 30
0.0000
  0
SEQEND
  8
0
  0
POLYLINE
  8
16
 66
1
 10
0.0000
 20
0.0000
 30
0.0000
 40
0.1270
 41
0.1270
 70
0
  0
VERTEX
  8
16
 10
9.4694
 20
11.7475
 30
0.0000
 42
1.0000
  0
VERTEX
  8
16
 10
9.4694
 20
11.6205
 30
0.0000
  0
SEQEND
  8
0
  0
POLYLINE
  8
16
 66
1
 10
0.0000
 20
0.0000
 30
0.0000
 40
0.2540
 41
0.2540
 70
0
  0
VERTEX
  8
16
 10
-1.1938
 20
11.9380
 30
0.0000
  0
VERTEX
  8
16
 10
4.7640
 20
11.9380
 30
0.0000
  0
SEQEND
  8
0
  0
POLYLINE
  8
16
 66
1
 10
0.0000
 20
0.0000
 30
0.0000
 40
0.1270
 41
0.1270
 70
0
  0
VERTEX
  8
16
 10
4.7640
 20
11.8745
 30
0.0000
 42
1.0000
  0
VERTEX
  8
16
 10
4.7640
 20
12.0015
 30
0.0000
  0
SEQEND
  8
0
  0
POLYLINE
  8
16
 66
1
 10
0.0000
 20
0.0000
 30
0.0000
 40
0.1270
 41
0.1270
 70
0
  0
VERTEX
  8
16
 10
-1.1938
 20
12.0015
 30
0.0000
 42
1.0000
  0
VERTEX
  8
16
 10
-1.1938
 20
11.8745
 30
0.0000
  0
SEQEND
  8
0
  0
POLYLINE
  8
16
 66
1
 10
0.0000
 20
0.0000
 30
0.0000
 40
0.2540
 41
0.2540
 70
0
  0
VERTEX
  8
16
 10
9.6160
 20
11.9380
 30
0.0000
  0
VERTEX
  8
16
 10
15.1638
 20
11.9380
 30
0.0000
  0
SEQEND
  8
0
  0
POLYLINE
  8
16
 66
1
 10
0.0000
 20
0.0000
 30
0.0000
 40
0.1270
 41
0.1270
 70
0
  0
VERTEX
  8
16
 10
15.1638
 20
11.8745
 30
0.0000
 42
1.0000
  0
VERTEX
  8
16
 10
15.1638
 20
12.0015
 30
0.0000
  0
SEQEND
  8
0
  0
POLYLINE
  8
16
 66
1
 10
0.0000
 20
0.0000
 30
0.0000
 40
0.1270
 41
0.1270
 70
0
  0
VERTEX
  8
16
 10
9.6160
 20
12.0015
 30
0.0000
 42
1.0000
  0
VERTEX
  8
16
 10
9.6160
 20
11.8745
 30
0.0000
  0
SEQEND
  8
0
  0
POLYLINE
  8
16
 66
1
 10
0.0000
 20
0.0000
 30
0.0000
 40
0.2540
 41
0.2540
 70
0
  0
VERTEX
  8
16
 10
-1.1938
 20
12.1920
 30
0.0000
  0
VERTEX
  8
16
 10
4.6642
 20
12.1920
 30
0.0000
  0
SEQEND
  8
0
  0
POLYLINE
  8
16
 66
1
 10
0.0000
 20
0.0000
 30
0.0000
 40
0.1270
 41
0.1270
 70
0
  0
VERTEX
  8
16
 10
4.6642
 20
12.1285
 30
0.0000
 42
1.0000
  0
VERTEX
  8
16
 10
4.6642
 20
12.2555
 30
0.0000
  0
SEQEND
  8
0
  0
POLYLINE
  8
16
 66
1
 10
0.0000
 20
0.0000
 30
0.0000
 40
0.1270
 41
0.1270
 70
0
  0
VERTEX
  8
16
 10
-1.1938
 20
12.2555
 30
0.0000
 42
1.0000
  0
VERTEX
  8
16
 10
-1.1938
 20
12.1285
 30
0.0000
  0
SEQEND
  8
0
  0
POLYLINE
  8
16
 66
1
 10
0.0000
 20
0.0000
 30
0.0000
 40
0.2540
 41
0.2540
 70
0
  0
VERTEX
  8
16
 10
9.7158
 20
12.1920
 30
0.0000
  0
VERTEX
  8
16
 10
15.1638
 20
12.1920
 30
0.0000
  0
SEQEND
  8
0
  0
POLYLINE
  8
16
 66
1
 10
0.0000
 20
0.0000
 30
0.0000
 40
0.1270
 41
0.1270
 70
0
  0
VERTEX
  8
16
 10
15.1638
 20
12.1285
 30
0.0000
 42
1.0000
  0
VERTEX
  8
16
 10
15.1638
 20
12.2555
 30
0.0000
  0
SEQEND
  8
0
  0
POLYLINE
  8
16
 66
1
 10
0.0000
 20
0.0000
 30
0.0000
 40
0.1270
 41
0.1270
 70
0
  0
VERTEX
  8
16
 10
9.7158
 20
12.2555
 30
0.0000
 42
1.0000
  0
VERTEX
  8
16
 10
9.7158
 20
12.1285
 30
0.0000
  0
SEQEND
  8
0
  0
POLYLINE
  8
16
 66
1
 10
0.0000
 20
0.0000
 30
0.0000
 40
0.2540
 41
0.2540
 70
0
  0
VERTEX
  8
16
 10
-1.1938
 20
12.4460
 30
0.0000
  0
VERTEX
  8
16
 10
4.5961
 20
12.4460
 30
0.0000
  0
SEQEND
  8
0
  0
POLYLINE
  8
16
 66
1
 10
0.0000
 20
0.0000
 30
0.0000
 40
0.1270
 41
0.1270
 70
0
  0
VERTEX
  8
16
 10
4.5961
 20
12.3825
 30
0.0000
 42
1.0000
  0
VERTEX
  8
16
 10
4.5961
 20
12.5095
 30
0.0000
  0
SEQEND
  8
0
  0
POLYLINE
  8
16
 66
1
 10
0.0000
 20
0.0000
 30
0.0000
 40
0.1270
 41
0.1270
 70
0
  0
VERTEX
  8
16
 10
-1.1938
 20
12.5095
 30
0.0000
 42
1.0000
  0
VERTEX
  8
16
 10
-1.1938
 20
12.3825
 30
0.0000
  0
SEQEND
  8
0
  0
POLYLINE
  8
16
 66
1
 10
0.0000
 20
0.0000
 30
0.0000
 40
0.2540
 41
0.2540
 70
0
  0
VERTEX
  8
16
 10
9.7839
 20
12.4460
 30
0.0000
  0
VERTEX
  8
16
 10
15.1638
 20
12.4460
 30
0.0000
  0
SEQEND
  8
0
  0
POLYLINE
  8
16
 66
1
 10
0.0000
 20
0.0000
 30
0.0000
 40
0.1270
 41
0.1270
 70
0
  0
VERTEX
  8
16
 10
15.1638
 20
12.3825
 30
0.0000
 42
1.0000
  0
VERTEX
  8
16
 10
15.1638
 20
12.5095
 30
0.0000
  0
SEQEND
  8
0
  0
POLYLINE
  8
16
 66
1
 10
0.0000
 20
0.0000
 30
0.0000
 40
0.1270
 41
0.1270
 70
0
  0
VERTEX
  8
16
 10
9.7839
 20
12.5095
 30
0.0000
 42
1.0000
  0
VERTEX
  8
16
 10
9.7839
 20
12.3825
 30
0.0000
  0
SEQEND
  8
0
  0
POLYLINE
  8
16
 66
1
 10
0.0000
 20
0.0000
 30
0.0000
 40
0.2540
 41
0.2540
 70
0
  0
VERTEX
  8
16
 10
-1.1938
 20
12.7000
 30
0.0000
  0
VERTEX
  8
16
 10
4.5281
 20
12.7000
 30
0.0000
  0
SEQEND
  8
0
  0
POLYLINE
  8
16
 66
1
 10
0.0000
 20
0.0000
 30
0.0000
 40
0.1270
 41
0.1270
 70
0
  0
VERTEX
  8
16
 10
4.5281
 20
12.6365
 30
0.0000
 42
1.0000
  0
VERTEX
  8
16
 10
4.5281
 20
12.7635
 30
0.0000
  0
SEQEND
  8
0
  0
POLYLINE
  8
16
 66
1
 10
0.0000
 20
0.0000
 30
0.0000
 40
0.1270
 41
0.1270
 70
0
  0
VERTEX
  8
16
 10
-1.1938
 20
12.7635
 30
0.0000
 42
1.0000
  0
VERTEX
  8
16
 10
-1.1938
 20
12.6365
 30
0.0000
  0
SEQEND
  8
0
  0
POLYLINE
  8
16
 66
1
 10
0.0000
 20
0.0000
 30
0.0000
 40
0.2540
 41
0.2540
 70
0
  0
VERTEX
  8
16
 10
9.8519
 20
12.7000
 30
0.0000
  0
VERTEX
  8
16
 10
15.1638
 20
12.7000
 30
0.0000
  0
SEQEND
  8
0
  0
POLYLINE
  8
16
 66
1
 10
0.0000
 20
0.0000
 30
0.0000
 40
0.1270
 41
0.1270
 70
0
  0
VERTEX
  8
16
 10
15.1638
 20
12.6365
 30
0.0000
 42
1.0000
  0
VERTEX
  8
16
 10
15.1638
 20
12.7635
 30
0.0000
  0
SEQEND
  8
0
  0
POLYLINE
  8
16
 66
1
 10
0.0000
 20
0.0000
 30
0.0000
 40
0.1270
 41
0.1270
 70
0
  0
VERTEX
  8
16
 10
9.8519
 20
12.7635
 30
0.0000
 42
1.0000
  0
VERTEX
  8
16
 10
9.8519
 20
12.6365
 30
0.0000
  0
SEQEND
  8
0
  0
POLYLINE
  8
16
 66
1
 10
0.0000
 20
0.0000
 30
0.0000
 40
0.2540
 41
0.2540
 70
0
  0
VERTEX
  8
16
 10
-1.1938
 20
12.9540
 30
0.0000
  0
VERTEX
  8
16
 10
4.5230
 20
12.9540
 30
0.0000
  0
SEQEND
  8
0
  0
POLYLINE
  8
16
 66
1
 10
0.0000
 20
0.0000
 30
0.0000
 40
0.1270
 41
0.1270
 70
0
  0
VERTEX
  8
16
 10
4.5230
 20
12.8905
 30
0.0000
 42
1.0000
  0
VERTEX
  8
16
 10
4.5230
 20
13.0175
 30
0.0000
  0
SEQEND
  8
0
  0
POLYLINE
  8
16
 66
1
 10
0.0000
 20
0.0000
 30
0.0000
 40
0.1270
 41
0.1270
 70
0
  0
VERTEX
  8
16
 10
-1.1938
 20
13.0175
 30
0.0000
 42
1.0000
  0
VERTEX
  8
16
 10
-1.1938
 20
12.8905
 30
0.0000
  0
SEQEND
  8
0
  0
POLYLINE
  8
16
 66
1
 10
0.0000
 20
0.0000
 30
0.0000
 40
0.2540
 41
0.2540
 70
0
  0
VERTEX
  8
16
 10
9.8570
 20
12.9540
 30
0.0000
  0
VERTEX
  8
16
 10
15.1638
 20
12.9540
 30
0.0000
  0
SEQEND
  8
0
  0
POLYLINE
  8
16
 66
1
 10
0.0000
 20
0.0000
 30
0.0000
 40
0.1270
 41
0.1270
 70
0
  0
VERTEX
  8
16
 10
15.1638
 20
12.8905
 30
0.0000
 42
1.0000
  0
VERTEX
  8
16
 10
15.1638
 20
13.0175
 30
0.0000
  0
SEQEND
  8
0
  0
POLYLINE
  8
16
 66
1
 10
0.0000
 20
0.0000
 30
0.0000
 40
0.1270
 41
0.1270
 70
0
  0
VERTEX
  8
16
 10
9.8570
 20
13.0175
 30
0.0000
 42
1.0000
  0
VERTEX
  8
16
 10
9.8570
 20
12.8905
 30
0.0000
  0
SEQEND
  8
0
  0
POLYLINE
  8
16
 66
1
 10
0.0000
 20
0.0000
 30
0.0000
 40
0.2540
 41
0.2540
 70
0
  0
VERTEX
  8
16
 10
-1.1938
 20
13.2080
 30
0.0000
  0
VERTEX
  8
16
 10
4.5230
 20
13.2080
 30
0.0000
  0
SEQEND
  8
0
  0
POLYLINE
  8
16
 66
1
 10
0.0000
 20
0.0000
 30
0.0000
 40
0.1270
 41
0.1270
 70
0
  0
VERTEX
  8
16
 10
4.5230
 20
13.1445
 30
0.0000
 42
1.0000
  0
VERTEX
  8
16
 10
4.5230
 20
13.2715
 30
0.0000
  0
SEQEND
  8
0
  0
POLYLINE
  8
16
 66
1
 10
0.0000
 20
0.0000
 30
0.0000
 40
0.1270
 41
0.1270
 70
0
  0
VERTEX
  8
16
 10
-1.1938
 20
13.2715
 30
0.0000
 42
1.0000
  0
VERTEX
  8
16
 10
-1.1938
 20
13.1445
 30
0.0000
  0
SEQEND
  8
0
  0
POLYLINE
  8
16
 66
1
 10
0.0000
 20
0.0000
 30
0.0000
 40
0.2540
 41
0.2540
 70
0
  0
VERTEX
  8
16
 10
9.8570
 20
13.2080
 30
0.0000
  0
VERTEX
  8
16
 10
15.1638
 20
13.2080
 30
0.0000
  0
SEQEND
  8
0
  0
POLYLINE
  8
16
 66
1
 10
0.0000
 20
0.0000
 30
0.0000
 40
0.1270
 41
0.1270
 70
0
  0
VERTEX
  8
16
 10
15.1638
 20
13.1445
 30
0.0000
 42
1.0000
  0
VERTEX
  8
16
 10
15.1638
 20
13.2715
 30
0.0000
  0
SEQEND
  8
0
  0
POLYLINE
  8
16
 66
1
 10
0.0000
 20
0.0000
 30
0.0000
 40
0.1270
 41
0.1270
 70
0
  0
VERTEX
  8
16
 10
9.8570
 20
13.2715
 30
0.0000
 42
1.0000
  0
VERTEX
  8
16
 10
9.8570
 20
13.1445
 30
0.0000
  0
SEQEND
  8
0
  0
POLYLINE
  8
16
 66
1
 10
0.0000
 20
0.0000
 30
0.0000
 40
0.2540
 41
0.2540
 70
0
  0
VERTEX
  8
16
 10
-1.1938
 20
13.4620
 30
0.0000
  0
VERTEX
  8
16
 10
4.5340
 20
13.4620
 30
0.0000
  0
SEQEND
  8
0
  0
POLYLINE
  8
16
 66
1
 10
0.0000
 20
0.0000
 30
0.0000
 40
0.1270
 41
0.1270
 70
0
  0
VERTEX
  8
16
 10
4.5340
 20
13.3985
 30
0.0000
 42
1.0000
  0
VERTEX
  8
16
 10
4.5340
 20
13.5255
 30
0.0000
  0
SEQEND
  8
0
  0
POLYLINE
  8
16
 66
1
 10
0.0000
 20
0.0000
 30
0.0000
 40
0.1270
 41
0.1270
 70
0
  0
VERTEX
  8
16
 10
-1.1938
 20
13.5255
 30
0.0000
 42
1.0000
  0
VERTEX
  8
16
 10
-1.1938
 20
13.3985
 30
0.0000
  0
SEQEND
  8
0
  0
POLYLINE
  8
16
 66
1
 10
0.0000
 20
0.0000
 30
0.0000
 40
0.2540
 41
0.2540
 70
0
  0
VERTEX
  8
16
 10
9.8460
 20
13.4620
 30
0.0000
  0
VERTEX
  8
16
 10
15.1638
 20
13.4620
 30
0.0000
  0
SEQEND
  8
0
  0
POLYLINE
  8
16
 66
1
 10
0.0000
 20
0.0000
 30
0.0000
 40
0.1270
 41
0.1270
 70
0
  0
VERTEX
  8
16
 10
15.1638
 20
13.3985
 30
0.0000
 42
1.0000
  0
VERTEX
  8
16
 10
15.1638
 20
13.5255
 30
0.0000
  0
SEQEND
  8
0
  0
POLYLINE
  8
16
 66
1
 10
0.0000
 20
0.0000
 30
0.0000
 40
0.1270
 41
0.1270
 70
0
  0
VERTEX
  8
16
 10
9.8460
 20
13.5255
 30
0.0000
 42
1.0000
  0
VERTEX
  8
16
 10
9.8460
 20
13.3985
 30
0.0000
  0
SEQEND
  8
0
  0
POLYLINE
  8
16
 66
1
 10
0.0000
 20
0.0000
 30
0.0000
 40
0.2540
 41
0.2540
 70
0
  0
VERTEX
  8
16
 10
-1.1938
 20
13.7160
 30
0.0000
  0
VERTEX
  8
16
 10
4.6020
 20
13.7160
 30
0.0000
  0
SEQEND
  8
0
  0
POLYLINE
  8
16
 66
1
 10
0.0000
 20
0.0000
 30
0.0000
 40
0.1270
 41
0.1270
 70
0
  0
VERTEX
  8
16
 10
4.6020
 20
13.6525
 30
0.0000
 42
1.0000
  0
VERTEX
  8
16
 10
4.6020
 20
13.7795
 30
0.0000
  0
SEQEND
  8
0
  0
POLYLINE
  8
16
 66
1
 10
0.0000
 20
0.0000
 30
0.0000
 40
0.1270
 41
0.1270
 70
0
  0
VERTEX
  8
16
 10
-1.1938
 20
13.7795
 30
0.0000
 42
1.0000
  0
VERTEX
  8
16
 10
-1.1938
 20
13.6525
 30
0.0000
  0
SEQEND
  8
0
  0
POLYLINE
  8
16
 66
1
 10
0.0000
 20
0.0000
 30
0.0000
 40
0.2540
 41
0.2540
 70
0
  0
VERTEX
  8
16
 10
9.7780
 20
13.7160
 30
0.0000
  0
VERTEX
  8
16
 10
15.1638
 20
13.7160
 30
0.0000
  0
SEQEND
  8
0
  0
POLYLINE
  8
16
 66
1
 10
0.0000
 20
0.0000
 30
0.0000
 40
0.1270
 41
0.1270
 70
0
  0
VERTEX
  8
16
 10
15.1638
 20
13.6525
 30
0.0000
 42
1.0000
  0
VERTEX
  8
16
 10
15.1638
 20
13.7795
 30
0.0000
  0
SEQEND
  8
0
  0
POLYLINE
  8
16
 66
1
 10
0.0000
 20
0.0000
 30
0.0000
 40
0.1270
 41
0.1270
 70
0
  0
VERTEX
  8
16
 10
9.7780
 20
13.7795
 30
0.0000
 42
1.0000
  0
VERTEX
  8
16
 10
9.7780
 20
13.6525
 30
0.0000
  0
SEQEND
  8
0
  0
ENDSEC
  0
EOF
