G75*
%MOIN*%
%OFA0B0*%
%FSLAX24Y24*%
%IPPOS*%
%LPD*%
%AMOC8*
5,1,8,0,0,1.08239X$1,22.5*
%
%ADD10C,0.0160*%
%ADD11C,0.0000*%
%ADD12C,0.0050*%
%ADD13C,0.0394*%
%ADD14C,0.0040*%
%ADD15C,0.0080*%
%ADD16C,0.0060*%
%ADD17R,0.0295X0.0551*%
%ADD18R,0.0551X0.0295*%
D10*
X000383Y000180D02*
X000383Y031676D01*
X014162Y031676D01*
X014162Y000180D01*
X000383Y000180D01*
D11*
X001043Y001463D02*
X001045Y001512D01*
X001051Y001560D01*
X001061Y001608D01*
X001075Y001655D01*
X001092Y001701D01*
X001113Y001745D01*
X001138Y001787D01*
X001166Y001827D01*
X001198Y001865D01*
X001232Y001900D01*
X001269Y001932D01*
X001308Y001961D01*
X001350Y001987D01*
X001394Y002009D01*
X001439Y002027D01*
X001486Y002042D01*
X001533Y002053D01*
X001582Y002060D01*
X001631Y002063D01*
X001680Y002062D01*
X001728Y002057D01*
X001777Y002048D01*
X001824Y002035D01*
X001870Y002018D01*
X001914Y001998D01*
X001957Y001974D01*
X001998Y001947D01*
X002036Y001916D01*
X002072Y001883D01*
X002104Y001847D01*
X002134Y001808D01*
X002161Y001767D01*
X002184Y001723D01*
X002203Y001678D01*
X002219Y001632D01*
X002231Y001585D01*
X002239Y001536D01*
X002243Y001487D01*
X002243Y001439D01*
X002239Y001390D01*
X002231Y001341D01*
X002219Y001294D01*
X002203Y001248D01*
X002184Y001203D01*
X002161Y001159D01*
X002134Y001118D01*
X002104Y001079D01*
X002072Y001043D01*
X002036Y001010D01*
X001998Y000979D01*
X001957Y000952D01*
X001914Y000928D01*
X001870Y000908D01*
X001824Y000891D01*
X001777Y000878D01*
X001728Y000869D01*
X001680Y000864D01*
X001631Y000863D01*
X001582Y000866D01*
X001533Y000873D01*
X001486Y000884D01*
X001439Y000899D01*
X001394Y000917D01*
X001350Y000939D01*
X001308Y000965D01*
X001269Y000994D01*
X001232Y001026D01*
X001198Y001061D01*
X001166Y001099D01*
X001138Y001139D01*
X001113Y001181D01*
X001092Y001225D01*
X001075Y001271D01*
X001061Y001318D01*
X001051Y001366D01*
X001045Y001414D01*
X001043Y001463D01*
X001043Y003133D02*
X001045Y003182D01*
X001051Y003230D01*
X001061Y003278D01*
X001075Y003325D01*
X001092Y003371D01*
X001113Y003415D01*
X001138Y003457D01*
X001166Y003497D01*
X001198Y003535D01*
X001232Y003570D01*
X001269Y003602D01*
X001308Y003631D01*
X001350Y003657D01*
X001394Y003679D01*
X001439Y003697D01*
X001486Y003712D01*
X001533Y003723D01*
X001582Y003730D01*
X001631Y003733D01*
X001680Y003732D01*
X001728Y003727D01*
X001777Y003718D01*
X001824Y003705D01*
X001870Y003688D01*
X001914Y003668D01*
X001957Y003644D01*
X001998Y003617D01*
X002036Y003586D01*
X002072Y003553D01*
X002104Y003517D01*
X002134Y003478D01*
X002161Y003437D01*
X002184Y003393D01*
X002203Y003348D01*
X002219Y003302D01*
X002231Y003255D01*
X002239Y003206D01*
X002243Y003157D01*
X002243Y003109D01*
X002239Y003060D01*
X002231Y003011D01*
X002219Y002964D01*
X002203Y002918D01*
X002184Y002873D01*
X002161Y002829D01*
X002134Y002788D01*
X002104Y002749D01*
X002072Y002713D01*
X002036Y002680D01*
X001998Y002649D01*
X001957Y002622D01*
X001914Y002598D01*
X001870Y002578D01*
X001824Y002561D01*
X001777Y002548D01*
X001728Y002539D01*
X001680Y002534D01*
X001631Y002533D01*
X001582Y002536D01*
X001533Y002543D01*
X001486Y002554D01*
X001439Y002569D01*
X001394Y002587D01*
X001350Y002609D01*
X001308Y002635D01*
X001269Y002664D01*
X001232Y002696D01*
X001198Y002731D01*
X001166Y002769D01*
X001138Y002809D01*
X001113Y002851D01*
X001092Y002895D01*
X001075Y002941D01*
X001061Y002988D01*
X001051Y003036D01*
X001045Y003084D01*
X001043Y003133D01*
X002731Y000830D02*
X002733Y000864D01*
X002739Y000897D01*
X002748Y000929D01*
X002762Y000960D01*
X002779Y000989D01*
X002799Y001016D01*
X002822Y001041D01*
X002848Y001063D01*
X002876Y001081D01*
X002906Y001096D01*
X002938Y001108D01*
X002971Y001116D01*
X003004Y001120D01*
X003038Y001120D01*
X003071Y001116D01*
X003104Y001108D01*
X003136Y001096D01*
X003166Y001081D01*
X003194Y001063D01*
X003220Y001041D01*
X003243Y001016D01*
X003263Y000989D01*
X003280Y000960D01*
X003294Y000929D01*
X003303Y000897D01*
X003309Y000864D01*
X003311Y000830D01*
X003309Y000796D01*
X003303Y000763D01*
X003294Y000731D01*
X003280Y000700D01*
X003263Y000671D01*
X003243Y000644D01*
X003220Y000619D01*
X003194Y000597D01*
X003166Y000579D01*
X003136Y000564D01*
X003104Y000552D01*
X003071Y000544D01*
X003038Y000540D01*
X003004Y000540D01*
X002971Y000544D01*
X002938Y000552D01*
X002906Y000564D01*
X002876Y000579D01*
X002848Y000597D01*
X002822Y000619D01*
X002799Y000644D01*
X002779Y000671D01*
X002762Y000700D01*
X002748Y000731D01*
X002739Y000763D01*
X002733Y000796D01*
X002731Y000830D01*
X003731Y000830D02*
X003733Y000864D01*
X003739Y000897D01*
X003748Y000929D01*
X003762Y000960D01*
X003779Y000989D01*
X003799Y001016D01*
X003822Y001041D01*
X003848Y001063D01*
X003876Y001081D01*
X003906Y001096D01*
X003938Y001108D01*
X003971Y001116D01*
X004004Y001120D01*
X004038Y001120D01*
X004071Y001116D01*
X004104Y001108D01*
X004136Y001096D01*
X004166Y001081D01*
X004194Y001063D01*
X004220Y001041D01*
X004243Y001016D01*
X004263Y000989D01*
X004280Y000960D01*
X004294Y000929D01*
X004303Y000897D01*
X004309Y000864D01*
X004311Y000830D01*
X004309Y000796D01*
X004303Y000763D01*
X004294Y000731D01*
X004280Y000700D01*
X004263Y000671D01*
X004243Y000644D01*
X004220Y000619D01*
X004194Y000597D01*
X004166Y000579D01*
X004136Y000564D01*
X004104Y000552D01*
X004071Y000544D01*
X004038Y000540D01*
X004004Y000540D01*
X003971Y000544D01*
X003938Y000552D01*
X003906Y000564D01*
X003876Y000579D01*
X003848Y000597D01*
X003822Y000619D01*
X003799Y000644D01*
X003779Y000671D01*
X003762Y000700D01*
X003748Y000731D01*
X003739Y000763D01*
X003733Y000796D01*
X003731Y000830D01*
X003887Y002542D02*
X003889Y002563D01*
X003895Y002583D01*
X003904Y002603D01*
X003916Y002620D01*
X003931Y002634D01*
X003949Y002646D01*
X003969Y002654D01*
X003989Y002659D01*
X004010Y002660D01*
X004031Y002657D01*
X004051Y002651D01*
X004070Y002640D01*
X004087Y002627D01*
X004100Y002611D01*
X004111Y002593D01*
X004119Y002573D01*
X004123Y002553D01*
X004123Y002531D01*
X004119Y002511D01*
X004111Y002491D01*
X004100Y002473D01*
X004087Y002457D01*
X004070Y002444D01*
X004051Y002433D01*
X004031Y002427D01*
X004010Y002424D01*
X003989Y002425D01*
X003969Y002430D01*
X003949Y002438D01*
X003931Y002450D01*
X003916Y002464D01*
X003904Y002481D01*
X003895Y002501D01*
X003889Y002521D01*
X003887Y002542D01*
X002164Y009117D02*
X002166Y009156D01*
X002172Y009195D01*
X002182Y009233D01*
X002195Y009270D01*
X002212Y009305D01*
X002232Y009339D01*
X002256Y009370D01*
X002283Y009399D01*
X002312Y009425D01*
X002344Y009448D01*
X002378Y009468D01*
X002414Y009484D01*
X002451Y009496D01*
X002490Y009505D01*
X002529Y009510D01*
X002568Y009511D01*
X002607Y009508D01*
X002646Y009501D01*
X002683Y009490D01*
X002720Y009476D01*
X002755Y009458D01*
X002788Y009437D01*
X002819Y009412D01*
X002847Y009385D01*
X002872Y009355D01*
X002894Y009322D01*
X002913Y009288D01*
X002928Y009252D01*
X002940Y009214D01*
X002948Y009176D01*
X002952Y009137D01*
X002952Y009097D01*
X002948Y009058D01*
X002940Y009020D01*
X002928Y008982D01*
X002913Y008946D01*
X002894Y008912D01*
X002872Y008879D01*
X002847Y008849D01*
X002819Y008822D01*
X002788Y008797D01*
X002755Y008776D01*
X002720Y008758D01*
X002683Y008744D01*
X002646Y008733D01*
X002607Y008726D01*
X002568Y008723D01*
X002529Y008724D01*
X002490Y008729D01*
X002451Y008738D01*
X002414Y008750D01*
X002378Y008766D01*
X002344Y008786D01*
X002312Y008809D01*
X002283Y008835D01*
X002256Y008864D01*
X002232Y008895D01*
X002212Y008929D01*
X002195Y008964D01*
X002182Y009001D01*
X002172Y009039D01*
X002166Y009078D01*
X002164Y009117D01*
X006475Y009117D02*
X006477Y009156D01*
X006483Y009195D01*
X006493Y009233D01*
X006506Y009270D01*
X006523Y009305D01*
X006543Y009339D01*
X006567Y009370D01*
X006594Y009399D01*
X006623Y009425D01*
X006655Y009448D01*
X006689Y009468D01*
X006725Y009484D01*
X006762Y009496D01*
X006801Y009505D01*
X006840Y009510D01*
X006879Y009511D01*
X006918Y009508D01*
X006957Y009501D01*
X006994Y009490D01*
X007031Y009476D01*
X007066Y009458D01*
X007099Y009437D01*
X007130Y009412D01*
X007158Y009385D01*
X007183Y009355D01*
X007205Y009322D01*
X007224Y009288D01*
X007239Y009252D01*
X007251Y009214D01*
X007259Y009176D01*
X007263Y009137D01*
X007263Y009097D01*
X007259Y009058D01*
X007251Y009020D01*
X007239Y008982D01*
X007224Y008946D01*
X007205Y008912D01*
X007183Y008879D01*
X007158Y008849D01*
X007130Y008822D01*
X007099Y008797D01*
X007066Y008776D01*
X007031Y008758D01*
X006994Y008744D01*
X006957Y008733D01*
X006918Y008726D01*
X006879Y008723D01*
X006840Y008724D01*
X006801Y008729D01*
X006762Y008738D01*
X006725Y008750D01*
X006689Y008766D01*
X006655Y008786D01*
X006623Y008809D01*
X006594Y008835D01*
X006567Y008864D01*
X006543Y008895D01*
X006523Y008929D01*
X006506Y008964D01*
X006493Y009001D01*
X006483Y009039D01*
X006477Y009078D01*
X006475Y009117D01*
X008454Y002542D02*
X008456Y002563D01*
X008462Y002583D01*
X008471Y002603D01*
X008483Y002620D01*
X008498Y002634D01*
X008516Y002646D01*
X008536Y002654D01*
X008556Y002659D01*
X008577Y002660D01*
X008598Y002657D01*
X008618Y002651D01*
X008637Y002640D01*
X008654Y002627D01*
X008667Y002611D01*
X008678Y002593D01*
X008686Y002573D01*
X008690Y002553D01*
X008690Y002531D01*
X008686Y002511D01*
X008678Y002491D01*
X008667Y002473D01*
X008654Y002457D01*
X008637Y002444D01*
X008618Y002433D01*
X008598Y002427D01*
X008577Y002424D01*
X008556Y002425D01*
X008536Y002430D01*
X008516Y002438D01*
X008498Y002450D01*
X008483Y002464D01*
X008471Y002481D01*
X008462Y002501D01*
X008456Y002521D01*
X008454Y002542D01*
X010334Y003133D02*
X010336Y003182D01*
X010342Y003230D01*
X010352Y003278D01*
X010366Y003325D01*
X010383Y003371D01*
X010404Y003415D01*
X010429Y003457D01*
X010457Y003497D01*
X010489Y003535D01*
X010523Y003570D01*
X010560Y003602D01*
X010599Y003631D01*
X010641Y003657D01*
X010685Y003679D01*
X010730Y003697D01*
X010777Y003712D01*
X010824Y003723D01*
X010873Y003730D01*
X010922Y003733D01*
X010971Y003732D01*
X011019Y003727D01*
X011068Y003718D01*
X011115Y003705D01*
X011161Y003688D01*
X011205Y003668D01*
X011248Y003644D01*
X011289Y003617D01*
X011327Y003586D01*
X011363Y003553D01*
X011395Y003517D01*
X011425Y003478D01*
X011452Y003437D01*
X011475Y003393D01*
X011494Y003348D01*
X011510Y003302D01*
X011522Y003255D01*
X011530Y003206D01*
X011534Y003157D01*
X011534Y003109D01*
X011530Y003060D01*
X011522Y003011D01*
X011510Y002964D01*
X011494Y002918D01*
X011475Y002873D01*
X011452Y002829D01*
X011425Y002788D01*
X011395Y002749D01*
X011363Y002713D01*
X011327Y002680D01*
X011289Y002649D01*
X011248Y002622D01*
X011205Y002598D01*
X011161Y002578D01*
X011115Y002561D01*
X011068Y002548D01*
X011019Y002539D01*
X010971Y002534D01*
X010922Y002533D01*
X010873Y002536D01*
X010824Y002543D01*
X010777Y002554D01*
X010730Y002569D01*
X010685Y002587D01*
X010641Y002609D01*
X010599Y002635D01*
X010560Y002664D01*
X010523Y002696D01*
X010489Y002731D01*
X010457Y002769D01*
X010429Y002809D01*
X010404Y002851D01*
X010383Y002895D01*
X010366Y002941D01*
X010352Y002988D01*
X010342Y003036D01*
X010336Y003084D01*
X010334Y003133D01*
X010334Y001463D02*
X010336Y001512D01*
X010342Y001560D01*
X010352Y001608D01*
X010366Y001655D01*
X010383Y001701D01*
X010404Y001745D01*
X010429Y001787D01*
X010457Y001827D01*
X010489Y001865D01*
X010523Y001900D01*
X010560Y001932D01*
X010599Y001961D01*
X010641Y001987D01*
X010685Y002009D01*
X010730Y002027D01*
X010777Y002042D01*
X010824Y002053D01*
X010873Y002060D01*
X010922Y002063D01*
X010971Y002062D01*
X011019Y002057D01*
X011068Y002048D01*
X011115Y002035D01*
X011161Y002018D01*
X011205Y001998D01*
X011248Y001974D01*
X011289Y001947D01*
X011327Y001916D01*
X011363Y001883D01*
X011395Y001847D01*
X011425Y001808D01*
X011452Y001767D01*
X011475Y001723D01*
X011494Y001678D01*
X011510Y001632D01*
X011522Y001585D01*
X011530Y001536D01*
X011534Y001487D01*
X011534Y001439D01*
X011530Y001390D01*
X011522Y001341D01*
X011510Y001294D01*
X011494Y001248D01*
X011475Y001203D01*
X011452Y001159D01*
X011425Y001118D01*
X011395Y001079D01*
X011363Y001043D01*
X011327Y001010D01*
X011289Y000979D01*
X011248Y000952D01*
X011205Y000928D01*
X011161Y000908D01*
X011115Y000891D01*
X011068Y000878D01*
X011019Y000869D01*
X010971Y000864D01*
X010922Y000863D01*
X010873Y000866D01*
X010824Y000873D01*
X010777Y000884D01*
X010730Y000899D01*
X010685Y000917D01*
X010641Y000939D01*
X010599Y000965D01*
X010560Y000994D01*
X010523Y001026D01*
X010489Y001061D01*
X010457Y001099D01*
X010429Y001139D01*
X010404Y001181D01*
X010383Y001225D01*
X010366Y001271D01*
X010352Y001318D01*
X010342Y001366D01*
X010336Y001414D01*
X010334Y001463D01*
X011548Y002050D02*
X011550Y002081D01*
X011556Y002112D01*
X011565Y002142D01*
X011578Y002171D01*
X011595Y002198D01*
X011615Y002222D01*
X011637Y002244D01*
X011663Y002263D01*
X011690Y002279D01*
X011719Y002291D01*
X011749Y002300D01*
X011780Y002305D01*
X011812Y002306D01*
X011843Y002303D01*
X011874Y002296D01*
X011904Y002286D01*
X011932Y002272D01*
X011958Y002254D01*
X011982Y002234D01*
X012003Y002210D01*
X012022Y002185D01*
X012037Y002157D01*
X012048Y002128D01*
X012056Y002097D01*
X012060Y002066D01*
X012060Y002034D01*
X012056Y002003D01*
X012048Y001972D01*
X012037Y001943D01*
X012022Y001915D01*
X012003Y001890D01*
X011982Y001866D01*
X011958Y001846D01*
X011932Y001828D01*
X011904Y001814D01*
X011874Y001804D01*
X011843Y001797D01*
X011812Y001794D01*
X011780Y001795D01*
X011749Y001800D01*
X011719Y001809D01*
X011690Y001821D01*
X011663Y001837D01*
X011637Y001856D01*
X011615Y001878D01*
X011595Y001902D01*
X011578Y001929D01*
X011565Y001958D01*
X011556Y001988D01*
X011550Y002019D01*
X011548Y002050D01*
X011548Y004806D02*
X011550Y004837D01*
X011556Y004868D01*
X011565Y004898D01*
X011578Y004927D01*
X011595Y004954D01*
X011615Y004978D01*
X011637Y005000D01*
X011663Y005019D01*
X011690Y005035D01*
X011719Y005047D01*
X011749Y005056D01*
X011780Y005061D01*
X011812Y005062D01*
X011843Y005059D01*
X011874Y005052D01*
X011904Y005042D01*
X011932Y005028D01*
X011958Y005010D01*
X011982Y004990D01*
X012003Y004966D01*
X012022Y004941D01*
X012037Y004913D01*
X012048Y004884D01*
X012056Y004853D01*
X012060Y004822D01*
X012060Y004790D01*
X012056Y004759D01*
X012048Y004728D01*
X012037Y004699D01*
X012022Y004671D01*
X012003Y004646D01*
X011982Y004622D01*
X011958Y004602D01*
X011932Y004584D01*
X011904Y004570D01*
X011874Y004560D01*
X011843Y004553D01*
X011812Y004550D01*
X011780Y004551D01*
X011749Y004556D01*
X011719Y004565D01*
X011690Y004577D01*
X011663Y004593D01*
X011637Y004612D01*
X011615Y004634D01*
X011595Y004658D01*
X011578Y004685D01*
X011565Y004714D01*
X011556Y004744D01*
X011550Y004775D01*
X011548Y004806D01*
X012587Y001145D02*
X012589Y001193D01*
X012595Y001241D01*
X012605Y001288D01*
X012618Y001334D01*
X012636Y001379D01*
X012656Y001423D01*
X012681Y001465D01*
X012709Y001504D01*
X012739Y001541D01*
X012773Y001575D01*
X012810Y001607D01*
X012848Y001636D01*
X012889Y001661D01*
X012932Y001683D01*
X012977Y001701D01*
X013023Y001715D01*
X013070Y001726D01*
X013118Y001733D01*
X013166Y001736D01*
X013214Y001735D01*
X013262Y001730D01*
X013310Y001721D01*
X013356Y001709D01*
X013401Y001692D01*
X013445Y001672D01*
X013487Y001649D01*
X013527Y001622D01*
X013565Y001592D01*
X013600Y001559D01*
X013632Y001523D01*
X013662Y001485D01*
X013688Y001444D01*
X013710Y001401D01*
X013730Y001357D01*
X013745Y001312D01*
X013757Y001265D01*
X013765Y001217D01*
X013769Y001169D01*
X013769Y001121D01*
X013765Y001073D01*
X013757Y001025D01*
X013745Y000978D01*
X013730Y000933D01*
X013710Y000889D01*
X013688Y000846D01*
X013662Y000805D01*
X013632Y000767D01*
X013600Y000731D01*
X013565Y000698D01*
X013527Y000668D01*
X013487Y000641D01*
X013445Y000618D01*
X013401Y000598D01*
X013356Y000581D01*
X013310Y000569D01*
X013262Y000560D01*
X013214Y000555D01*
X013166Y000554D01*
X013118Y000557D01*
X013070Y000564D01*
X013023Y000575D01*
X012977Y000589D01*
X012932Y000607D01*
X012889Y000629D01*
X012848Y000654D01*
X012810Y000683D01*
X012773Y000715D01*
X012739Y000749D01*
X012709Y000786D01*
X012681Y000825D01*
X012656Y000867D01*
X012636Y000911D01*
X012618Y000956D01*
X012605Y001002D01*
X012595Y001049D01*
X012589Y001097D01*
X012587Y001145D01*
X006475Y022739D02*
X006477Y022778D01*
X006483Y022817D01*
X006493Y022855D01*
X006506Y022892D01*
X006523Y022927D01*
X006543Y022961D01*
X006567Y022992D01*
X006594Y023021D01*
X006623Y023047D01*
X006655Y023070D01*
X006689Y023090D01*
X006725Y023106D01*
X006762Y023118D01*
X006801Y023127D01*
X006840Y023132D01*
X006879Y023133D01*
X006918Y023130D01*
X006957Y023123D01*
X006994Y023112D01*
X007031Y023098D01*
X007066Y023080D01*
X007099Y023059D01*
X007130Y023034D01*
X007158Y023007D01*
X007183Y022977D01*
X007205Y022944D01*
X007224Y022910D01*
X007239Y022874D01*
X007251Y022836D01*
X007259Y022798D01*
X007263Y022759D01*
X007263Y022719D01*
X007259Y022680D01*
X007251Y022642D01*
X007239Y022604D01*
X007224Y022568D01*
X007205Y022534D01*
X007183Y022501D01*
X007158Y022471D01*
X007130Y022444D01*
X007099Y022419D01*
X007066Y022398D01*
X007031Y022380D01*
X006994Y022366D01*
X006957Y022355D01*
X006918Y022348D01*
X006879Y022345D01*
X006840Y022346D01*
X006801Y022351D01*
X006762Y022360D01*
X006725Y022372D01*
X006689Y022388D01*
X006655Y022408D01*
X006623Y022431D01*
X006594Y022457D01*
X006567Y022486D01*
X006543Y022517D01*
X006523Y022551D01*
X006506Y022586D01*
X006493Y022623D01*
X006483Y022661D01*
X006477Y022700D01*
X006475Y022739D01*
X003026Y029331D02*
X003028Y029352D01*
X003034Y029373D01*
X003043Y029393D01*
X003056Y029410D01*
X003071Y029425D01*
X003089Y029437D01*
X003109Y029445D01*
X003130Y029450D01*
X003151Y029451D01*
X003173Y029448D01*
X003193Y029441D01*
X003212Y029431D01*
X003229Y029418D01*
X003243Y029402D01*
X003254Y029383D01*
X003262Y029363D01*
X003266Y029342D01*
X003266Y029320D01*
X003262Y029299D01*
X003254Y029279D01*
X003243Y029260D01*
X003229Y029244D01*
X003212Y029231D01*
X003193Y029221D01*
X003173Y029214D01*
X003151Y029211D01*
X003130Y029212D01*
X003109Y029217D01*
X003089Y029225D01*
X003071Y029237D01*
X003056Y029252D01*
X003043Y029269D01*
X003034Y029289D01*
X003028Y029310D01*
X003026Y029331D01*
X001436Y027721D02*
X001438Y027742D01*
X001444Y027763D01*
X001453Y027783D01*
X001466Y027800D01*
X001481Y027815D01*
X001499Y027827D01*
X001519Y027835D01*
X001540Y027840D01*
X001561Y027841D01*
X001583Y027838D01*
X001603Y027831D01*
X001622Y027821D01*
X001639Y027808D01*
X001653Y027792D01*
X001664Y027773D01*
X001672Y027753D01*
X001676Y027732D01*
X001676Y027710D01*
X001672Y027689D01*
X001664Y027669D01*
X001653Y027650D01*
X001639Y027634D01*
X001622Y027621D01*
X001603Y027611D01*
X001583Y027604D01*
X001561Y027601D01*
X001540Y027602D01*
X001519Y027607D01*
X001499Y027615D01*
X001481Y027627D01*
X001466Y027642D01*
X001453Y027659D01*
X001444Y027679D01*
X001438Y027700D01*
X001436Y027721D01*
X000841Y030042D02*
X000843Y030076D01*
X000849Y030109D01*
X000858Y030141D01*
X000872Y030172D01*
X000889Y030201D01*
X000909Y030228D01*
X000932Y030253D01*
X000958Y030275D01*
X000986Y030293D01*
X001016Y030308D01*
X001048Y030320D01*
X001081Y030328D01*
X001114Y030332D01*
X001148Y030332D01*
X001181Y030328D01*
X001214Y030320D01*
X001246Y030308D01*
X001276Y030293D01*
X001304Y030275D01*
X001330Y030253D01*
X001353Y030228D01*
X001373Y030201D01*
X001390Y030172D01*
X001404Y030141D01*
X001413Y030109D01*
X001419Y030076D01*
X001421Y030042D01*
X001419Y030008D01*
X001413Y029975D01*
X001404Y029943D01*
X001390Y029912D01*
X001373Y029883D01*
X001353Y029856D01*
X001330Y029831D01*
X001304Y029809D01*
X001276Y029791D01*
X001246Y029776D01*
X001214Y029764D01*
X001181Y029756D01*
X001148Y029752D01*
X001114Y029752D01*
X001081Y029756D01*
X001048Y029764D01*
X001016Y029776D01*
X000986Y029791D01*
X000958Y029809D01*
X000932Y029831D01*
X000909Y029856D01*
X000889Y029883D01*
X000872Y029912D01*
X000858Y029943D01*
X000849Y029975D01*
X000843Y030008D01*
X000841Y030042D01*
X000841Y031042D02*
X000843Y031076D01*
X000849Y031109D01*
X000858Y031141D01*
X000872Y031172D01*
X000889Y031201D01*
X000909Y031228D01*
X000932Y031253D01*
X000958Y031275D01*
X000986Y031293D01*
X001016Y031308D01*
X001048Y031320D01*
X001081Y031328D01*
X001114Y031332D01*
X001148Y031332D01*
X001181Y031328D01*
X001214Y031320D01*
X001246Y031308D01*
X001276Y031293D01*
X001304Y031275D01*
X001330Y031253D01*
X001353Y031228D01*
X001373Y031201D01*
X001390Y031172D01*
X001404Y031141D01*
X001413Y031109D01*
X001419Y031076D01*
X001421Y031042D01*
X001419Y031008D01*
X001413Y030975D01*
X001404Y030943D01*
X001390Y030912D01*
X001373Y030883D01*
X001353Y030856D01*
X001330Y030831D01*
X001304Y030809D01*
X001276Y030791D01*
X001246Y030776D01*
X001214Y030764D01*
X001181Y030756D01*
X001148Y030752D01*
X001114Y030752D01*
X001081Y030756D01*
X001048Y030764D01*
X001016Y030776D01*
X000986Y030791D01*
X000958Y030809D01*
X000932Y030831D01*
X000909Y030856D01*
X000889Y030883D01*
X000872Y030912D01*
X000858Y030943D01*
X000849Y030975D01*
X000843Y031008D01*
X000841Y031042D01*
X002164Y022739D02*
X002166Y022778D01*
X002172Y022817D01*
X002182Y022855D01*
X002195Y022892D01*
X002212Y022927D01*
X002232Y022961D01*
X002256Y022992D01*
X002283Y023021D01*
X002312Y023047D01*
X002344Y023070D01*
X002378Y023090D01*
X002414Y023106D01*
X002451Y023118D01*
X002490Y023127D01*
X002529Y023132D01*
X002568Y023133D01*
X002607Y023130D01*
X002646Y023123D01*
X002683Y023112D01*
X002720Y023098D01*
X002755Y023080D01*
X002788Y023059D01*
X002819Y023034D01*
X002847Y023007D01*
X002872Y022977D01*
X002894Y022944D01*
X002913Y022910D01*
X002928Y022874D01*
X002940Y022836D01*
X002948Y022798D01*
X002952Y022759D01*
X002952Y022719D01*
X002948Y022680D01*
X002940Y022642D01*
X002928Y022604D01*
X002913Y022568D01*
X002894Y022534D01*
X002872Y022501D01*
X002847Y022471D01*
X002819Y022444D01*
X002788Y022419D01*
X002755Y022398D01*
X002720Y022380D01*
X002683Y022366D01*
X002646Y022355D01*
X002607Y022348D01*
X002568Y022345D01*
X002529Y022346D01*
X002490Y022351D01*
X002451Y022360D01*
X002414Y022372D01*
X002378Y022388D01*
X002344Y022408D01*
X002312Y022431D01*
X002283Y022457D01*
X002256Y022486D01*
X002232Y022517D01*
X002212Y022551D01*
X002195Y022586D01*
X002182Y022623D01*
X002172Y022661D01*
X002166Y022700D01*
X002164Y022739D01*
X012587Y030711D02*
X012589Y030759D01*
X012595Y030807D01*
X012605Y030854D01*
X012618Y030900D01*
X012636Y030945D01*
X012656Y030989D01*
X012681Y031031D01*
X012709Y031070D01*
X012739Y031107D01*
X012773Y031141D01*
X012810Y031173D01*
X012848Y031202D01*
X012889Y031227D01*
X012932Y031249D01*
X012977Y031267D01*
X013023Y031281D01*
X013070Y031292D01*
X013118Y031299D01*
X013166Y031302D01*
X013214Y031301D01*
X013262Y031296D01*
X013310Y031287D01*
X013356Y031275D01*
X013401Y031258D01*
X013445Y031238D01*
X013487Y031215D01*
X013527Y031188D01*
X013565Y031158D01*
X013600Y031125D01*
X013632Y031089D01*
X013662Y031051D01*
X013688Y031010D01*
X013710Y030967D01*
X013730Y030923D01*
X013745Y030878D01*
X013757Y030831D01*
X013765Y030783D01*
X013769Y030735D01*
X013769Y030687D01*
X013765Y030639D01*
X013757Y030591D01*
X013745Y030544D01*
X013730Y030499D01*
X013710Y030455D01*
X013688Y030412D01*
X013662Y030371D01*
X013632Y030333D01*
X013600Y030297D01*
X013565Y030264D01*
X013527Y030234D01*
X013487Y030207D01*
X013445Y030184D01*
X013401Y030164D01*
X013356Y030147D01*
X013310Y030135D01*
X013262Y030126D01*
X013214Y030121D01*
X013166Y030120D01*
X013118Y030123D01*
X013070Y030130D01*
X013023Y030141D01*
X012977Y030155D01*
X012932Y030173D01*
X012889Y030195D01*
X012848Y030220D01*
X012810Y030249D01*
X012773Y030281D01*
X012739Y030315D01*
X012709Y030352D01*
X012681Y030391D01*
X012656Y030433D01*
X012636Y030477D01*
X012618Y030522D01*
X012605Y030568D01*
X012595Y030615D01*
X012589Y030663D01*
X012587Y030711D01*
D12*
X010934Y031688D02*
X008284Y031688D01*
X005973Y031676D02*
X003324Y031676D01*
X002622Y027306D02*
X002624Y027331D01*
X002630Y027355D01*
X002639Y027378D01*
X002651Y027399D01*
X002667Y027418D01*
X002686Y027435D01*
X002707Y027448D01*
X002729Y027458D01*
X002753Y027465D01*
X002778Y027468D01*
X002803Y027467D01*
X002827Y027462D01*
X002850Y027454D01*
X002872Y027442D01*
X002892Y027427D01*
X002909Y027409D01*
X002923Y027389D01*
X002934Y027367D01*
X002942Y027343D01*
X002946Y027318D01*
X002946Y027294D01*
X002942Y027269D01*
X002934Y027245D01*
X002923Y027223D01*
X002909Y027203D01*
X002892Y027185D01*
X002872Y027170D01*
X002850Y027158D01*
X002827Y027150D01*
X002803Y027145D01*
X002778Y027144D01*
X002753Y027147D01*
X002729Y027154D01*
X002707Y027164D01*
X002686Y027177D01*
X002667Y027194D01*
X002651Y027213D01*
X002639Y027234D01*
X002630Y027257D01*
X002624Y027281D01*
X002622Y027306D01*
X009047Y025227D02*
X015702Y025227D01*
X015702Y019227D01*
X009047Y019227D01*
X009052Y019227D02*
X009052Y025227D01*
X009052Y018928D02*
X009052Y012928D01*
X009047Y012928D02*
X015702Y012928D01*
X015702Y018928D01*
X009047Y018928D01*
X010857Y012080D02*
X012865Y012080D01*
X012865Y005151D01*
X010857Y005151D01*
X010857Y012080D01*
X012614Y008852D02*
X012614Y008385D01*
X012850Y008385D01*
X012846Y008852D02*
X012846Y008852D01*
X012614Y008852D01*
X013454Y014589D02*
X013454Y017239D01*
D13*
X013086Y011863D03*
D14*
X013200Y009736D02*
X013123Y009659D01*
X013123Y009505D01*
X013200Y009429D01*
X013200Y009275D02*
X013277Y009275D01*
X013354Y009198D01*
X013354Y009045D01*
X013430Y008968D01*
X013507Y008968D01*
X013584Y009045D01*
X013584Y009198D01*
X013507Y009275D01*
X013507Y009429D02*
X013584Y009505D01*
X013584Y009659D01*
X013507Y009736D01*
X013430Y009736D01*
X013354Y009659D01*
X013277Y009736D01*
X013200Y009736D01*
X013354Y009659D02*
X013354Y009582D01*
X013200Y009275D02*
X013123Y009198D01*
X013123Y009045D01*
X013200Y008968D01*
X013200Y008815D02*
X013584Y008815D01*
X013584Y008508D02*
X013200Y008508D01*
X013123Y008585D01*
X013123Y008738D01*
X013200Y008815D01*
X013047Y009122D02*
X013660Y009122D01*
D15*
X005530Y026952D02*
X005530Y028054D01*
X004920Y028054D01*
X004920Y026952D01*
X005530Y026952D01*
X003219Y027602D02*
X003021Y027601D01*
X001721Y027601D01*
X001706Y024172D02*
X003005Y024172D01*
X003217Y024173D01*
X003513Y015918D02*
X002410Y015918D01*
X002410Y015308D01*
X003513Y015308D01*
X003513Y015918D01*
D16*
X004665Y016273D02*
X004665Y017443D01*
X005825Y017443D02*
X005825Y016273D01*
X007795Y026716D02*
X007795Y027886D01*
X008955Y027886D02*
X008955Y026716D01*
D17*
X005373Y027778D03*
D18*
X002686Y015761D03*
M02*
