%
M48
M72
T01C0.0098
T02C0.0236
T03C0.0240
T04C0.0276
T05C0.0350
T06C0.0390
T07C0.0512
T08C0.0580
T09C0.0787
T10C0.1181
T11C0.1200
T12C0.1220
T13C0.1417
%
T01
X3217Y3900
X3808Y5278
X3808Y5928
X4103Y4629
X4635Y6814
X4221Y7582
X2332Y8231
X1741Y10121
X1800Y10830
X1859Y11420
X1977Y12247
X2095Y12837
X1977Y13369
X2154Y13723
X3572Y13428
X2214Y16617
X3099Y16912
X3513Y16912
X3217Y18566
X3296Y18920
X2863Y19274
X2430Y19314
X1985Y20042
X2312Y21164
X2095Y21696
X2725Y21046
X2863Y20534
X3178Y20377
X3178Y20731
X4556Y20534
X4556Y20141
X4556Y19747
X4910Y19747
X5265Y19747
X5265Y20141
X5265Y20534
X5265Y20928
X5265Y21322
X4910Y21322
X4910Y20928
X4910Y20534
X4910Y20141
X4556Y20928
X4556Y21322
X4399Y24471
X5540Y26755
X4812Y26774
X4280Y27070
X4320Y27719
X4359Y28152
X4733Y28822
X5540Y29255
X5875Y28192
X6347Y29649
X6741Y29530
X7410Y28310
X6997Y28015
X7666Y29353
X7233Y31086
X5127Y30771
X3710Y27798
X3395Y28841
X2332Y27719
X2863Y26125
X1918Y23940
X1210Y23664
X1151Y24078
X855Y22936
X1879Y29373
X6406Y22109
X7273Y21440
X7666Y23192
X7174Y23467
X7233Y24471
X8001Y24353
X9635Y25830
X10186Y24058
X10777Y22168
X10422Y21932
X10127Y21519
X11662Y24589
X11721Y25121
X11190Y26420
X11426Y27542
X10304Y28605
X10422Y29255
X9714Y28782
X13670Y29019
X12017Y20515
X12135Y19688
X12253Y16263
X10481Y13369
X10304Y12778
X10009Y13546
X9418Y13664
X8828Y12483
X8532Y12129
X8001Y13664
X8473Y13841
X7410Y14255
X7233Y13192
X7351Y15377
X7115Y15967
X6820Y16263
X6879Y15397
X6111Y15849
X6997Y17700
X6761Y17936
X7647Y16971
X8375Y19393
X10954Y12188
X10481Y11952
X10599Y9845
X10009Y8349
X10619Y6932
X12135Y11420
X11780Y12424
X8237Y7463
X7765Y7404
X7529Y6932
X7292Y7523
X7410Y6046
X8355Y6341
X7529Y9353
X6525Y11007
X6466Y10239
X9654Y1912
X9714Y1440
X9773Y967
X8651Y1204
X8296Y1381
X7824Y1499
X7056Y908
X6934Y1381
X6643Y908
X6229Y908
X5875Y908
X5462Y908
X5107Y711
T02
X4005Y2542
X8572Y2542
T03
X1556Y27721
X3146Y29331
T04
X11603Y10869
X11603Y10369
X11603Y9869
X11603Y9369
X11603Y8869
X11603Y8369
X11603Y7869
X11603Y7369
X11603Y6869
X11603Y6369
X12103Y6369
X12103Y6869
X12103Y7369
X12103Y7869
X12103Y8369
X12103Y8869
X12103Y9369
X12103Y9869
X12103Y10369
X12103Y10869
T05
X4021Y830
X3021Y830
X1131Y30042
X1131Y31042
T06
X12784Y4314
X12784Y2542
T07
X11804Y2050
X11804Y4806
T08
X4021Y830
X3021Y830
X1131Y30042
X1131Y31042
T09
X2558Y22739
X6869Y22739
X6869Y9117
X2558Y9117
T10
X13178Y1145
X13178Y30711
T11
X1643Y1463
X1643Y3133
X10934Y3133
X10934Y1463
T12
X12666Y27149
X11485Y28999
T13
X10304Y27149
M30
